if (_typeface_js && _typeface_js.loadFace) _typeface_js.loadFace({"glyphs":{"0":{"ha":833,"x_min":0,"x_max":0,"o":"m 417 67 b 651 488 568 67 651 200 b 417 906 651 774 568 906 b 182 488 265 906 182 774 b 417 67 182 200 265 67 m 417 -21 b 76 488 224 -21 76 136 b 417 993 76 844 225 993 b 757 488 608 993 757 844 b 417 -21 757 136 610 -21 "},"1":{"ha":833,"x_min":0,"x_max":0,"o":"m 419 0 l 419 864 l 199 743 l 199 850 l 421 972 l 522 972 l 522 0 "},"2":{"ha":833,"x_min":0,"x_max":0,"o":"m 90 728 b 421 993 113 885 240 993 b 726 722 593 993 726 889 b 508 353 726 593 668 508 l 246 96 l 724 96 l 724 0 l 107 0 l 107 96 l 447 432 b 621 721 568 550 621 621 b 418 906 621 832 544 906 b 200 728 299 906 214 836 "},"3":{"ha":833,"x_min":0,"x_max":0,"o":"m 410 -19 b 69 231 219 -19 94 78 l 179 231 b 408 67 201 125 283 67 b 640 267 551 67 640 146 b 431 467 640 404 540 467 l 340 467 l 340 557 l 426 557 b 610 733 525 557 610 619 b 404 906 610 847 517 906 b 185 749 285 906 203 846 l 76 749 b 410 993 101 899 231 993 b 715 742 574 993 715 907 b 536 517 715 631 646 547 b 746 265 650 497 746 411 b 410 -19 746 94 611 -19 "},"4":{"ha":833,"x_min":0,"x_max":0,"o":"m 614 972 l 614 272 l 767 272 l 767 183 l 614 183 l 614 0 l 513 0 l 513 183 l 76 183 l 76 282 l 504 972 m 513 272 l 513 807 l 189 272 "},"5":{"ha":833,"x_min":0,"x_max":0,"o":"m 410 -21 b 75 231 226 -21 100 90 l 183 231 b 411 67 206 132 290 67 b 646 317 543 67 646 160 b 417 554 646 469 553 554 b 200 453 324 554 246 510 l 110 453 l 131 972 l 707 972 l 707 885 l 225 885 l 213 556 b 439 638 264 601 338 638 b 753 313 613 638 753 524 b 410 -21 753 125 618 -21 "},"6":{"ha":833,"x_min":0,"x_max":0,"o":"m 614 794 b 444 908 593 864 532 908 b 196 490 319 908 207 815 b 444 635 249 583 346 635 b 750 310 628 635 750 504 b 431 -21 750 93 594 -21 b 94 446 196 -21 94 163 b 446 993 94 882 268 993 b 726 794 583 993 696 917 m 428 547 b 210 318 296 547 210 451 b 432 67 210 188 283 67 b 646 303 546 67 646 153 b 428 547 646 457 558 547 "},"7":{"ha":833,"x_min":0,"x_max":0,"o":"m 301 0 l 185 0 l 608 879 l 101 879 l 101 972 l 718 972 l 718 879 "},"8":{"ha":833,"x_min":0,"x_max":0,"o":"m 729 747 b 547 518 729 624 635 554 b 765 257 649 479 765 404 b 417 -21 765 97 628 -21 b 68 249 206 -21 68 96 b 276 511 68 406 179 478 b 104 739 194 544 104 611 b 417 993 104 913 254 993 b 729 747 581 993 729 919 m 656 257 b 394 478 656 414 513 454 b 178 257 292 451 178 393 b 417 65 178 147 267 65 b 656 257 564 65 656 142 m 206 744 b 432 546 206 597 338 561 b 626 744 526 575 626 628 b 417 911 626 854 528 911 b 206 744 308 911 206 860 "},"9":{"ha":833,"x_min":0,"x_max":0,"o":"m 224 179 b 400 64 244 107 311 64 b 647 482 538 64 636 165 b 400 338 596 388 497 338 b 94 663 226 338 94 456 b 411 993 94 863 233 993 b 750 526 646 993 750 817 b 396 -21 750 106 590 -21 b 111 179 256 -21 143 57 m 417 425 b 635 654 547 425 635 521 b 413 906 635 785 560 906 b 199 669 293 906 199 815 b 417 425 199 507 294 425 "},"\u0000":{"ha":0,"x_min":0,"x_max":0,"o":""},"\r":{"ha":417,"x_min":0,"x_max":0,"o":""}," ":{"ha":417,"x_min":0,"x_max":0,"o":""},"!":{"ha":378,"x_min":0,"x_max":0,"o":"m 144 324 l 126 1000 l 249 1000 l 231 324 m 125 0 l 125 135 l 254 135 l 254 0 "},"\"":{"ha":833,"x_min":0,"x_max":0,"o":"m 221 681 l 146 681 l 129 893 l 129 1021 l 238 1021 l 238 893 m 428 681 l 353 681 l 336 893 l 336 1021 l 444 1021 l 444 893 "},"#":{"ha":833,"x_min":0,"x_max":0,"o":"m 74 711 l 194 711 l 218 972 l 311 972 l 288 711 l 583 711 l 607 972 l 700 972 l 676 711 l 788 711 l 788 629 l 669 629 l 644 343 l 760 343 l 760 261 l 638 261 l 615 0 l 522 0 l 544 261 l 249 261 l 226 0 l 133 0 l 156 261 l 46 261 l 46 343 l 163 343 l 188 629 l 74 629 m 256 343 l 551 343 l 576 629 l 281 629 "},"$":{"ha":833,"x_min":0,"x_max":0,"o":"m 372 -15 b 42 264 201 -1 71 93 l 154 264 b 424 74 176 140 274 74 b 681 258 592 74 681 151 b 372 476 681 358 629 414 b 81 744 158 529 81 611 b 372 990 81 874 182 976 l 372 1153 l 469 1153 l 469 990 b 788 739 646 976 761 885 l 675 739 b 415 901 654 843 565 901 b 190 751 261 901 190 835 b 449 563 190 665 226 617 b 790 264 704 500 790 404 b 469 -17 790 122 676 -1 l 469 -187 l 372 -187 "},"%":{"ha":1160,"x_min":0,"x_max":0,"o":"m 379 0 l 276 0 l 772 972 l 875 972 m 150 758 b 292 600 150 646 215 600 b 436 758 368 600 436 646 b 292 917 436 871 368 917 b 150 758 215 917 150 871 m 524 758 b 292 524 524 601 413 524 b 61 758 171 524 61 601 b 292 993 61 915 171 993 b 524 758 413 993 524 915 m 725 214 b 867 56 725 101 790 56 b 1011 214 943 56 1011 101 b 867 372 1011 326 943 372 b 725 214 790 372 725 326 m 1099 214 b 867 -21 1099 57 988 -21 b 635 214 746 -21 635 57 b 867 449 635 371 746 449 b 1099 214 988 449 1099 371 "},"&":{"ha":911,"x_min":0,"x_max":0,"o":"m 838 457 b 738 182 826 365 793 267 l 879 46 l 804 -21 l 675 106 b 381 -21 603 29 504 -21 b 51 232 179 -21 51 81 b 261 515 51 369 133 442 b 114 765 163 615 114 678 b 372 993 114 879 208 993 b 631 779 536 993 631 885 b 411 497 631 656 538 565 l 669 247 b 743 469 708 315 733 394 m 388 68 b 611 169 479 68 554 108 l 324 453 b 160 239 222 394 160 335 b 388 68 160 133 243 68 m 214 767 b 346 560 214 700 251 654 b 533 776 469 629 533 692 b 374 908 533 838 486 908 b 214 767 261 908 214 835 "},"'":{"ha":375,"x_min":0,"x_max":0,"o":"m 225 681 l 150 681 l 133 893 l 133 1021 l 242 1021 l 242 893 "},"(":{"ha":472,"x_min":0,"x_max":0,"o":"m 207 444 b 418 -236 207 157 303 -60 l 331 -236 b 103 444 224 -94 103 143 b 331 1125 103 746 224 983 l 418 1125 b 207 444 303 949 207 732 "},")":{"ha":472,"x_min":0,"x_max":0,"o":"m 265 444 b 54 1125 265 732 169 949 l 142 1125 b 369 444 249 983 369 746 b 142 -236 369 143 249 -94 l 54 -236 b 265 444 169 -60 265 157 "},"*":{"ha":653,"x_min":0,"x_max":0,"o":"m 325 713 l 214 526 l 136 585 l 279 749 l 67 797 l 99 889 l 296 804 l 278 1021 l 374 1021 l 354 804 l 554 889 l 586 797 l 372 749 l 514 585 l 436 528 "},"+":{"ha":833,"x_min":0,"x_max":0,"o":"m 467 733 l 467 493 l 703 493 l 703 400 l 467 400 l 467 161 l 368 161 l 368 400 l 131 400 l 131 493 l 368 493 l 368 733 "},",":{"ha":401,"x_min":0,"x_max":0,"o":"m 268 15 b 106 -201 268 -125 190 -185 l 106 -142 b 188 0 157 -126 188 -89 l 136 0 l 136 135 l 268 135 "},"-":{"ha":750,"x_min":0,"x_max":0,"o":"m 619 401 l 131 401 l 131 494 l 619 494 "},".":{"ha":406,"x_min":0,"x_max":0,"o":"m 138 0 l 138 135 l 268 135 l 268 0 "},"/":{"ha":525,"x_min":0,"x_max":0,"o":"m 149 -125 l 50 -125 l 376 1021 l 475 1021 "},":":{"ha":406,"x_min":0,"x_max":0,"o":"m 138 0 l 138 135 l 268 135 l 268 0 m 138 588 l 138 722 l 268 722 l 268 588 "},";":{"ha":406,"x_min":0,"x_max":0,"o":"m 138 588 l 138 722 l 268 722 l 268 588 m 268 15 b 106 -201 268 -125 190 -185 l 106 -142 b 188 0 157 -126 188 -89 l 136 0 l 136 135 l 268 135 "},"<":{"ha":833,"x_min":0,"x_max":0,"o":"m 236 446 l 703 233 l 703 128 l 131 399 l 131 497 l 703 768 l 703 663 l 236 450 "},"=":{"ha":833,"x_min":0,"x_max":0,"o":"m 703 544 l 131 544 l 131 638 l 703 638 m 703 257 l 131 257 l 131 350 l 703 350 "},">":{"ha":833,"x_min":0,"x_max":0,"o":"m 597 450 l 131 663 l 131 768 l 703 497 l 703 399 l 131 128 l 131 233 l 597 446 "},"?":{"ha":765,"x_min":0,"x_max":0,"o":"m 74 763 b 404 1021 99 922 222 1021 b 710 778 589 1021 710 911 b 575 531 710 689 690 610 b 429 286 450 444 429 424 l 326 286 b 468 578 326 442 357 501 b 600 778 564 644 600 685 b 401 931 600 865 522 931 b 185 763 281 931 201 868 m 315 0 l 315 135 l 444 135 l 444 0 "},"@":{"ha":1271,"x_min":0,"x_max":0,"o":"m 926 138 b 778 275 839 138 782 207 b 568 149 756 226 676 149 b 349 394 463 149 349 222 b 644 771 349 615 463 771 b 794 676 703 771 771 738 l 819 761 l 896 761 l 844 367 b 840 314 842 344 840 329 b 924 217 840 250 871 217 b 1096 551 1015 217 1096 339 b 649 938 1096 785 913 938 b 174 438 446 938 174 807 b 658 -36 174 118 413 -36 b 872 0 738 -36 815 -19 l 878 -85 b 651 -121 821 -106 738 -121 b 75 439 360 -121 75 64 b 649 1021 75 865 403 1021 b 1196 553 950 1021 1196 840 b 926 138 1196 314 1085 138 m 589 229 b 774 544 694 229 774 332 b 650 692 774 640 728 692 b 449 433 540 692 449 585 b 589 229 449 336 469 229 "},"A":{"ha":949,"x_min":0,"x_max":0,"o":"m 822 0 l 718 268 l 226 268 l 119 0 l 6 0 l 411 1000 l 539 1000 l 943 0 m 261 358 l 682 358 l 474 892 "},"B":{"ha":896,"x_min":0,"x_max":0,"o":"m 460 1000 b 793 743 678 1000 793 903 b 622 529 793 646 724 554 b 829 281 735 513 829 414 b 461 0 829 106 704 0 l 110 0 l 110 1000 m 218 482 l 218 90 l 478 90 b 715 281 635 90 715 158 b 483 482 715 407 632 482 m 218 915 l 218 568 l 479 568 b 683 743 614 568 683 642 b 471 915 683 851 606 915 "},"C":{"ha":1006,"x_min":0,"x_max":0,"o":"m 522 -21 b 68 496 249 -21 68 172 b 528 1021 68 836 263 1021 b 944 689 756 1021 922 881 l 835 689 b 528 929 810 840 692 929 b 179 496 326 929 179 782 b 524 72 179 228 324 72 b 835 342 694 72 819 182 l 944 342 b 522 -21 928 147 767 -21 "},"D":{"ha":967,"x_min":0,"x_max":0,"o":"m 413 1000 b 899 500 701 1000 899 835 b 406 0 899 179 692 0 l 110 0 l 110 1000 m 218 911 l 218 92 l 417 92 b 789 500 643 92 789 233 b 414 911 789 775 638 911 "},"E":{"ha":790,"x_min":0,"x_max":0,"o":"m 676 463 l 218 463 l 218 93 l 717 93 l 717 0 l 110 0 l 110 1000 l 717 1000 l 717 907 l 218 907 l 218 554 l 676 554 "},"F":{"ha":774,"x_min":0,"x_max":0,"o":"m 706 1000 l 706 907 l 218 907 l 218 528 l 657 528 l 657 435 l 218 435 l 218 0 l 110 0 l 110 1000 "},"G":{"ha":1019,"x_min":0,"x_max":0,"o":"m 925 0 l 844 0 l 829 143 b 513 -21 768 40 653 -21 b 68 500 265 -21 68 163 b 519 1021 68 843 268 1021 b 925 718 739 1021 894 896 l 817 718 b 519 929 786 853 676 929 b 179 500 335 929 179 790 b 524 71 179 215 343 71 b 826 339 689 71 826 182 l 826 442 l 518 442 l 518 531 l 925 531 "},"H":{"ha":967,"x_min":0,"x_max":0,"o":"m 857 1000 l 857 0 l 747 0 l 747 461 l 218 461 l 218 0 l 110 0 l 110 1000 l 218 1000 l 218 554 l 747 554 l 747 1000 "},"I":{"ha":328,"x_min":0,"x_max":0,"o":"m 218 1000 l 218 0 l 110 0 l 110 1000 "},"J":{"ha":739,"x_min":0,"x_max":0,"o":"m 149 272 b 342 72 156 136 229 72 b 528 286 457 72 528 149 l 528 1000 l 636 1000 l 636 286 b 338 -21 636 94 526 -21 b 40 272 160 -21 46 101 "},"K":{"ha":851,"x_min":0,"x_max":0,"o":"m 694 0 l 218 482 l 218 0 l 110 0 l 110 1000 l 218 1000 l 218 544 l 664 1000 l 797 1000 l 321 521 l 840 0 "},"L":{"ha":764,"x_min":0,"x_max":0,"o":"m 219 1000 l 219 97 l 710 97 l 710 0 l 110 0 l 110 1000 "},"M":{"ha":1189,"x_min":0,"x_max":0,"o":"m 551 0 l 215 842 l 215 0 l 110 0 l 110 1000 l 264 1000 l 608 124 l 932 1000 l 1079 1000 l 1079 0 l 976 0 l 976 835 l 660 0 "},"N":{"ha":993,"x_min":0,"x_max":0,"o":"m 885 1000 l 885 0 l 750 0 l 210 869 l 210 0 l 110 0 l 110 1000 l 250 1000 l 786 138 l 786 1000 "},"O":{"ha":1060,"x_min":0,"x_max":0,"o":"m 531 69 b 881 500 729 69 881 213 b 531 931 881 781 733 931 b 179 500 326 931 179 781 b 531 69 179 215 331 69 m 531 -21 b 68 500 264 -21 68 168 b 531 1021 68 836 275 1021 b 993 500 788 1021 993 840 b 531 -21 993 165 790 -21 "},"P":{"ha":872,"x_min":0,"x_max":0,"o":"m 440 1000 b 813 681 678 1000 813 885 b 435 371 813 485 674 371 l 218 371 l 218 0 l 110 0 l 110 1000 m 218 910 l 218 461 l 438 461 b 699 681 613 461 699 542 b 443 910 699 825 607 910 "},"Q":{"ha":1060,"x_min":0,"x_max":0,"o":"m 531 -21 b 68 500 264 -21 68 168 b 531 1021 68 836 275 1021 b 993 500 788 1021 993 840 b 828 85 993 313 929 172 l 986 -112 l 896 -172 l 749 32 b 531 -21 685 -3 610 -21 m 531 69 b 881 500 729 69 881 213 b 531 931 881 781 733 931 b 179 500 326 931 179 781 b 531 69 179 215 331 69 "},"R":{"ha":889,"x_min":0,"x_max":0,"o":"m 740 0 l 485 396 l 218 396 l 218 0 l 110 0 l 110 1000 l 442 1000 b 815 693 682 1000 815 888 b 594 417 815 546 717 456 l 871 0 m 218 910 l 218 486 l 446 486 b 701 693 607 486 701 569 b 444 910 701 832 617 910 "},"S":{"ha":901,"x_min":0,"x_max":0,"o":"m 450 71 b 724 264 629 71 724 153 b 399 490 724 371 669 424 b 92 769 169 547 92 631 b 443 1021 92 914 217 1021 b 831 761 649 1021 801 924 l 718 761 b 444 929 697 867 600 929 b 201 775 276 929 201 863 b 475 576 201 682 246 633 b 833 268 747 507 833 424 b 451 -21 833 111 696 -21 b 54 268 240 -21 83 89 l 167 268 b 450 71 188 142 294 71 "},"T":{"ha":818,"x_min":0,"x_max":0,"o":"m 799 903 l 463 903 l 463 0 l 353 0 l 353 903 l 19 903 l 19 1000 l 799 1000 "},"U":{"ha":978,"x_min":0,"x_max":0,"o":"m 490 -21 b 103 332 249 -21 103 126 l 103 1000 l 211 1000 l 211 324 b 490 72 211 175 319 72 b 771 324 661 72 771 175 l 771 1000 l 876 1000 l 876 332 b 490 -21 876 124 726 -21 "},"V":{"ha":885,"x_min":0,"x_max":0,"o":"m 119 1000 l 444 100 l 772 1000 l 879 1000 l 514 0 l 374 0 l 6 1000 "},"W":{"ha":1331,"x_min":0,"x_max":0,"o":"m 1319 1000 l 1049 0 l 917 0 l 671 888 l 421 0 l 282 0 l 13 1000 l 124 1000 l 357 122 l 604 1000 l 744 1000 l 983 125 l 1218 1000 "},"X":{"ha":878,"x_min":0,"x_max":0,"o":"m 501 519 l 858 0 l 728 0 l 440 431 l 143 0 l 19 0 l 378 518 l 44 1000 l 174 1000 l 444 603 l 724 1000 l 847 1000 "},"Y":{"ha":869,"x_min":0,"x_max":0,"o":"m 125 1000 l 435 490 l 753 1000 l 864 1000 l 489 394 l 489 0 l 381 0 l 381 396 l 6 1000 "},"Z":{"ha":888,"x_min":0,"x_max":0,"o":"m 189 94 l 813 94 l 813 0 l 61 0 l 61 96 l 697 906 l 93 906 l 93 1000 l 826 1000 l 826 908 "},"[":{"ha":417,"x_min":0,"x_max":0,"o":"m 353 -236 l 82 -236 l 82 1125 l 353 1125 l 353 1038 l 182 1038 l 182 -149 l 353 -149 "},"\\":{"ha":507,"x_min":0,"x_max":0,"o":"m 42 1021 l 140 1021 l 465 -125 l 368 -125 "},"]":{"ha":417,"x_min":0,"x_max":0,"o":"m 64 -149 l 236 -149 l 236 1038 l 64 1038 l 64 1125 l 336 1125 l 336 -236 l 64 -236 "},"^":{"ha":685,"x_min":0,"x_max":0,"o":"m 157 556 l 46 556 l 292 1000 l 392 1000 l 639 556 l 528 556 l 342 900 "},"_":{"ha":835,"x_min":0,"x_max":0,"o":"m 793 -168 l 42 -168 l 42 -75 l 793 -75 "},"`":{"ha":363,"x_min":0,"x_max":0,"o":"m 321 831 l 228 831 l 42 1021 l 178 1021 "},"a":{"ha":749,"x_min":0,"x_max":0,"o":"m 78 528 b 372 743 90 657 203 743 b 654 500 547 743 654 647 l 654 0 l 569 0 l 557 110 b 307 -21 511 39 429 -21 b 61 185 157 -21 61 61 b 336 421 61 313 138 388 l 551 457 l 551 507 b 368 661 551 603 483 661 b 186 528 258 661 196 608 m 551 375 l 364 343 b 169 194 213 317 169 269 b 332 67 169 111 232 67 b 551 261 440 67 551 149 "},"b":{"ha":825,"x_min":0,"x_max":0,"o":"m 103 0 l 103 1000 l 206 1000 l 206 604 b 454 743 253 685 336 743 b 765 368 638 743 765 613 b 446 -21 765 115 629 -21 b 203 114 331 -21 249 35 l 188 0 m 657 371 b 431 656 657 565 561 656 b 199 365 310 656 199 568 b 431 67 199 171 294 67 b 657 371 563 67 657 163 "},"c":{"ha":760,"x_min":0,"x_max":0,"o":"m 699 222 b 392 -21 678 85 561 -21 b 61 356 206 -21 61 110 b 392 743 61 604 200 743 b 694 515 551 743 671 656 l 581 515 b 394 656 563 604 492 656 b 169 351 265 656 169 560 b 394 67 169 157 271 67 b 588 222 496 67 572 126 "},"d":{"ha":825,"x_min":0,"x_max":0,"o":"m 639 0 l 621 119 b 374 -21 574 38 490 -21 b 61 356 199 -21 61 108 b 379 743 61 615 197 743 b 619 613 493 743 574 689 l 619 1000 l 724 1000 l 724 0 m 168 354 b 394 67 168 161 267 67 b 626 357 526 67 626 168 b 396 656 626 551 532 656 b 168 354 264 656 168 560 "},"e":{"ha":799,"x_min":0,"x_max":0,"o":"m 721 203 b 408 -21 685 71 572 -21 b 61 361 208 -21 61 111 b 399 743 61 611 206 743 b 731 338 590 743 731 621 l 167 338 b 413 67 175 151 279 67 b 610 203 510 67 586 121 m 400 660 b 169 421 281 660 186 579 l 625 421 b 400 660 615 581 524 660 "},"f":{"ha":432,"x_min":0,"x_max":0,"o":"m 439 915 b 331 932 399 926 361 932 b 243 840 275 932 243 899 l 243 722 l 406 722 l 406 633 l 243 633 l 243 0 l 140 0 l 140 633 l 33 633 l 33 722 l 140 722 l 140 835 b 325 1021 140 950 215 1021 b 439 1004 368 1021 403 1014 "},"g":{"ha":825,"x_min":0,"x_max":0,"o":"m 203 -58 b 403 -189 219 -143 293 -189 b 619 14 542 -189 619 -111 l 619 140 b 374 24 572 71 489 24 b 61 378 208 24 61 149 b 379 743 61 608 194 743 b 622 611 494 743 576 689 l 639 722 l 724 722 l 724 10 b 406 -271 724 -150 607 -271 b 93 -58 226 -271 118 -190 m 168 376 b 396 111 168 206 269 111 b 626 376 528 111 626 196 b 394 656 626 563 529 656 b 168 376 267 656 168 567 "},"h":{"ha":778,"x_min":0,"x_max":0,"o":"m 103 0 l 103 1000 l 206 1000 l 206 621 b 429 743 256 701 340 743 b 682 482 585 743 682 647 l 682 0 l 579 0 l 579 479 b 406 656 579 594 515 656 b 206 443 301 656 206 575 l 206 0 "},"i":{"ha":301,"x_min":0,"x_max":0,"o":"m 99 0 l 99 722 l 203 722 l 203 0 m 92 871 l 92 1000 l 210 1000 l 210 871 "},"j":{"ha":301,"x_min":0,"x_max":0,"o":"m -74 -168 b 13 -182 -43 -176 -8 -182 b 99 -79 74 -182 99 -157 l 99 722 l 203 722 l 203 -85 b 29 -271 203 -199 140 -271 b -74 -254 -1 -271 -39 -265 m 92 871 l 92 1000 l 210 1000 l 210 871 "},"k":{"ha":699,"x_min":0,"x_max":0,"o":"m 103 0 l 103 1000 l 206 1000 l 206 435 l 521 722 l 658 722 l 310 408 l 701 0 l 563 0 l 206 372 l 206 0 "},"l":{"ha":308,"x_min":0,"x_max":0,"o":"m 206 0 l 103 0 l 103 1000 l 206 1000 "},"m":{"ha":1199,"x_min":0,"x_max":0,"o":"m 103 0 l 103 722 l 188 722 l 199 624 b 417 743 249 708 333 743 b 631 614 518 743 594 699 b 865 743 682 710 776 743 b 1104 490 1011 743 1104 656 l 1104 0 l 1000 0 l 1000 482 b 844 656 1000 603 946 656 b 654 444 731 656 654 558 l 654 0 l 551 0 l 551 482 b 396 656 551 603 496 656 b 206 446 288 656 206 564 l 206 0 "},"n":{"ha":778,"x_min":0,"x_max":0,"o":"m 103 0 l 103 722 l 188 722 l 200 614 b 429 743 250 699 338 743 b 682 482 585 743 682 647 l 682 0 l 579 0 l 579 479 b 406 656 579 594 515 656 b 206 447 303 656 206 576 l 206 0 "},"o":{"ha":810,"x_min":0,"x_max":0,"o":"m 168 361 b 407 64 168 165 271 64 b 642 361 544 64 642 165 b 406 658 642 561 542 658 b 168 361 269 658 168 558 m 61 361 b 406 743 61 618 214 743 b 749 361 600 743 749 617 b 406 -21 749 108 603 -21 b 61 361 210 -21 61 111 "},"p":{"ha":825,"x_min":0,"x_max":0,"o":"m 188 722 l 203 607 b 454 743 251 686 338 743 b 765 368 638 743 765 613 b 444 -21 765 115 628 -21 b 206 111 332 -21 250 33 l 206 -250 l 103 -250 l 103 722 m 657 371 b 431 656 657 565 561 656 b 199 365 310 656 199 568 b 429 67 199 171 294 67 b 657 371 561 67 657 163 "},"q":{"ha":825,"x_min":0,"x_max":0,"o":"m 724 722 l 724 -250 l 619 -250 l 619 118 b 374 -21 572 38 489 -21 b 61 356 199 -21 61 108 b 379 743 61 615 197 743 b 624 614 493 743 576 690 l 639 722 m 168 354 b 394 67 168 161 267 67 b 626 357 526 67 626 168 b 396 656 626 551 532 656 b 168 354 264 656 168 560 "},"r":{"ha":483,"x_min":0,"x_max":0,"o":"m 103 0 l 103 722 l 188 722 l 201 599 b 394 743 240 696 310 743 b 471 733 426 743 454 738 l 471 631 b 390 643 446 638 421 643 b 206 379 292 643 206 557 l 206 0 "},"s":{"ha":700,"x_min":0,"x_max":0,"o":"m 533 193 b 310 340 533 282 457 311 b 74 544 153 372 74 435 b 346 743 74 660 167 743 b 635 538 501 743 613 664 l 529 538 b 343 661 515 611 447 661 b 179 554 231 661 179 613 b 364 425 179 486 218 454 b 639 200 542 389 639 336 b 347 -21 639 76 532 -21 b 47 199 172 -21 61 67 l 153 199 b 349 63 167 110 236 63 b 533 193 469 63 533 122 "},"t":{"ha":433,"x_min":0,"x_max":0,"o":"m 235 633 l 235 160 b 321 69 235 99 267 69 b 406 81 346 69 367 71 l 406 -7 b 310 -21 371 -17 342 -21 b 132 163 194 -21 132 49 l 132 633 l 26 633 l 26 722 l 132 722 l 139 896 l 235 896 l 235 722 l 397 722 l 397 633 "},"u":{"ha":771,"x_min":0,"x_max":0,"o":"m 199 722 l 199 242 b 368 67 199 124 264 67 b 565 281 493 67 565 164 l 565 722 l 669 722 l 669 0 l 583 0 l 572 100 b 344 -21 521 18 435 -21 b 96 242 200 -21 96 65 l 96 722 "},"v":{"ha":701,"x_min":0,"x_max":0,"o":"m 683 722 l 419 0 l 281 0 l 19 722 l 132 722 l 353 85 l 575 722 "},"w":{"ha":1096,"x_min":0,"x_max":0,"o":"m 1071 722 l 861 0 l 739 0 l 550 610 l 367 0 l 242 0 l 26 722 l 133 722 l 307 108 l 489 722 l 615 722 l 800 111 l 967 722 "},"x":{"ha":722,"x_min":0,"x_max":0,"o":"m 415 383 l 703 0 l 576 0 l 356 303 l 140 0 l 19 0 l 294 376 l 35 722 l 160 722 l 357 457 l 543 722 l 661 722 "},"y":{"ha":701,"x_min":0,"x_max":0,"o":"m 429 -8 b 210 -271 367 -186 328 -271 b 129 -258 183 -271 161 -267 l 129 -174 b 200 -185 156 -181 178 -185 b 331 0 263 -185 283 -136 l 294 0 l 19 722 l 131 722 l 361 82 l 579 722 l 683 722 "},"z":{"ha":668,"x_min":0,"x_max":0,"o":"m 167 89 l 621 89 l 621 0 l 47 0 l 47 99 l 501 635 l 68 635 l 68 722 l 621 722 l 621 622 "},"{":{"ha":472,"x_min":0,"x_max":0,"o":"m 57 493 b 186 622 128 493 186 533 l 186 906 b 417 1125 186 1049 250 1125 l 417 1042 b 285 913 307 1042 285 996 l 285 638 b 164 446 285 528 236 467 b 285 254 236 425 285 364 l 285 -21 b 417 -150 285 -104 307 -150 l 417 -233 b 186 -14 250 -233 186 -157 l 186 269 b 57 399 186 358 128 399 l 57 493 "},"|":{"ha":490,"x_min":0,"x_max":0,"o":"m 292 1090 l 292 -194 l 199 -194 l 199 1090 "},"}":{"ha":472,"x_min":0,"x_max":0,"o":"m 415 399 b 286 269 344 399 286 358 l 286 -14 b 56 -233 286 -157 222 -233 l 56 -150 b 188 -21 165 -150 188 -104 l 188 254 b 308 446 188 364 236 425 b 188 638 236 467 188 528 l 188 913 b 56 1042 188 996 165 1042 l 56 1125 b 286 906 222 1125 286 1049 l 286 622 b 415 493 286 533 344 493 "},"~":{"ha":833,"x_min":0,"x_max":0,"o":"m 549 457 b 703 522 613 457 661 485 l 703 421 b 544 365 668 392 610 365 b 283 443 431 365 374 443 b 131 379 221 443 172 417 l 131 481 b 289 536 165 508 224 536 b 549 457 403 536 458 457 "}," ":{"ha":417,"x_min":0,"x_max":0,"o":""},"¡":{"ha":378,"x_min":0,"x_max":0,"o":"m 231 426 l 249 -250 l 126 -250 l 144 426 m 254 750 l 254 615 l 125 615 l 125 750 "},"¢":{"ha":833,"x_min":0,"x_max":0,"o":"m 378 -15 b 100 356 218 6 100 133 b 378 739 100 581 215 715 l 378 917 l 474 917 l 474 740 b 733 515 611 726 711 643 l 621 515 b 433 656 603 604 532 656 b 208 351 306 656 208 560 b 435 67 208 157 311 67 b 626 222 535 67 611 126 l 739 222 b 474 -18 718 96 619 -1 l 474 -187 l 378 -187 "},"£":{"ha":833,"x_min":0,"x_max":0,"o":"m 569 443 l 286 443 l 286 299 b 211 94 286 218 276 142 l 725 94 l 725 0 l 81 0 l 81 94 b 185 269 153 119 185 171 l 185 443 l 119 443 l 119 528 l 185 528 l 185 726 b 456 993 185 906 303 993 b 729 779 590 993 697 921 l 622 779 b 454 906 604 858 546 906 b 286 725 349 906 286 842 l 286 528 l 569 528 "},"¤":{"ha":833,"x_min":0,"x_max":0,"o":"m 92 472 b 147 658 92 549 114 610 l 61 744 l 133 817 l 217 732 b 417 799 274 776 351 799 b 617 732 482 799 560 776 l 701 817 l 774 744 l 686 657 b 742 472 719 608 742 547 b 685 285 742 394 719 333 l 775 194 l 701 122 l 615 210 b 417 146 558 167 481 146 b 218 208 353 146 276 167 l 132 122 l 60 194 l 149 283 b 92 472 114 333 92 393 m 189 472 b 418 235 189 331 292 235 b 644 472 542 235 644 331 b 418 710 644 614 542 710 b 189 472 292 710 189 614 "},"¥":{"ha":833,"x_min":0,"x_max":0,"o":"m 672 190 l 471 190 l 471 0 l 363 0 l 363 190 l 163 190 l 163 271 l 363 271 l 363 390 l 163 390 l 163 472 l 318 472 l 14 972 l 133 972 l 417 490 l 710 972 l 821 972 l 515 472 l 672 472 l 672 390 l 471 390 l 471 271 l 672 271 "},"¦":{"ha":490,"x_min":0,"x_max":0,"o":"m 292 340 l 292 -194 l 199 -194 l 199 340 m 292 1090 l 292 556 l 199 556 l 199 1090 "},"§":{"ha":833,"x_min":0,"x_max":0,"o":"m 114 447 b 264 638 114 543 174 606 b 165 796 199 679 165 732 b 426 993 165 904 257 993 b 700 806 560 993 671 921 l 590 806 b 425 913 574 865 514 913 b 267 801 319 913 267 863 b 432 664 267 733 313 697 b 719 419 650 604 719 532 b 567 226 719 322 657 258 b 669 71 639 183 669 133 b 411 -126 669 -49 569 -126 b 132 61 269 -126 161 -51 l 243 61 b 413 -44 257 3 321 -44 b 568 65 515 -44 568 3 b 403 203 568 132 519 171 b 114 447 182 264 114 338 m 418 289 b 493 263 446 281 471 272 b 619 431 565 292 619 338 b 368 590 619 497 557 538 b 336 600 357 593 346 596 b 213 454 258 572 213 524 b 418 289 213 379 256 339 "},"¨":{"ha":532,"x_min":0,"x_max":0,"o":"m 57 882 l 57 1000 l 172 1000 l 172 882 m 356 882 l 356 1000 l 471 1000 l 471 882 "},"©":{"ha":1207,"x_min":0,"x_max":0,"o":"m 172 500 b 603 56 172 196 385 56 b 1035 500 822 56 1035 196 b 603 944 1035 804 822 944 b 172 500 385 944 172 804 m 1124 500 b 603 -21 1124 135 854 -21 b 83 500 353 -21 83 135 b 603 1021 83 865 353 1021 b 1124 500 854 1021 1124 865 m 840 399 b 604 213 824 301 742 213 b 350 500 492 213 350 288 b 604 794 350 708 478 794 b 836 619 724 794 818 731 l 746 619 b 607 725 733 686 681 725 b 438 501 515 725 438 657 b 607 283 438 338 528 283 b 751 399 693 283 742 338 "},"ª":{"ha":664,"x_min":0,"x_max":0,"o":"m 108 865 b 332 1021 122 958 217 1021 b 547 835 456 1021 547 951 l 547 425 l 481 425 l 465 500 b 289 411 435 450 371 411 b 97 582 194 411 97 461 b 313 769 97 701 192 753 l 457 790 l 457 831 b 328 946 457 903 418 946 b 201 865 263 946 211 918 m 457 715 l 336 699 b 190 586 243 686 190 651 b 307 488 190 522 235 488 b 457 626 386 488 457 551 m 581 0 l 83 0 l 83 93 l 581 93 "},"«":{"ha":683,"x_min":0,"x_max":0,"o":"m 86 438 l 256 722 l 331 722 l 208 433 l 317 125 l 242 125 m 353 438 l 522 722 l 597 722 l 475 433 l 583 125 l 508 125 "},"¬":{"ha":833,"x_min":0,"x_max":0,"o":"m 703 494 l 703 161 l 604 161 l 604 401 l 131 401 l 131 494 "},"­":{"ha":750,"x_min":0,"x_max":0,"o":"m 619 401 l 131 401 l 131 494 l 619 494 "},"®":{"ha":879,"x_min":0,"x_max":0,"o":"m 100 685 b 440 1018 100 921 286 1018 b 779 685 593 1018 779 921 b 440 351 779 449 593 351 b 100 685 286 351 100 449 m 169 685 b 440 411 169 493 307 411 b 710 685 574 411 710 493 b 440 958 710 876 574 958 b 169 685 307 958 169 876 m 514 510 l 442 644 l 393 644 l 393 510 l 336 510 l 336 865 l 440 865 b 565 758 510 865 565 831 b 497 657 565 713 543 676 l 581 510 m 393 818 l 393 692 l 440 692 b 504 758 482 692 504 721 b 438 818 504 793 483 818 "},"¯":{"ha":439,"x_min":0,"x_max":0,"o":"m 42 893 l 42 982 l 397 982 l 397 893 "},"°":{"ha":803,"x_min":0,"x_max":0,"o":"m 171 767 b 306 617 171 675 228 617 b 439 767 383 617 439 675 b 306 917 439 858 383 917 b 171 767 228 917 171 858 m 532 767 b 306 540 532 622 424 540 b 78 767 188 540 78 622 b 306 993 78 911 188 993 b 532 767 424 993 532 911 "},"±":{"ha":833,"x_min":0,"x_max":0,"o":"m 465 733 l 465 494 l 703 494 l 703 401 l 465 401 l 465 201 l 367 201 l 367 401 l 131 401 l 131 494 l 367 494 l 367 733 m 703 0 l 131 0 l 131 93 l 703 93 "},"²":{"ha":568,"x_min":0,"x_max":0,"o":"m 61 861 b 288 1033 76 967 165 1033 b 496 858 410 1033 496 967 b 333 610 496 774 458 707 l 190 497 l 492 497 l 492 408 l 74 408 l 74 497 l 275 674 b 397 857 367 754 397 800 b 288 951 397 915 361 951 b 163 861 215 951 171 922 "},"³":{"ha":589,"x_min":0,"x_max":0,"o":"m 293 1033 b 497 872 406 1033 497 986 b 372 733 497 808 453 754 b 517 576 458 718 517 667 b 290 397 517 471 433 397 b 61 563 157 397 75 467 l 158 563 b 290 478 174 508 214 478 b 418 579 375 478 418 519 b 296 692 418 661 361 692 l 242 692 l 242 765 l 296 765 b 400 865 349 765 400 792 b 288 954 400 928 351 954 b 171 874 217 954 181 921 l 72 874 b 293 1033 88 971 169 1033 "},"´":{"ha":363,"x_min":0,"x_max":0,"o":"m 183 1021 l 321 1021 l 135 831 l 42 831 "},"µ":{"ha":778,"x_min":0,"x_max":0,"o":"m 206 722 l 206 242 b 375 67 206 113 283 67 b 572 276 497 67 572 163 l 572 722 l 676 722 l 676 0 l 590 0 l 579 96 b 361 -21 528 14 442 -21 b 206 35 299 -21 244 0 l 206 -250 l 103 -250 l 103 722 "},"¶":{"ha":808,"x_min":0,"x_max":0,"o":"m 311 -250 l 311 531 b 93 765 242 531 93 585 b 311 1000 93 944 242 1000 l 404 1000 l 404 -250 m 686 1000 l 686 -250 l 593 -250 l 593 1000 "},"·":{"ha":406,"x_min":0,"x_max":0,"o":"m 138 375 l 138 511 l 268 511 l 268 375 "},"¸":{"ha":411,"x_min":0,"x_max":0,"o":"m 375 -196 b 206 -340 375 -279 304 -340 b 35 -210 118 -340 47 -294 l 118 -210 b 207 -272 122 -244 157 -272 b 293 -197 258 -272 293 -243 b 151 -119 293 -149 254 -119 l 164 25 l 238 25 l 238 -64 b 375 -196 326 -78 375 -124 "},"¹":{"ha":347,"x_min":0,"x_max":0,"o":"m 275 408 l 178 408 l 178 925 l 29 850 l 29 943 l 183 1021 l 275 1021 "},"º":{"ha":636,"x_min":0,"x_max":0,"o":"m 163 715 b 319 486 163 549 233 486 b 476 715 406 486 476 547 b 319 944 476 883 406 944 b 163 715 235 944 163 881 m 68 715 b 319 1021 68 946 189 1021 b 569 715 450 1021 569 947 b 319 411 569 483 447 411 b 68 715 192 411 68 485 m 554 0 l 69 0 l 69 93 l 554 93 "},"»":{"ha":683,"x_min":0,"x_max":0,"o":"m 442 125 l 367 125 l 475 433 l 353 722 l 428 722 l 597 438 m 174 125 l 100 125 l 208 433 l 86 722 l 160 722 l 331 438 "},"¼":{"ha":1185,"x_min":0,"x_max":0,"o":"m 214 -125 l 792 1097 l 892 1097 l 313 -125 m 315 408 l 218 408 l 218 925 l 69 850 l 69 943 l 224 1021 l 315 1021 m 1022 197 l 1115 197 l 1115 115 l 1022 115 l 1022 0 l 936 0 l 936 115 l 654 115 l 654 204 l 924 613 l 1022 613 m 739 197 l 936 197 l 936 482 "},"½":{"ha":1242,"x_min":0,"x_max":0,"o":"m 214 -125 l 792 1097 l 892 1097 l 313 -125 m 315 408 l 218 408 l 218 925 l 69 850 l 69 943 l 224 1021 l 315 1021 m 738 453 b 964 625 753 558 842 625 b 1172 450 1086 625 1172 558 b 1010 201 1172 365 1135 299 l 867 89 l 1168 89 l 1168 0 l 750 0 l 750 89 l 951 265 b 1074 449 1043 346 1074 392 b 964 543 1074 507 1038 543 b 839 453 892 543 847 514 "},"¾":{"ha":1315,"x_min":0,"x_max":0,"o":"m 343 -125 l 921 1097 l 1021 1097 l 442 -125 m 301 1033 b 506 872 414 1033 506 986 b 381 733 506 808 461 754 b 525 576 467 718 525 667 b 299 397 525 471 442 397 b 69 563 165 397 83 467 l 167 563 b 299 478 182 508 222 478 b 426 579 383 478 426 519 b 304 692 426 661 369 692 l 250 692 l 250 765 l 304 765 b 408 865 357 765 408 792 b 296 954 408 928 360 954 b 179 874 225 954 189 921 l 81 874 b 301 1033 96 971 178 1033 m 1153 197 l 1246 197 l 1246 115 l 1153 115 l 1153 0 l 1067 0 l 1067 115 l 785 115 l 785 204 l 1054 613 l 1153 613 m 869 197 l 1067 197 l 1067 482 "},"¿":{"ha":765,"x_min":0,"x_max":0,"o":"m 450 750 l 450 615 l 321 615 l 321 750 m 689 -12 b 358 -271 664 -172 540 -271 b 53 -25 174 -271 53 -158 b 188 219 53 64 72 140 b 333 464 313 306 333 326 l 436 464 b 294 172 436 308 406 249 b 163 -25 199 106 163 68 b 361 -181 163 -112 240 -181 b 578 -12 482 -181 561 -118 "},"À":{"ha":949,"x_min":0,"x_max":0,"o":"m 822 0 l 718 268 l 226 268 l 119 0 l 6 0 l 411 1000 l 539 1000 l 943 0 m 261 358 l 682 358 l 474 892 m 571 1067 l 478 1067 l 292 1257 l 428 1257 "},"Á":{"ha":949,"x_min":0,"x_max":0,"o":"m 822 0 l 718 268 l 226 268 l 119 0 l 6 0 l 411 1000 l 539 1000 l 943 0 m 261 358 l 682 358 l 474 892 m 517 1257 l 654 1257 l 468 1067 l 375 1067 "},"Â":{"ha":949,"x_min":0,"x_max":0,"o":"m 822 0 l 718 268 l 226 268 l 119 0 l 6 0 l 411 1000 l 539 1000 l 943 0 m 261 358 l 682 358 l 474 892 m 690 1067 l 588 1067 l 475 1196 l 363 1067 l 260 1067 l 417 1257 l 535 1257 "},"Ã":{"ha":949,"x_min":0,"x_max":0,"o":"m 822 0 l 718 268 l 226 268 l 119 0 l 6 0 l 411 1000 l 539 1000 l 943 0 m 261 358 l 682 358 l 474 892 m 550 1096 b 390 1146 467 1096 457 1146 b 278 1096 353 1146 318 1128 l 278 1186 b 394 1229 317 1214 350 1229 b 554 1179 478 1229 488 1179 b 663 1229 592 1179 622 1197 l 663 1139 b 550 1096 624 1111 593 1096 "},"Ä":{"ha":949,"x_min":0,"x_max":0,"o":"m 822 0 l 718 268 l 226 268 l 119 0 l 6 0 l 411 1000 l 539 1000 l 943 0 m 261 358 l 682 358 l 474 892 m 267 1118 l 267 1236 l 382 1236 l 382 1118 m 565 1118 l 565 1236 l 681 1236 l 681 1118 "},"Å":{"ha":949,"x_min":0,"x_max":0,"o":"m 822 0 l 718 268 l 226 268 l 119 0 l 6 0 l 397 967 b 296 1117 335 989 296 1047 b 471 1281 296 1211 365 1281 b 644 1117 578 1281 644 1210 b 550 969 644 1049 610 996 l 943 0 m 261 358 l 682 358 l 474 892 m 372 1117 b 471 1017 372 1054 413 1017 b 568 1117 528 1017 568 1054 b 471 1217 568 1179 528 1217 b 372 1117 413 1217 372 1179 "},"Æ":{"ha":1326,"x_min":0,"x_max":0,"o":"m 1213 463 l 782 463 l 782 93 l 1253 93 l 1253 0 l 674 0 l 674 268 l 281 268 l 117 0 l 0 0 l 611 1000 l 1253 1000 l 1253 907 l 782 907 l 782 554 l 1213 554 m 674 358 l 674 910 l 336 358 "},"Ç":{"ha":1006,"x_min":0,"x_max":0,"o":"m 700 -196 b 532 -340 700 -279 631 -340 b 361 -210 444 -340 374 -294 l 443 -210 b 533 -272 449 -244 482 -272 b 618 -197 585 -272 618 -243 b 478 -119 618 -149 581 -119 l 486 -19 b 68 496 232 -3 68 186 b 528 1021 68 836 263 1021 b 944 689 756 1021 922 881 l 835 689 b 528 929 810 840 692 929 b 179 496 326 929 179 782 b 524 72 179 228 324 72 b 835 342 694 72 819 182 l 944 342 b 564 -19 928 158 783 -1 l 564 -64 b 700 -196 653 -78 700 -124 "},"È":{"ha":790,"x_min":0,"x_max":0,"o":"m 676 463 l 218 463 l 218 93 l 717 93 l 717 0 l 110 0 l 110 1000 l 717 1000 l 717 907 l 218 907 l 218 554 l 676 554 m 517 1067 l 424 1067 l 238 1257 l 374 1257 "},"É":{"ha":790,"x_min":0,"x_max":0,"o":"m 676 463 l 218 463 l 218 93 l 717 93 l 717 0 l 110 0 l 110 1000 l 717 1000 l 717 907 l 218 907 l 218 554 l 676 554 m 463 1257 l 600 1257 l 414 1067 l 321 1067 "},"Ê":{"ha":790,"x_min":0,"x_max":0,"o":"m 676 463 l 218 463 l 218 93 l 717 93 l 717 0 l 110 0 l 110 1000 l 717 1000 l 717 907 l 218 907 l 218 554 l 676 554 m 628 1067 l 525 1067 l 413 1196 l 300 1067 l 197 1067 l 354 1257 l 472 1257 "},"Ë":{"ha":790,"x_min":0,"x_max":0,"o":"m 676 463 l 218 463 l 218 93 l 717 93 l 717 0 l 110 0 l 110 1000 l 717 1000 l 717 907 l 218 907 l 218 554 l 676 554 m 203 1118 l 203 1236 l 318 1236 l 318 1118 m 501 1118 l 501 1236 l 617 1236 l 617 1118 "},"Ì":{"ha":328,"x_min":0,"x_max":0,"o":"m 218 1000 l 218 0 l 110 0 l 110 1000 m 258 1067 l 165 1067 l -21 1257 l 115 1257 "},"Í":{"ha":328,"x_min":0,"x_max":0,"o":"m 218 1000 l 218 0 l 110 0 l 110 1000 m 208 1257 l 346 1257 l 160 1067 l 67 1067 "},"Î":{"ha":328,"x_min":0,"x_max":0,"o":"m 218 1000 l 218 0 l 110 0 l 110 1000 m 379 1067 l 276 1067 l 164 1196 l 51 1067 l -51 1067 l 106 1257 l 224 1257 "},"Ï":{"ha":328,"x_min":0,"x_max":0,"o":"m 218 1000 l 218 0 l 110 0 l 110 1000 m -43 1118 l -43 1236 l 72 1236 l 72 1118 m 256 1118 l 256 1236 l 371 1236 l 371 1118 "},"Ð":{"ha":967,"x_min":0,"x_max":0,"o":"m 110 479 l 35 479 l 35 572 l 110 572 l 110 1000 l 413 1000 b 899 500 701 1000 899 835 b 406 0 899 179 692 0 l 110 0 m 519 479 l 218 479 l 218 92 l 417 92 b 789 500 643 92 789 233 b 414 911 789 775 638 911 l 218 911 l 218 572 l 519 572 "},"Ñ":{"ha":993,"x_min":0,"x_max":0,"o":"m 885 1000 l 885 0 l 750 0 l 210 869 l 210 0 l 110 0 l 110 1000 l 250 1000 l 786 138 l 786 1000 m 590 1096 b 431 1146 507 1096 497 1146 b 318 1096 393 1146 358 1128 l 318 1186 b 435 1229 357 1214 390 1229 b 594 1179 518 1229 528 1179 b 703 1229 632 1179 663 1197 l 703 1139 b 590 1096 664 1111 633 1096 "},"Ò":{"ha":1060,"x_min":0,"x_max":0,"o":"m 531 69 b 881 500 729 69 881 213 b 531 931 881 781 733 931 b 179 500 326 931 179 781 b 531 69 179 215 331 69 m 531 -21 b 68 500 264 -21 68 168 b 531 1021 68 836 275 1021 b 993 500 788 1021 993 840 b 531 -21 993 165 790 -21 m 618 1067 l 525 1067 l 339 1257 l 475 1257 "},"Ó":{"ha":1060,"x_min":0,"x_max":0,"o":"m 531 69 b 881 500 729 69 881 213 b 531 931 881 781 733 931 b 179 500 326 931 179 781 b 531 69 179 215 331 69 m 531 -21 b 68 500 264 -21 68 168 b 531 1021 68 836 275 1021 b 993 500 788 1021 993 840 b 531 -21 993 165 790 -21 m 582 1257 l 719 1257 l 533 1067 l 440 1067 "},"Ô":{"ha":1060,"x_min":0,"x_max":0,"o":"m 531 69 b 881 500 729 69 881 213 b 531 931 881 781 733 931 b 179 500 326 931 179 781 b 531 69 179 215 331 69 m 531 -21 b 68 500 264 -21 68 168 b 531 1021 68 836 275 1021 b 993 500 788 1021 993 840 b 531 -21 993 165 790 -21 m 739 1067 l 636 1067 l 524 1196 l 411 1067 l 308 1067 l 465 1257 l 583 1257 "},"Õ":{"ha":1060,"x_min":0,"x_max":0,"o":"m 531 69 b 881 500 729 69 881 213 b 531 931 881 781 733 931 b 179 500 326 931 179 781 b 531 69 179 215 331 69 m 531 -21 b 68 500 264 -21 68 168 b 531 1021 68 836 275 1021 b 993 500 788 1021 993 840 b 531 -21 993 165 790 -21 m 607 1096 b 447 1146 524 1096 514 1146 b 335 1096 410 1146 375 1128 l 335 1186 b 451 1229 374 1214 407 1229 b 611 1179 535 1229 544 1179 b 719 1229 649 1179 679 1197 l 719 1139 b 607 1096 681 1111 650 1096 "},"Ö":{"ha":1060,"x_min":0,"x_max":0,"o":"m 531 69 b 881 500 729 69 881 213 b 531 931 881 781 733 931 b 179 500 326 931 179 781 b 531 69 179 215 331 69 m 531 -21 b 68 500 264 -21 68 168 b 531 1021 68 836 275 1021 b 993 500 788 1021 993 840 b 531 -21 993 165 790 -21 m 314 1118 l 314 1236 l 429 1236 l 429 1118 m 613 1118 l 613 1236 l 728 1236 l 728 1118 "},"×":{"ha":833,"x_min":0,"x_max":0,"o":"m 246 682 l 415 513 l 588 683 l 653 618 l 482 447 l 653 276 l 588 211 l 415 382 l 246 213 l 181 278 l 350 447 l 181 617 "},"Ø":{"ha":1060,"x_min":0,"x_max":0,"o":"m 531 -21 b 394 -1 483 -21 438 -14 l 342 -153 l 244 -153 l 310 31 b 68 500 171 103 68 253 b 531 1021 68 863 300 1021 b 668 1000 576 1021 622 1014 l 719 1139 l 815 1139 l 753 968 b 993 500 890 894 993 743 b 531 -21 993 135 760 -21 m 179 500 b 347 119 179 311 246 185 l 636 914 b 531 931 604 925 568 931 b 179 500 326 931 179 781 m 531 69 b 881 500 729 69 881 213 b 714 879 881 685 817 813 l 424 86 b 531 69 457 75 492 69 "},"Ù":{"ha":978,"x_min":0,"x_max":0,"o":"m 490 -21 b 103 332 249 -21 103 126 l 103 1000 l 211 1000 l 211 324 b 490 72 211 175 319 72 b 771 324 661 72 771 175 l 771 1000 l 876 1000 l 876 332 b 490 -21 876 124 726 -21 m 593 1067 l 500 1067 l 314 1257 l 450 1257 "},"Ú":{"ha":978,"x_min":0,"x_max":0,"o":"m 490 -21 b 103 332 249 -21 103 126 l 103 1000 l 211 1000 l 211 324 b 490 72 211 175 319 72 b 771 324 661 72 771 175 l 771 1000 l 876 1000 l 876 332 b 490 -21 876 124 726 -21 m 535 1257 l 672 1257 l 486 1067 l 393 1067 "},"Û":{"ha":978,"x_min":0,"x_max":0,"o":"m 490 -21 b 103 332 249 -21 103 126 l 103 1000 l 211 1000 l 211 324 b 490 72 211 175 319 72 b 771 324 661 72 771 175 l 771 1000 l 876 1000 l 876 332 b 490 -21 876 124 726 -21 m 707 1067 l 604 1067 l 492 1196 l 379 1067 l 276 1067 l 433 1257 l 551 1257 "},"Ü":{"ha":978,"x_min":0,"x_max":0,"o":"m 490 -21 b 103 332 249 -21 103 126 l 103 1000 l 211 1000 l 211 324 b 490 72 211 175 319 72 b 771 324 661 72 771 175 l 771 1000 l 876 1000 l 876 332 b 490 -21 876 124 726 -21 m 281 1118 l 281 1236 l 396 1236 l 396 1118 m 579 1118 l 579 1236 l 694 1236 l 694 1118 "},"Ý":{"ha":869,"x_min":0,"x_max":0,"o":"m 125 1000 l 435 490 l 753 1000 l 864 1000 l 489 394 l 489 0 l 381 0 l 381 396 l 6 1000 m 507 1257 l 644 1257 l 458 1067 l 365 1067 "},"Þ":{"ha":860,"x_min":0,"x_max":0,"o":"m 218 1000 l 218 831 l 436 831 b 813 504 665 831 813 715 b 435 183 813 296 657 183 l 218 183 l 218 0 l 110 0 l 110 1000 m 218 740 l 218 274 l 438 274 b 699 504 607 274 699 360 b 439 740 699 653 611 740 "},"ß":{"ha":808,"x_min":0,"x_max":0,"o":"m 376 156 b 515 67 388 97 439 67 b 669 208 607 67 669 121 b 540 379 669 286 638 329 b 389 564 422 439 389 479 b 524 808 389 674 524 699 b 368 933 524 885 461 933 b 206 743 274 933 206 872 l 206 0 l 103 0 l 103 732 b 368 1021 103 890 178 1021 b 626 814 501 1021 626 956 b 486 563 626 669 486 646 b 592 454 486 526 506 497 b 776 214 726 389 776 317 b 514 -21 776 94 678 -21 b 271 156 374 -21 290 46 "},"à":{"ha":749,"x_min":0,"x_max":0,"o":"m 78 528 b 372 743 90 657 203 743 b 654 500 547 743 654 647 l 654 0 l 569 0 l 557 110 b 307 -21 511 39 429 -21 b 61 185 157 -21 61 61 b 336 421 61 313 138 388 l 551 457 l 551 507 b 368 661 551 603 483 661 b 186 528 258 661 196 608 m 551 375 l 364 343 b 169 194 213 317 169 269 b 332 67 169 111 232 67 b 551 261 440 67 551 149 m 444 831 l 351 831 l 165 1021 l 301 1021 "},"á":{"ha":749,"x_min":0,"x_max":0,"o":"m 78 528 b 372 743 90 657 203 743 b 654 500 547 743 654 647 l 654 0 l 569 0 l 557 110 b 307 -21 511 39 429 -21 b 61 185 157 -21 61 61 b 336 421 61 313 138 388 l 551 457 l 551 507 b 368 661 551 603 483 661 b 186 528 258 661 196 608 m 551 375 l 364 343 b 169 194 213 317 169 269 b 332 67 169 111 232 67 b 551 261 440 67 551 149 m 454 1021 l 592 1021 l 406 831 l 313 831 "},"â":{"ha":749,"x_min":0,"x_max":0,"o":"m 78 528 b 372 743 90 657 203 743 b 654 500 547 743 654 647 l 654 0 l 569 0 l 557 110 b 307 -21 511 39 429 -21 b 61 185 157 -21 61 61 b 336 421 61 313 138 388 l 551 457 l 551 507 b 368 661 551 603 483 661 b 186 528 258 661 196 608 m 551 375 l 364 343 b 169 194 213 317 169 269 b 332 67 169 111 232 67 b 551 261 440 67 551 149 m 589 831 l 486 831 l 374 960 l 261 831 l 158 831 l 315 1021 l 433 1021 "},"ã":{"ha":749,"x_min":0,"x_max":0,"o":"m 78 528 b 372 743 90 657 203 743 b 654 500 547 743 654 647 l 654 0 l 569 0 l 557 110 b 307 -21 511 39 429 -21 b 61 185 157 -21 61 61 b 336 421 61 313 138 388 l 551 457 l 551 507 b 368 661 551 603 483 661 b 186 528 258 661 196 608 m 551 375 l 364 343 b 169 194 213 317 169 269 b 332 67 169 111 232 67 b 551 261 440 67 551 149 m 453 860 b 293 910 369 860 360 910 b 181 860 256 910 221 892 l 181 950 b 297 993 219 978 253 993 b 457 943 381 993 390 943 b 565 993 494 943 525 961 l 565 903 b 453 860 526 875 496 860 "},"ä":{"ha":749,"x_min":0,"x_max":0,"o":"m 78 528 b 372 743 90 657 203 743 b 654 500 547 743 654 647 l 654 0 l 569 0 l 557 110 b 307 -21 511 39 429 -21 b 61 185 157 -21 61 61 b 336 421 61 313 138 388 l 551 457 l 551 507 b 368 661 551 603 483 661 b 186 528 258 661 196 608 m 551 375 l 364 343 b 169 194 213 317 169 269 b 332 67 169 111 232 67 b 551 261 440 67 551 149 m 164 882 l 164 1000 l 279 1000 l 279 882 m 463 882 l 463 1000 l 578 1000 l 578 882 "},"å":{"ha":749,"x_min":0,"x_max":0,"o":"m 78 528 b 372 743 90 657 203 743 b 654 500 547 743 654 647 l 654 0 l 569 0 l 557 110 b 307 -21 511 39 429 -21 b 61 185 157 -21 61 61 b 336 421 61 313 138 388 l 551 457 l 551 507 b 368 661 551 603 483 661 b 186 528 258 661 196 608 m 551 375 l 364 343 b 169 194 213 317 169 269 b 332 67 169 111 232 67 b 551 261 440 67 551 149 m 275 972 b 372 872 275 910 315 872 b 471 972 429 872 471 910 b 372 1072 471 1035 431 1072 b 275 972 315 1072 275 1035 m 547 972 b 372 808 547 879 479 808 b 199 972 265 808 199 879 b 372 1136 199 1065 265 1136 b 547 972 479 1136 547 1065 "},"æ":{"ha":1289,"x_min":0,"x_max":0,"o":"m 1210 204 b 897 -21 1174 68 1054 -21 b 600 151 785 -21 665 24 b 317 -21 558 60 464 -21 b 61 185 171 -21 61 46 b 332 406 61 322 167 386 l 550 432 l 550 507 b 368 661 550 600 486 661 b 186 528 278 661 196 621 l 78 528 b 372 743 93 661 207 743 b 621 607 494 743 582 694 b 888 743 689 707 796 743 b 1219 354 1071 743 1218 632 l 656 354 b 900 67 658 133 786 67 b 1099 204 994 67 1074 119 m 332 67 b 550 250 432 67 550 140 l 550 350 l 383 331 b 169 190 221 311 169 272 b 332 67 169 117 222 67 m 889 660 b 660 438 781 660 683 589 l 1114 438 b 889 660 1101 582 1013 660 "},"ç":{"ha":760,"x_min":0,"x_max":0,"o":"m 563 -196 b 394 -340 563 -279 492 -340 b 224 -210 307 -340 236 -294 l 306 -210 b 396 -272 311 -244 344 -272 b 481 -197 446 -272 481 -243 b 340 -119 481 -149 443 -119 l 349 -18 b 61 356 183 1 61 128 b 392 743 61 604 200 743 b 694 515 551 743 671 656 l 581 515 b 394 656 563 604 492 656 b 169 351 265 656 169 560 b 394 67 169 157 271 67 b 588 222 496 67 572 126 l 699 222 b 426 -19 679 93 576 -6 l 426 -64 b 563 -196 515 -78 563 -124 "},"è":{"ha":799,"x_min":0,"x_max":0,"o":"m 721 203 b 408 -21 685 71 572 -21 b 61 361 208 -21 61 111 b 399 743 61 611 206 743 b 731 338 590 743 731 621 l 167 338 b 413 67 175 151 279 67 b 610 203 510 67 586 121 m 400 660 b 169 421 281 660 186 579 l 625 421 b 400 660 615 581 524 660 m 465 831 l 372 831 l 186 1021 l 322 1021 "},"é":{"ha":799,"x_min":0,"x_max":0,"o":"m 721 203 b 408 -21 685 71 572 -21 b 61 361 208 -21 61 111 b 399 743 61 611 206 743 b 731 338 590 743 731 621 l 167 338 b 413 67 175 151 279 67 b 610 203 510 67 586 121 m 400 660 b 169 421 281 660 186 579 l 625 421 b 400 660 615 581 524 660 m 476 1021 l 614 1021 l 428 831 l 335 831 "},"ê":{"ha":799,"x_min":0,"x_max":0,"o":"m 721 203 b 408 -21 685 71 572 -21 b 61 361 208 -21 61 111 b 399 743 61 611 206 743 b 731 338 590 743 731 621 l 167 338 b 413 67 175 151 279 67 b 610 203 510 67 586 121 m 400 660 b 169 421 281 660 186 579 l 625 421 b 400 660 615 581 524 660 m 611 831 l 508 831 l 396 960 l 283 831 l 181 831 l 338 1021 l 456 1021 "},"ë":{"ha":799,"x_min":0,"x_max":0,"o":"m 721 203 b 408 -21 685 71 572 -21 b 61 361 208 -21 61 111 b 399 743 61 611 206 743 b 731 338 590 743 731 621 l 167 338 b 413 67 175 151 279 67 b 610 203 510 67 586 121 m 400 660 b 169 421 281 660 186 579 l 625 421 b 400 660 615 581 524 660 m 188 882 l 188 1000 l 303 1000 l 303 882 m 486 882 l 486 1000 l 601 1000 l 601 882 "},"ì":{"ha":301,"x_min":0,"x_max":0,"o":"m 238 831 l 144 831 l -42 1021 l 94 1021 m 99 0 l 99 722 l 203 722 l 203 0 "},"í":{"ha":301,"x_min":0,"x_max":0,"o":"m 211 1021 l 349 1021 l 163 831 l 69 831 m 99 0 l 99 722 l 203 722 l 203 0 "},"î":{"ha":301,"x_min":0,"x_max":0,"o":"m 99 0 l 99 722 l 203 722 l 203 0 m 367 831 l 264 831 l 151 960 l 39 831 l -64 831 l 93 1021 l 211 1021 "},"ï":{"ha":301,"x_min":0,"x_max":0,"o":"m -56 882 l -56 1000 l 60 1000 l 60 882 m 243 882 l 243 1000 l 358 1000 l 358 882 m 99 0 l 99 722 l 203 722 l 203 0 "},"ð":{"ha":785,"x_min":0,"x_max":0,"o":"m 208 1031 b 457 943 297 1011 383 985 l 511 1000 l 625 1000 l 526 897 b 718 440 647 803 718 657 b 383 -21 718 154 606 -21 b 61 331 193 -21 61 114 b 365 668 61 528 185 668 b 618 515 488 668 586 599 b 464 832 606 667 549 767 l 408 772 l 294 772 l 393 876 b 203 936 336 906 271 924 m 379 581 b 167 324 257 581 167 499 b 383 67 167 151 261 67 b 614 328 525 67 614 174 b 379 581 614 471 525 581 "},"ñ":{"ha":778,"x_min":0,"x_max":0,"o":"m 103 0 l 103 722 l 188 722 l 200 614 b 429 743 250 699 338 743 b 682 482 585 743 682 647 l 682 0 l 579 0 l 579 479 b 406 656 579 594 515 656 b 206 447 303 656 206 576 l 206 0 m 483 860 b 324 910 400 860 390 910 b 211 860 286 910 251 892 l 211 950 b 328 993 250 978 283 993 b 488 943 411 993 421 943 b 596 993 525 943 556 961 l 596 903 b 483 860 557 875 526 860 "},"ò":{"ha":810,"x_min":0,"x_max":0,"o":"m 168 361 b 407 64 168 165 271 64 b 642 361 544 64 642 165 b 406 658 642 561 542 658 b 168 361 269 658 168 558 m 61 361 b 406 743 61 618 214 743 b 749 361 600 743 749 617 b 406 -21 749 108 603 -21 b 61 361 210 -21 61 111 m 479 831 l 386 831 l 200 1021 l 336 1021 "},"ó":{"ha":810,"x_min":0,"x_max":0,"o":"m 168 361 b 407 64 168 165 271 64 b 642 361 544 64 642 165 b 406 658 642 561 542 658 b 168 361 269 658 168 558 m 61 361 b 406 743 61 618 214 743 b 749 361 600 743 749 617 b 406 -21 749 108 603 -21 b 61 361 210 -21 61 111 m 476 1021 l 614 1021 l 428 831 l 335 831 "},"ô":{"ha":810,"x_min":0,"x_max":0,"o":"m 168 361 b 407 64 168 165 271 64 b 642 361 544 64 642 165 b 406 658 642 561 542 658 b 168 361 269 658 168 558 m 61 361 b 406 743 61 618 214 743 b 749 361 600 743 749 617 b 406 -21 749 108 603 -21 b 61 361 210 -21 61 111 m 615 831 l 513 831 l 400 960 l 288 831 l 185 831 l 342 1021 l 460 1021 "},"õ":{"ha":810,"x_min":0,"x_max":0,"o":"m 168 361 b 407 64 168 165 271 64 b 642 361 544 64 642 165 b 406 658 642 561 542 658 b 168 361 269 658 168 558 m 61 361 b 406 743 61 618 214 743 b 749 361 600 743 749 617 b 406 -21 749 108 603 -21 b 61 361 210 -21 61 111 m 482 860 b 322 910 399 860 389 910 b 210 860 285 910 250 892 l 210 950 b 326 993 249 978 282 993 b 486 943 410 993 419 943 b 594 993 524 943 554 961 l 594 903 b 482 860 556 875 525 860 "},"ö":{"ha":810,"x_min":0,"x_max":0,"o":"m 168 361 b 407 64 168 165 271 64 b 642 361 544 64 642 165 b 406 658 642 561 542 658 b 168 361 269 658 168 558 m 61 361 b 406 743 61 618 214 743 b 749 361 600 743 749 617 b 406 -21 749 108 603 -21 b 61 361 210 -21 61 111 m 197 882 l 197 1000 l 313 1000 l 313 882 m 496 882 l 496 1000 l 611 1000 l 611 882 "},"÷":{"ha":833,"x_min":0,"x_max":0,"o":"m 353 89 l 353 224 l 481 224 l 481 89 m 353 671 l 353 806 l 481 806 l 481 671 m 703 401 l 131 401 l 131 494 l 703 494 "},"ø":{"ha":810,"x_min":0,"x_max":0,"o":"m 61 361 b 406 743 61 618 214 743 b 522 725 447 743 486 738 l 592 875 l 688 875 l 603 688 b 749 361 692 628 749 519 b 406 -21 749 108 603 -21 b 289 -1 364 -21 325 -15 l 221 -153 l 121 -153 l 207 35 b 61 361 118 97 61 206 m 407 64 b 642 361 544 64 642 165 b 558 600 642 472 610 551 l 324 78 b 407 64 350 68 376 64 m 168 361 b 253 124 168 251 200 172 l 488 643 b 406 658 463 654 435 658 b 168 361 269 658 168 558 "},"ù":{"ha":771,"x_min":0,"x_max":0,"o":"m 199 722 l 199 242 b 368 67 199 124 264 67 b 565 281 493 67 565 164 l 565 722 l 669 722 l 669 0 l 583 0 l 572 100 b 344 -21 521 18 435 -21 b 96 242 200 -21 96 65 l 96 722 m 465 831 l 372 831 l 186 1021 l 322 1021 "},"ú":{"ha":771,"x_min":0,"x_max":0,"o":"m 199 722 l 199 242 b 368 67 199 124 264 67 b 565 281 493 67 565 164 l 565 722 l 669 722 l 669 0 l 583 0 l 572 100 b 344 -21 521 18 435 -21 b 96 242 200 -21 96 65 l 96 722 m 447 1021 l 585 1021 l 399 831 l 306 831 "},"û":{"ha":771,"x_min":0,"x_max":0,"o":"m 199 722 l 199 242 b 368 67 199 124 264 67 b 565 281 493 67 565 164 l 565 722 l 669 722 l 669 0 l 583 0 l 572 100 b 344 -21 521 18 435 -21 b 96 242 200 -21 96 65 l 96 722 m 599 831 l 496 831 l 383 960 l 271 831 l 168 831 l 325 1021 l 443 1021 "},"ü":{"ha":771,"x_min":0,"x_max":0,"o":"m 199 722 l 199 242 b 368 67 199 124 264 67 b 565 281 493 67 565 164 l 565 722 l 669 722 l 669 0 l 583 0 l 572 100 b 344 -21 521 18 435 -21 b 96 242 200 -21 96 65 l 96 722 m 175 882 l 175 1000 l 290 1000 l 290 882 m 474 882 l 474 1000 l 589 1000 l 589 882 "},"ý":{"ha":701,"x_min":0,"x_max":0,"o":"m 429 -8 b 210 -271 367 -186 328 -271 b 129 -258 183 -271 161 -267 l 129 -174 b 200 -185 156 -181 178 -185 b 331 0 263 -185 283 -136 l 294 0 l 19 722 l 131 722 l 361 82 l 579 722 l 683 722 m 425 1021 l 563 1021 l 376 831 l 283 831 "},"þ":{"ha":825,"x_min":0,"x_max":0,"o":"m 103 -250 l 103 1000 l 206 1000 l 206 604 b 454 743 253 685 336 743 b 765 368 613 743 765 639 b 446 -21 765 108 624 -21 b 207 111 333 -21 253 32 l 207 -250 m 657 371 b 431 656 657 585 544 656 b 199 365 299 656 199 554 b 431 67 199 196 276 67 b 657 371 547 67 657 146 "},"ÿ":{"ha":701,"x_min":0,"x_max":0,"o":"m 429 -8 b 210 -271 367 -186 328 -271 b 129 -258 183 -271 161 -267 l 129 -174 b 200 -185 156 -181 178 -185 b 331 0 263 -185 283 -136 l 294 0 l 19 722 l 131 722 l 361 82 l 579 722 l 683 722 m 146 882 l 146 1000 l 261 1000 l 261 882 m 444 882 l 444 1000 l 560 1000 l 560 882 "},"Ā":{"ha":949,"x_min":0,"x_max":0,"o":"m 822 0 l 718 268 l 226 268 l 119 0 l 6 0 l 411 1000 l 539 1000 l 943 0 m 261 358 l 682 358 l 474 892 m 294 1129 l 294 1218 l 650 1218 l 650 1129 "},"ā":{"ha":749,"x_min":0,"x_max":0,"o":"m 78 528 b 372 743 90 657 203 743 b 654 500 547 743 654 647 l 654 0 l 569 0 l 557 110 b 307 -21 511 39 429 -21 b 61 185 157 -21 61 61 b 336 421 61 313 138 388 l 551 457 l 551 507 b 368 661 551 603 483 661 b 186 528 258 661 196 608 m 551 375 l 364 343 b 169 194 213 317 169 269 b 332 67 169 111 232 67 b 551 261 440 67 551 149 m 189 893 l 189 982 l 544 982 l 544 893 "},"Ă":{"ha":949,"x_min":0,"x_max":0,"o":"m 822 0 l 718 268 l 226 268 l 119 0 l 6 0 l 411 1000 l 539 1000 l 943 0 m 261 358 l 682 358 l 474 892 m 469 1065 b 278 1250 357 1065 289 1133 l 368 1250 b 469 1136 372 1186 400 1136 b 572 1250 540 1136 568 1186 l 663 1250 b 469 1065 651 1133 582 1065 "},"ă":{"ha":749,"x_min":0,"x_max":0,"o":"m 78 528 b 372 743 90 657 203 743 b 654 500 547 743 654 647 l 654 0 l 569 0 l 557 110 b 307 -21 511 39 429 -21 b 61 185 157 -21 61 61 b 336 421 61 313 138 388 l 551 457 l 551 507 b 368 661 551 603 483 661 b 186 528 258 661 196 608 m 551 375 l 364 343 b 169 194 213 317 169 269 b 332 67 169 111 232 67 b 551 261 440 67 551 149 m 368 829 b 176 1014 256 829 188 897 l 267 1014 b 368 900 271 950 299 900 b 471 1014 439 900 467 950 l 561 1014 b 368 829 550 897 481 829 "},"Ą":{"ha":949,"x_min":0,"x_max":0,"o":"m 919 0 b 760 -176 838 -43 760 -104 b 853 -262 760 -231 793 -262 b 935 -210 901 -262 924 -242 l 1022 -210 b 847 -336 997 -292 933 -336 b 672 -189 746 -336 672 -278 b 822 1 672 -115 732 -43 l 718 268 l 226 268 l 119 0 l 6 0 l 411 1000 l 539 1000 l 943 0 m 261 358 l 682 358 l 474 892 "},"ą":{"ha":749,"x_min":0,"x_max":0,"o":"m 78 528 b 372 743 90 657 203 743 b 654 500 547 743 654 647 l 654 0 b 493 -176 572 -43 493 -104 b 586 -262 493 -231 528 -262 b 668 -210 635 -262 658 -242 l 756 -210 b 582 -336 731 -292 667 -336 b 407 -189 481 -336 407 -278 b 568 7 407 -112 472 -36 l 556 110 b 307 -21 510 39 429 -21 b 61 185 157 -21 61 61 b 336 421 61 313 138 388 l 550 457 l 550 507 b 368 661 550 603 483 661 b 186 528 258 661 196 608 m 332 67 b 550 256 435 67 550 146 l 550 375 l 364 343 b 169 194 213 317 169 269 b 332 67 169 111 232 67 "},"Ć":{"ha":1006,"x_min":0,"x_max":0,"o":"m 522 -21 b 68 496 249 -21 68 172 b 528 1021 68 836 263 1021 b 944 689 756 1021 922 881 l 835 689 b 528 929 810 840 692 929 b 179 496 326 929 179 782 b 524 72 179 228 324 72 b 835 342 694 72 819 182 l 944 342 b 522 -21 928 147 767 -21 m 585 1257 l 722 1257 l 536 1067 l 443 1067 "},"ć":{"ha":760,"x_min":0,"x_max":0,"o":"m 699 222 b 392 -21 678 85 561 -21 b 61 356 206 -21 61 110 b 392 743 61 604 200 743 b 694 515 551 743 671 656 l 581 515 b 394 656 563 604 492 656 b 169 351 265 656 169 560 b 394 67 169 157 271 67 b 588 222 496 67 572 126 m 479 1021 l 617 1021 l 431 831 l 338 831 "},"Ĉ":{"ha":1006,"x_min":0,"x_max":0,"o":"m 522 -21 b 68 496 249 -21 68 172 b 528 1021 68 836 263 1021 b 944 689 756 1021 922 881 l 835 689 b 528 929 810 840 692 929 b 179 496 326 929 179 782 b 524 72 179 228 324 72 b 835 342 694 72 819 182 l 944 342 b 522 -21 928 147 767 -21 m 717 1067 l 614 1067 l 501 1196 l 389 1067 l 286 1067 l 443 1257 l 561 1257 "},"ĉ":{"ha":760,"x_min":0,"x_max":0,"o":"m 699 222 b 392 -21 678 85 561 -21 b 61 356 206 -21 61 110 b 392 743 61 604 200 743 b 694 515 551 743 671 656 l 581 515 b 394 656 563 604 492 656 b 169 351 265 656 169 560 b 394 67 169 157 271 67 b 588 222 496 67 572 126 m 597 831 l 494 831 l 382 960 l 269 831 l 167 831 l 324 1021 l 442 1021 "},"Ċ":{"ha":1006,"x_min":0,"x_max":0,"o":"m 522 -21 b 68 496 249 -21 68 172 b 528 1021 68 836 263 1021 b 944 689 756 1021 922 881 l 835 689 b 528 929 810 840 692 929 b 179 496 326 929 179 782 b 524 72 179 228 324 72 b 835 342 694 72 819 182 l 944 342 b 522 -21 928 147 767 -21 m 449 1107 l 449 1236 l 568 1236 l 568 1107 "},"ċ":{"ha":760,"x_min":0,"x_max":0,"o":"m 699 222 b 392 -21 678 85 561 -21 b 61 356 206 -21 61 110 b 392 743 61 604 200 743 b 694 515 551 743 671 656 l 581 515 b 394 656 563 604 492 656 b 169 351 265 656 169 560 b 394 67 169 157 271 67 b 588 222 496 67 572 126 m 322 871 l 322 1000 l 442 1000 l 442 871 "},"Č":{"ha":1006,"x_min":0,"x_max":0,"o":"m 522 -21 b 68 496 249 -21 68 172 b 528 1021 68 836 263 1021 b 944 689 756 1021 922 881 l 835 689 b 528 929 810 840 692 929 b 179 496 326 929 179 782 b 524 72 179 228 324 72 b 835 342 694 72 819 182 l 944 342 b 522 -21 928 147 767 -21 m 289 1257 l 392 1257 l 504 1128 l 615 1257 l 719 1257 l 564 1067 l 444 1067 "},"č":{"ha":760,"x_min":0,"x_max":0,"o":"m 699 222 b 392 -21 678 85 561 -21 b 61 356 206 -21 61 110 b 392 743 61 604 200 743 b 694 515 551 743 671 656 l 581 515 b 394 656 563 604 492 656 b 169 351 265 656 169 560 b 394 67 169 157 271 67 b 588 222 496 67 572 126 m 163 1021 l 265 1021 l 378 892 l 489 1021 l 593 1021 l 438 831 l 318 831 "},"Ď":{"ha":967,"x_min":0,"x_max":0,"o":"m 413 1000 b 899 500 701 1000 899 835 b 406 0 899 179 692 0 l 110 0 l 110 1000 m 218 911 l 218 92 l 417 92 b 789 500 643 92 789 233 b 414 911 789 775 638 911 m 208 1257 l 311 1257 l 424 1128 l 535 1257 l 639 1257 l 483 1067 l 364 1067 "},"ď":{"ha":943,"x_min":0,"x_max":0,"o":"m 639 0 l 621 119 b 374 -21 574 38 490 -21 b 61 356 199 -21 61 108 b 379 743 61 615 197 743 b 619 613 493 743 574 689 l 619 1000 l 724 1000 l 724 0 m 168 354 b 394 67 168 161 267 67 b 626 357 526 67 626 168 b 396 656 626 551 532 656 b 168 354 264 656 168 560 m 939 899 b 783 719 939 792 865 735 l 783 775 b 858 883 832 790 858 819 l 825 883 l 825 1000 l 939 1000 "},"Đ":{"ha":967,"x_min":0,"x_max":0,"o":"m 110 479 l 35 479 l 35 572 l 110 572 l 110 1000 l 413 1000 b 899 500 701 1000 899 835 b 406 0 899 179 692 0 l 110 0 m 519 479 l 218 479 l 218 92 l 417 92 b 789 500 643 92 789 233 b 414 911 789 775 638 911 l 218 911 l 218 572 l 519 572 "},"đ":{"ha":825,"x_min":0,"x_max":0,"o":"m 639 0 l 621 119 b 374 -21 574 38 490 -21 b 61 356 199 -21 61 108 b 379 743 61 615 197 743 b 619 613 493 743 574 689 l 619 842 l 397 842 l 397 921 l 619 921 l 619 1000 l 724 1000 l 724 921 l 797 921 l 797 842 l 724 842 l 724 0 m 168 354 b 394 67 168 161 267 67 b 626 357 526 67 626 168 b 396 656 626 551 532 656 b 168 354 264 656 168 560 "},"Ē":{"ha":790,"x_min":0,"x_max":0,"o":"m 676 463 l 218 463 l 218 93 l 717 93 l 717 0 l 110 0 l 110 1000 l 717 1000 l 717 907 l 218 907 l 218 554 l 676 554 m 238 1129 l 238 1218 l 593 1218 l 593 1129 "},"ē":{"ha":799,"x_min":0,"x_max":0,"o":"m 721 203 b 408 -21 685 71 572 -21 b 61 361 208 -21 61 111 b 399 743 61 611 206 743 b 731 338 590 743 731 621 l 167 338 b 413 67 175 151 279 67 b 610 203 510 67 586 121 m 400 660 b 169 421 281 660 186 579 l 625 421 b 400 660 615 581 524 660 m 213 893 l 213 982 l 568 982 l 568 893 "},"Ĕ":{"ha":790,"x_min":0,"x_max":0,"o":"m 676 463 l 218 463 l 218 93 l 717 93 l 717 0 l 110 0 l 110 1000 l 717 1000 l 717 907 l 218 907 l 218 554 l 676 554 m 428 1065 b 236 1250 315 1065 247 1133 l 326 1250 b 428 1136 331 1186 358 1136 b 531 1250 499 1136 526 1186 l 621 1250 b 428 1065 610 1133 540 1065 "},"ĕ":{"ha":799,"x_min":0,"x_max":0,"o":"m 721 203 b 408 -21 685 71 572 -21 b 61 361 208 -21 61 111 b 399 743 61 611 206 743 b 731 338 590 743 731 621 l 167 338 b 413 67 175 151 279 67 b 610 203 510 67 586 121 m 400 660 b 169 421 281 660 186 579 l 625 421 b 400 660 615 581 524 660 m 399 829 b 207 1014 286 829 218 897 l 297 1014 b 399 900 301 950 329 900 b 501 1014 469 900 497 950 l 592 1014 b 399 829 581 897 511 829 "},"Ė":{"ha":790,"x_min":0,"x_max":0,"o":"m 676 463 l 218 463 l 218 93 l 717 93 l 717 0 l 110 0 l 110 1000 l 717 1000 l 717 907 l 218 907 l 218 554 l 676 554 m 353 1107 l 353 1236 l 472 1236 l 472 1107 "},"ė":{"ha":799,"x_min":0,"x_max":0,"o":"m 721 203 b 408 -21 685 71 572 -21 b 61 361 208 -21 61 111 b 399 743 61 611 206 743 b 731 338 590 743 731 621 l 167 338 b 413 67 175 151 279 67 b 610 203 510 67 586 121 m 400 660 b 169 421 281 660 186 579 l 625 421 b 400 660 615 581 524 660 m 335 871 l 335 1000 l 454 1000 l 454 871 "},"Ę":{"ha":790,"x_min":0,"x_max":0,"o":"m 676 463 l 218 463 l 218 93 l 717 93 l 717 0 l 578 0 b 418 -178 497 -44 418 -106 b 507 -265 418 -236 453 -265 b 592 -207 556 -265 582 -240 l 679 -207 b 501 -337 656 -289 586 -337 b 332 -193 403 -337 332 -282 b 481 0 332 -119 392 -46 l 110 0 l 110 1000 l 717 1000 l 717 907 l 218 907 l 218 554 l 676 554 "},"ę":{"ha":799,"x_min":0,"x_max":0,"o":"m 635 -207 b 458 -337 611 -289 543 -337 b 289 -193 360 -337 289 -282 b 401 -21 289 -131 332 -67 b 61 361 186 -11 61 132 b 399 743 61 611 206 743 b 731 338 590 743 731 621 l 167 338 b 413 67 175 151 279 67 b 610 203 510 67 586 121 l 721 203 b 538 0 694 107 635 38 b 374 -178 454 -40 374 -106 b 463 -265 374 -236 410 -265 b 549 -207 511 -265 539 -240 m 400 660 b 169 421 281 660 186 579 l 625 421 b 400 660 615 581 524 660 "},"Ě":{"ha":790,"x_min":0,"x_max":0,"o":"m 676 463 l 218 463 l 218 93 l 717 93 l 717 0 l 110 0 l 110 1000 l 717 1000 l 717 907 l 218 907 l 218 554 l 676 554 m 204 1257 l 307 1257 l 419 1128 l 531 1257 l 635 1257 l 479 1067 l 360 1067 "},"ě":{"ha":799,"x_min":0,"x_max":0,"o":"m 721 203 b 408 -21 685 71 572 -21 b 61 361 208 -21 61 111 b 399 743 61 611 206 743 b 731 338 590 743 731 621 l 167 338 b 413 67 175 151 279 67 b 610 203 510 67 586 121 m 400 660 b 169 421 281 660 186 579 l 625 421 b 400 660 615 581 524 660 m 181 1021 l 283 1021 l 396 892 l 507 1021 l 611 1021 l 456 831 l 336 831 "},"Ĝ":{"ha":1019,"x_min":0,"x_max":0,"o":"m 925 0 l 844 0 l 829 143 b 513 -21 768 40 653 -21 b 68 500 265 -21 68 163 b 519 1021 68 843 268 1021 b 925 718 739 1021 894 896 l 817 718 b 519 929 786 853 676 929 b 179 500 335 929 179 790 b 524 71 179 215 343 71 b 826 339 689 71 826 182 l 826 442 l 518 442 l 518 531 l 925 531 m 724 1067 l 621 1067 l 508 1196 l 396 1067 l 293 1067 l 450 1257 l 568 1257 "},"ĝ":{"ha":825,"x_min":0,"x_max":0,"o":"m 203 -58 b 403 -189 219 -143 293 -189 b 619 14 542 -189 619 -111 l 619 140 b 374 24 572 71 489 24 b 61 378 208 24 61 149 b 379 743 61 608 194 743 b 622 611 494 743 576 689 l 639 722 l 724 722 l 724 10 b 406 -271 724 -150 607 -271 b 93 -58 226 -271 118 -190 m 168 376 b 396 111 168 206 269 111 b 626 376 528 111 626 196 b 394 656 626 563 529 656 b 168 376 267 656 168 567 m 622 831 l 519 831 l 407 960 l 294 831 l 192 831 l 349 1021 l 467 1021 "},"Ğ":{"ha":1019,"x_min":0,"x_max":0,"o":"m 925 0 l 844 0 l 829 143 b 513 -21 768 40 653 -21 b 68 500 265 -21 68 163 b 519 1021 68 843 268 1021 b 925 718 739 1021 894 896 l 817 718 b 519 929 786 853 676 929 b 179 500 335 929 179 790 b 524 71 179 215 343 71 b 826 339 689 71 826 182 l 826 442 l 518 442 l 518 531 l 925 531 m 508 1065 b 317 1250 396 1065 328 1133 l 407 1250 b 508 1136 411 1186 439 1136 b 611 1250 579 1136 607 1186 l 701 1250 b 508 1065 690 1133 621 1065 "},"ğ":{"ha":825,"x_min":0,"x_max":0,"o":"m 203 -58 b 403 -189 219 -143 293 -189 b 619 14 542 -189 619 -111 l 619 140 b 374 24 572 71 489 24 b 61 378 208 24 61 149 b 379 743 61 608 194 743 b 622 611 494 743 576 689 l 639 722 l 724 722 l 724 10 b 406 -271 724 -150 607 -271 b 93 -58 226 -271 118 -190 m 168 376 b 396 111 168 206 269 111 b 626 376 528 111 626 196 b 394 656 626 563 529 656 b 168 376 267 656 168 567 m 400 829 b 208 1014 288 829 219 897 l 299 1014 b 400 900 303 950 331 900 b 503 1014 471 900 499 950 l 593 1014 b 400 829 582 897 513 829 "},"Ġ":{"ha":1019,"x_min":0,"x_max":0,"o":"m 925 0 l 844 0 l 829 143 b 513 -21 768 40 653 -21 b 68 500 265 -21 68 163 b 519 1021 68 843 268 1021 b 925 718 739 1021 894 896 l 817 718 b 519 929 786 853 676 929 b 179 500 335 929 179 790 b 524 71 179 215 343 71 b 826 339 689 71 826 182 l 826 442 l 518 442 l 518 531 l 925 531 m 454 1107 l 454 1236 l 574 1236 l 574 1107 "},"ġ":{"ha":825,"x_min":0,"x_max":0,"o":"m 203 -58 b 403 -189 219 -143 293 -189 b 619 14 542 -189 619 -111 l 619 140 b 374 24 572 71 489 24 b 61 378 208 24 61 149 b 379 743 61 608 194 743 b 622 611 494 743 576 689 l 639 722 l 724 722 l 724 10 b 406 -271 724 -150 607 -271 b 93 -58 226 -271 118 -190 m 168 376 b 396 111 168 206 269 111 b 626 376 528 111 626 196 b 394 656 626 563 529 656 b 168 376 267 656 168 567 m 340 871 l 340 1000 l 460 1000 l 460 871 "},"Ģ":{"ha":1019,"x_min":0,"x_max":0,"o":"m 925 0 l 844 0 l 829 143 b 513 -21 768 40 653 -21 b 68 500 265 -21 68 163 b 519 1021 68 843 268 1021 b 925 718 739 1021 894 896 l 817 718 b 519 929 786 853 676 929 b 179 500 335 929 179 790 b 524 71 179 215 343 71 b 826 339 689 71 826 182 l 826 442 l 518 442 l 518 531 l 925 531 m 574 -199 b 418 -396 574 -315 500 -381 l 418 -340 b 494 -215 467 -325 494 -279 l 461 -215 l 461 -99 l 574 -99 "},"ģ":{"ha":825,"x_min":0,"x_max":0,"o":"m 203 -58 b 403 -189 219 -143 293 -189 b 619 14 542 -189 619 -111 l 619 140 b 374 24 572 71 489 24 b 61 378 208 24 61 149 b 379 743 61 608 194 743 b 622 611 494 743 576 689 l 639 722 l 724 722 l 724 10 b 406 -271 724 -150 607 -271 b 93 -58 226 -271 118 -190 m 168 376 b 396 111 168 206 269 111 b 626 376 528 111 626 196 b 394 656 626 563 529 656 b 168 376 267 656 168 567 m 333 921 b 489 1107 333 1031 407 1090 l 489 1050 b 413 938 440 1036 413 1001 l 447 938 l 447 821 l 333 821 "},"Ĥ":{"ha":967,"x_min":0,"x_max":0,"o":"m 857 1000 l 857 0 l 747 0 l 747 461 l 218 461 l 218 0 l 110 0 l 110 1000 l 218 1000 l 218 554 l 747 554 l 747 1000 m 699 1067 l 596 1067 l 483 1196 l 371 1067 l 268 1067 l 425 1257 l 543 1257 "},"ĥ":{"ha":778,"x_min":0,"x_max":0,"o":"m 103 0 l 103 1000 l 206 1000 l 206 621 b 429 743 256 701 340 743 b 682 482 585 743 682 647 l 682 0 l 579 0 l 579 479 b 406 656 579 594 515 656 b 206 443 301 656 206 575 l 206 0 m 546 1067 l 443 1067 l 331 1196 l 218 1067 l 115 1067 l 272 1257 l 390 1257 "},"Ħ":{"ha":985,"x_min":0,"x_max":0,"o":"m 228 1000 l 228 858 l 756 858 l 756 1000 l 867 1000 l 867 858 l 963 858 l 963 775 l 867 775 l 867 0 l 756 0 l 756 461 l 228 461 l 228 0 l 118 0 l 118 775 l 21 775 l 21 858 l 118 858 l 118 1000 m 756 554 l 756 775 l 228 775 l 228 554 "},"ħ":{"ha":778,"x_min":0,"x_max":0,"o":"m 103 0 l 103 842 l 26 842 l 26 921 l 103 921 l 103 1000 l 206 1000 l 206 921 l 426 921 l 426 842 l 206 842 l 206 621 b 429 743 256 701 340 743 b 682 482 585 743 682 647 l 682 0 l 579 0 l 579 479 b 406 656 579 594 515 656 b 206 447 303 656 206 576 l 206 0 "},"Ĩ":{"ha":328,"x_min":0,"x_max":0,"o":"m 218 1000 l 218 0 l 110 0 l 110 1000 m 243 1096 b 83 1146 160 1096 150 1146 b -29 1096 46 1146 11 1128 l -29 1186 b 88 1229 10 1214 43 1229 b 247 1179 171 1229 181 1179 b 356 1229 285 1179 315 1197 l 356 1139 b 243 1096 317 1111 286 1096 "},"ĩ":{"ha":301,"x_min":0,"x_max":0,"o":"m 231 860 b 71 910 147 860 138 910 b -42 860 33 910 -1 892 l -42 950 b 75 993 -3 978 31 993 b 235 943 158 993 168 943 b 343 993 272 943 303 961 l 343 903 b 231 860 304 875 274 860 m 99 0 l 99 722 l 203 722 l 203 0 "},"Ī":{"ha":328,"x_min":0,"x_max":0,"o":"m 218 1000 l 218 0 l 110 0 l 110 1000 m -14 1129 l -14 1218 l 342 1218 l 342 1129 "},"ī":{"ha":301,"x_min":0,"x_max":0,"o":"m -26 893 l -26 982 l 329 982 l 329 893 m 99 0 l 99 722 l 203 722 l 203 0 "},"Ĭ":{"ha":328,"x_min":0,"x_max":0,"o":"m 218 1000 l 218 0 l 110 0 l 110 1000 m 164 1065 b -28 1250 51 1065 -17 1133 l 63 1250 b 164 1136 67 1186 94 1136 b 267 1250 235 1136 263 1186 l 357 1250 b 164 1065 346 1133 276 1065 "},"ĭ":{"ha":301,"x_min":0,"x_max":0,"o":"m 150 829 b -42 1014 38 829 -31 897 l 49 1014 b 150 900 53 950 81 900 b 253 1014 221 900 249 950 l 343 1014 b 150 829 332 897 263 829 m 99 0 l 99 722 l 203 722 l 203 0 "},"Į":{"ha":328,"x_min":0,"x_max":0,"o":"m 301 -207 b 125 -337 278 -289 208 -337 b -44 -193 26 -337 -44 -282 b 110 3 -44 -118 17 -42 l 110 1000 l 218 1000 l 218 40 l 203 0 b 40 -178 121 -44 40 -106 b 129 -265 40 -236 75 -265 b 215 -207 178 -265 206 -240 "},"į":{"ha":301,"x_min":0,"x_max":0,"o":"m 293 -207 b 117 -337 269 -289 200 -337 b -53 -193 18 -337 -53 -282 b 99 1 -53 -119 8 -43 l 99 722 l 203 722 l 203 0 l 194 0 b 32 -178 113 -44 32 -106 b 121 -265 32 -236 67 -265 b 207 -207 169 -265 197 -240 m 92 871 l 92 1000 l 210 1000 l 210 871 "},"İ":{"ha":328,"x_min":0,"x_max":0,"o":"m 218 1000 l 218 0 l 110 0 l 110 1000 m 104 1107 l 104 1236 l 224 1236 l 224 1107 "},"ı":{"ha":301,"x_min":0,"x_max":0,"o":"m 99 0 l 99 722 l 203 722 l 203 0 "},"Ĳ":{"ha":1067,"x_min":0,"x_max":0,"o":"m 218 1000 l 218 0 l 110 0 l 110 1000 m 476 272 b 669 72 483 136 557 72 b 856 286 785 72 856 149 l 856 1000 l 964 1000 l 964 286 b 665 -21 964 94 854 -21 b 368 272 488 -21 374 101 "},"ĳ":{"ha":604,"x_min":0,"x_max":0,"o":"m 99 0 l 99 722 l 203 722 l 203 0 m 92 871 l 92 1000 l 210 1000 l 210 871 m 228 -168 b 314 -182 258 -176 293 -182 b 400 -79 375 -182 400 -157 l 400 722 l 504 722 l 504 -85 b 331 -271 504 -199 442 -271 b 228 -254 300 -271 263 -265 m 393 871 l 393 1000 l 511 1000 l 511 871 "},"Ĵ":{"ha":739,"x_min":0,"x_max":0,"o":"m 149 272 b 342 72 156 136 229 72 b 528 286 457 72 528 149 l 528 1000 l 636 1000 l 636 286 b 338 -21 636 94 526 -21 b 40 272 160 -21 46 101 m 790 1067 l 688 1067 l 575 1196 l 463 1067 l 360 1067 l 517 1257 l 635 1257 "},"ĵ":{"ha":301,"x_min":0,"x_max":0,"o":"m -74 -168 b 13 -182 -43 -176 -8 -182 b 99 -79 71 -182 99 -160 l 99 722 l 203 722 l 203 -85 b 29 -271 203 -199 140 -271 b -74 -254 -1 -271 -39 -265 m 365 831 l 263 831 l 150 960 l 38 831 l -65 831 l 92 1021 l 210 1021 "},"Ķ":{"ha":851,"x_min":0,"x_max":0,"o":"m 694 0 l 218 482 l 218 0 l 110 0 l 110 1000 l 218 1000 l 218 544 l 664 1000 l 797 1000 l 321 521 l 840 0 m 476 -199 b 321 -396 476 -315 403 -381 l 321 -340 b 397 -215 369 -325 397 -279 l 364 -215 l 364 -99 l 476 -99 "},"ķ":{"ha":699,"x_min":0,"x_max":0,"o":"m 103 0 l 103 1000 l 206 1000 l 206 435 l 521 722 l 658 722 l 310 408 l 701 0 l 563 0 l 206 372 l 206 0 m 415 -199 b 260 -396 415 -315 342 -381 l 260 -340 b 336 -215 308 -325 336 -279 l 303 -215 l 303 -99 l 415 -99 "},"ĸ":{"ha":699,"x_min":0,"x_max":0,"o":"m 103 0 l 103 722 l 206 722 l 206 399 l 532 722 l 658 722 l 310 381 l 701 0 l 557 0 l 206 342 l 206 0 "},"Ĺ":{"ha":764,"x_min":0,"x_max":0,"o":"m 219 1000 l 219 97 l 710 97 l 710 0 l 110 0 l 110 1000 m 214 1257 l 351 1257 l 165 1067 l 72 1067 "},"ĺ":{"ha":308,"x_min":0,"x_max":0,"o":"m 206 0 l 103 0 l 103 1000 l 206 1000 m 194 1257 l 332 1257 l 146 1067 l 53 1067 "},"Ļ":{"ha":764,"x_min":0,"x_max":0,"o":"m 219 1000 l 219 97 l 710 97 l 710 0 l 110 0 l 110 1000 m 463 -199 b 307 -396 463 -315 389 -381 l 307 -340 b 383 -215 356 -325 383 -279 l 350 -215 l 350 -99 l 463 -99 "},"ļ":{"ha":308,"x_min":0,"x_max":0,"o":"m 206 0 l 103 0 l 103 1000 l 206 1000 m 211 -199 b 56 -396 211 -315 138 -381 l 56 -340 b 132 -215 104 -325 132 -279 l 99 -215 l 99 -99 l 211 -99 "},"Ľ":{"ha":764,"x_min":0,"x_max":0,"o":"m 219 1000 l 219 97 l 710 97 l 710 0 l 110 0 l 110 1000 m 474 899 b 318 719 474 792 400 735 l 318 775 b 393 883 367 790 393 819 l 360 883 l 360 1000 l 474 1000 "},"ľ":{"ha":403,"x_min":0,"x_max":0,"o":"m 206 0 l 103 0 l 103 1000 l 206 1000 m 422 899 b 267 719 422 792 349 735 l 267 775 b 342 883 315 790 342 819 l 308 883 l 308 1000 l 422 1000 "},"Ŀ":{"ha":764,"x_min":0,"x_max":0,"o":"m 219 1000 l 219 97 l 710 97 l 710 0 l 110 0 l 110 1000 m 476 456 l 476 585 l 596 585 l 596 456 "},"ŀ":{"ha":424,"x_min":0,"x_max":0,"o":"m 206 0 l 103 0 l 103 1000 l 206 1000 m 304 456 l 304 585 l 424 585 l 424 456 "},"Ł":{"ha":764,"x_min":0,"x_max":0,"o":"m 219 1000 l 219 589 l 436 714 l 436 603 l 219 478 l 219 99 l 710 99 l 710 0 l 110 0 l 110 415 l 35 371 l 35 482 l 110 526 l 110 1000 "},"ł":{"ha":325,"x_min":0,"x_max":0,"o":"m 206 610 l 315 678 l 315 574 l 206 506 l 206 0 l 103 0 l 103 442 l 10 385 l 10 489 l 103 546 l 103 1000 l 206 1000 "},"Ń":{"ha":993,"x_min":0,"x_max":0,"o":"m 885 1000 l 885 0 l 750 0 l 210 869 l 210 0 l 110 0 l 110 1000 l 250 1000 l 786 138 l 786 1000 m 564 1257 l 701 1257 l 515 1067 l 422 1067 "},"ń":{"ha":778,"x_min":0,"x_max":0,"o":"m 103 0 l 103 722 l 188 722 l 200 614 b 429 743 250 699 338 743 b 682 482 585 743 682 647 l 682 0 l 579 0 l 579 479 b 406 656 579 594 515 656 b 206 447 303 656 206 576 l 206 0 m 474 1021 l 611 1021 l 425 831 l 332 831 "},"Ņ":{"ha":993,"x_min":0,"x_max":0,"o":"m 885 1000 l 885 0 l 750 0 l 210 869 l 210 0 l 110 0 l 110 1000 l 250 1000 l 786 138 l 786 1000 m 565 -199 b 410 -396 565 -315 492 -381 l 410 -340 b 486 -215 458 -325 486 -279 l 453 -215 l 453 -99 l 565 -99 "},"ņ":{"ha":778,"x_min":0,"x_max":0,"o":"m 103 0 l 103 722 l 188 722 l 200 614 b 429 743 250 699 338 743 b 682 482 585 743 682 647 l 682 0 l 579 0 l 579 479 b 406 656 579 594 515 656 b 206 447 303 656 206 576 l 206 0 m 453 -199 b 297 -396 453 -315 379 -381 l 297 -340 b 374 -215 346 -325 374 -279 l 340 -215 l 340 -99 l 453 -99 "},"Ň":{"ha":993,"x_min":0,"x_max":0,"o":"m 885 1000 l 885 0 l 750 0 l 210 869 l 210 0 l 110 0 l 110 1000 l 250 1000 l 786 138 l 786 1000 m 301 1257 l 404 1257 l 517 1128 l 628 1257 l 732 1257 l 576 1067 l 457 1067 "},"ň":{"ha":778,"x_min":0,"x_max":0,"o":"m 103 0 l 103 722 l 188 722 l 200 614 b 429 743 250 699 338 743 b 682 482 585 743 682 647 l 682 0 l 579 0 l 579 479 b 406 656 579 594 515 656 b 206 447 303 656 206 576 l 206 0 m 189 1021 l 292 1021 l 404 892 l 515 1021 l 619 1021 l 464 831 l 344 831 "},"ŉ":{"ha":806,"x_min":0,"x_max":0,"o":"m 131 0 l 131 722 l 215 722 l 228 614 b 457 743 278 699 365 743 b 710 482 613 743 710 647 l 710 0 l 607 0 l 607 479 b 433 656 607 594 543 656 b 233 447 331 656 233 576 l 233 0 m 156 899 b 0 719 156 792 82 735 l 0 775 b 75 883 49 790 75 819 l 42 883 l 42 1000 l 156 1000 "},"Ŋ":{"ha":993,"x_min":0,"x_max":0,"o":"m 610 -168 b 696 -181 639 -175 674 -181 b 786 -37 768 -181 786 -153 l 210 869 l 210 0 l 110 0 l 110 1000 l 250 1000 l 786 139 l 786 1000 l 885 1000 l 885 -87 b 694 -269 885 -200 811 -269 b 610 -254 668 -269 638 -264 "},"ŋ":{"ha":778,"x_min":0,"x_max":0,"o":"m 103 0 l 103 722 l 188 722 l 200 614 b 429 743 250 699 338 743 b 682 482 585 743 682 647 l 682 -87 b 508 -271 682 -201 622 -271 b 407 -254 478 -271 442 -265 l 407 -168 b 493 -181 436 -175 471 -181 b 579 -78 549 -181 579 -160 l 579 479 b 406 656 579 594 515 656 b 206 447 303 656 206 575 l 206 0 "},"Ō":{"ha":1060,"x_min":0,"x_max":0,"o":"m 531 69 b 881 500 729 69 881 213 b 531 931 881 781 733 931 b 179 500 326 931 179 781 b 531 69 179 215 331 69 m 531 -21 b 68 500 264 -21 68 168 b 531 1021 68 836 275 1021 b 993 500 788 1021 993 840 b 531 -21 993 165 790 -21 m 344 1129 l 344 1218 l 700 1218 l 700 1129 "},"ō":{"ha":810,"x_min":0,"x_max":0,"o":"m 168 361 b 407 64 168 165 271 64 b 642 361 544 64 642 165 b 406 658 642 561 542 658 b 168 361 269 658 168 558 m 61 361 b 406 743 61 618 214 743 b 749 361 600 743 749 617 b 406 -21 749 108 603 -21 b 61 361 210 -21 61 111 m 228 893 l 228 982 l 583 982 l 583 893 "},"Ŏ":{"ha":1060,"x_min":0,"x_max":0,"o":"m 531 69 b 881 500 729 69 881 213 b 531 931 881 781 733 931 b 179 500 326 931 179 781 b 531 69 179 215 331 69 m 531 -21 b 68 500 264 -21 68 168 b 531 1021 68 836 275 1021 b 993 500 788 1021 993 840 b 531 -21 993 165 790 -21 m 529 1065 b 338 1250 417 1065 349 1133 l 428 1250 b 529 1136 432 1186 460 1136 b 632 1250 600 1136 628 1186 l 722 1250 b 529 1065 711 1133 642 1065 "},"ŏ":{"ha":810,"x_min":0,"x_max":0,"o":"m 168 361 b 407 64 168 165 271 64 b 642 361 544 64 642 165 b 406 658 642 561 542 658 b 168 361 269 658 168 558 m 61 361 b 406 743 61 618 214 743 b 749 361 600 743 749 617 b 406 -21 749 108 603 -21 b 61 361 210 -21 61 111 m 403 829 b 211 1014 290 829 222 897 l 301 1014 b 403 900 306 950 333 900 b 506 1014 474 900 501 950 l 596 1014 b 403 829 585 897 515 829 "},"Ő":{"ha":1060,"x_min":0,"x_max":0,"o":"m 531 69 b 881 500 729 69 881 213 b 531 931 881 781 733 931 b 179 500 326 931 179 781 b 531 69 179 215 331 69 m 531 -21 b 68 500 264 -21 68 168 b 531 1021 68 836 275 1021 b 993 500 788 1021 993 840 b 531 -21 993 165 790 -21 m 483 1257 l 604 1257 l 443 1067 l 360 1067 m 715 1257 l 835 1257 l 675 1067 l 590 1067 "},"ő":{"ha":810,"x_min":0,"x_max":0,"o":"m 168 361 b 407 64 168 165 271 64 b 642 361 544 64 642 165 b 406 658 642 561 542 658 b 168 361 269 658 168 558 m 61 361 b 406 743 61 618 214 743 b 749 361 600 743 749 617 b 406 -21 749 108 603 -21 b 61 361 210 -21 61 111 m 367 1021 l 488 1021 l 326 831 l 243 831 m 599 1021 l 718 1021 l 558 831 l 474 831 "},"Œ":{"ha":1344,"x_min":0,"x_max":0,"o":"m 1269 0 l 690 0 b 531 -18 649 -10 599 -18 b 68 501 294 -18 68 135 b 532 1021 68 865 301 1021 b 692 1000 601 1021 647 1011 l 1269 1000 l 1269 907 l 800 907 l 800 554 l 1229 554 l 1229 463 l 800 463 l 800 93 l 1269 93 m 531 72 b 690 99 582 72 640 79 l 690 901 b 532 931 642 922 586 931 b 179 501 326 931 179 781 b 531 72 179 218 326 72 "},"œ":{"ha":1376,"x_min":0,"x_max":0,"o":"m 743 338 b 989 67 753 132 882 67 b 1186 204 1083 67 1161 121 l 1297 204 b 985 -21 1261 68 1142 -21 b 696 153 872 -21 758 35 b 407 -21 633 33 517 -21 b 61 361 247 -21 61 78 b 406 743 61 646 249 743 b 696 569 517 743 633 690 b 975 743 758 688 872 743 b 1308 338 1158 743 1307 629 m 168 361 b 407 64 168 158 281 64 b 642 361 532 64 642 156 b 406 658 642 567 531 658 b 168 361 279 658 168 564 m 976 660 b 746 421 867 660 764 583 l 1201 421 b 976 660 1192 579 1101 660 "},"Ŕ":{"ha":889,"x_min":0,"x_max":0,"o":"m 740 0 l 485 396 l 218 396 l 218 0 l 110 0 l 110 1000 l 442 1000 b 815 693 682 1000 815 888 b 594 417 815 546 717 456 l 871 0 m 218 910 l 218 486 l 446 486 b 701 693 607 486 701 569 b 444 910 701 832 617 910 m 471 1257 l 608 1257 l 422 1067 l 329 1067 "},"ŕ":{"ha":483,"x_min":0,"x_max":0,"o":"m 103 0 l 103 722 l 188 722 l 201 599 b 394 743 240 696 310 743 b 471 733 426 743 454 738 l 471 631 b 390 643 446 638 421 643 b 206 379 292 643 206 557 l 206 0 m 358 1021 l 496 1021 l 310 831 l 217 831 "},"Ŗ":{"ha":889,"x_min":0,"x_max":0,"o":"m 740 0 l 485 396 l 218 396 l 218 0 l 110 0 l 110 1000 l 442 1000 b 815 693 682 1000 815 888 b 594 417 815 546 717 456 l 871 0 m 218 910 l 218 486 l 446 486 b 701 693 607 486 701 569 b 444 910 701 832 617 910 m 485 -199 b 329 -396 485 -315 411 -381 l 329 -340 b 406 -215 378 -325 406 -279 l 372 -215 l 372 -99 l 485 -99 "},"ŗ":{"ha":483,"x_min":0,"x_max":0,"o":"m 103 0 l 103 722 l 188 722 l 201 599 b 394 743 240 696 310 743 b 471 733 426 743 454 738 l 471 631 b 390 643 446 638 421 643 b 206 379 292 643 206 557 l 206 0 m 211 -199 b 56 -396 211 -315 138 -381 l 56 -340 b 132 -215 104 -325 132 -279 l 99 -215 l 99 -99 l 211 -99 "},"Ř":{"ha":889,"x_min":0,"x_max":0,"o":"m 740 0 l 485 396 l 218 396 l 218 0 l 110 0 l 110 1000 l 442 1000 b 815 693 682 1000 815 888 b 594 417 815 546 717 456 l 871 0 m 218 910 l 218 486 l 446 486 b 701 693 607 486 701 569 b 444 910 701 832 617 910 m 192 1257 l 294 1257 l 407 1128 l 518 1257 l 622 1257 l 467 1067 l 347 1067 "},"ř":{"ha":483,"x_min":0,"x_max":0,"o":"m 103 0 l 103 722 l 188 722 l 201 599 b 394 743 240 696 310 743 b 471 733 426 743 454 738 l 471 631 b 390 643 446 638 421 643 b 206 379 292 643 206 557 l 206 0 m 61 1021 l 164 1021 l 276 892 l 388 1021 l 492 1021 l 336 831 l 217 831 "},"Ś":{"ha":901,"x_min":0,"x_max":0,"o":"m 450 71 b 724 264 629 71 724 153 b 399 490 724 371 669 424 b 92 769 169 547 92 631 b 443 1021 92 914 217 1021 b 831 761 649 1021 801 924 l 718 761 b 444 929 697 867 600 929 b 201 775 276 929 201 863 b 475 576 201 682 246 633 b 833 268 747 507 833 424 b 451 -21 833 111 696 -21 b 54 268 240 -21 83 89 l 167 268 b 450 71 188 142 294 71 m 508 1257 l 646 1257 l 460 1067 l 367 1067 "},"ś":{"ha":700,"x_min":0,"x_max":0,"o":"m 533 193 b 310 340 533 282 457 311 b 74 544 153 372 74 435 b 346 743 74 660 167 743 b 635 538 501 743 613 664 l 529 538 b 343 661 515 611 447 661 b 179 554 231 661 179 613 b 364 425 179 486 218 454 b 639 200 542 389 639 336 b 347 -21 639 76 532 -21 b 47 199 172 -21 61 67 l 153 199 b 349 63 167 110 236 63 b 533 193 469 63 533 122 m 418 1021 l 556 1021 l 369 831 l 276 831 "},"Ŝ":{"ha":901,"x_min":0,"x_max":0,"o":"m 450 71 b 724 264 629 71 724 153 b 399 490 724 371 669 424 b 92 769 169 547 92 631 b 443 1021 92 914 217 1021 b 831 761 649 1021 801 924 l 718 761 b 444 929 697 867 600 929 b 201 775 276 929 201 863 b 475 576 201 682 246 633 b 833 268 747 507 833 424 b 451 -21 833 111 696 -21 b 54 268 240 -21 83 89 l 167 268 b 450 71 188 142 294 71 m 658 1067 l 556 1067 l 443 1196 l 331 1067 l 228 1067 l 385 1257 l 503 1257 "},"ŝ":{"ha":700,"x_min":0,"x_max":0,"o":"m 533 193 b 310 340 533 282 457 311 b 74 544 153 372 74 435 b 346 743 74 660 167 743 b 635 538 501 743 613 664 l 529 538 b 343 661 515 611 447 661 b 179 554 231 661 179 613 b 364 425 179 486 218 454 b 639 200 542 389 639 336 b 347 -21 639 76 532 -21 b 47 199 172 -21 61 67 l 153 199 b 349 63 167 110 236 63 b 533 193 469 63 533 122 m 560 831 l 457 831 l 344 960 l 232 831 l 129 831 l 286 1021 l 404 1021 "},"Ş":{"ha":901,"x_min":0,"x_max":0,"o":"m 632 -196 b 463 -340 632 -279 561 -340 b 292 -210 375 -340 304 -294 l 375 -210 b 464 -272 379 -244 414 -272 b 550 -197 515 -272 550 -243 b 408 -119 550 -149 511 -119 l 417 -19 b 54 268 224 -8 82 99 l 167 268 b 450 71 188 142 294 71 b 724 264 629 71 724 153 b 399 490 724 371 669 424 b 92 769 169 547 92 631 b 443 1021 92 914 217 1021 b 831 761 649 1021 801 924 l 718 761 b 444 929 697 867 600 929 b 201 775 276 929 201 863 b 475 576 201 682 246 633 b 833 268 747 507 833 424 b 494 -18 833 119 713 -4 l 494 -64 b 632 -196 585 -78 632 -124 "},"ş":{"ha":700,"x_min":0,"x_max":0,"o":"m 526 -196 b 358 -340 526 -279 456 -340 b 186 -210 271 -340 200 -294 l 269 -210 b 360 -272 275 -244 308 -272 b 444 -197 410 -272 444 -243 b 304 -119 444 -149 407 -119 l 313 -18 b 47 199 157 -8 60 75 l 153 199 b 349 63 167 110 236 63 b 533 193 469 63 533 122 b 310 340 533 282 457 311 b 74 544 153 372 74 435 b 346 743 74 660 167 743 b 635 538 501 743 613 664 l 529 538 b 343 661 515 611 447 661 b 179 554 231 661 179 613 b 364 425 179 486 218 454 b 639 200 542 389 639 336 b 389 -18 639 86 547 -6 l 389 -64 b 526 -196 479 -78 526 -124 "},"Š":{"ha":901,"x_min":0,"x_max":0,"o":"m 450 71 b 724 264 629 71 724 153 b 399 490 724 371 669 424 b 92 769 169 547 92 631 b 443 1021 92 914 217 1021 b 831 761 649 1021 801 924 l 718 761 b 444 929 697 867 600 929 b 201 775 276 929 201 863 b 475 576 201 682 246 633 b 833 268 747 507 833 424 b 451 -21 833 111 696 -21 b 54 268 240 -21 83 89 l 167 268 b 450 71 188 142 294 71 m 225 1257 l 328 1257 l 440 1128 l 551 1257 l 656 1257 l 500 1067 l 381 1067 "},"š":{"ha":700,"x_min":0,"x_max":0,"o":"m 533 193 b 310 340 533 282 457 311 b 74 544 153 372 74 435 b 346 743 74 660 167 743 b 635 538 501 743 613 664 l 529 538 b 343 661 515 611 447 661 b 179 554 231 661 179 613 b 364 425 179 486 218 454 b 639 200 542 389 639 336 b 347 -21 639 76 532 -21 b 47 199 172 -21 61 67 l 153 199 b 349 63 167 110 236 63 b 533 193 469 63 533 122 m 133 1021 l 236 1021 l 349 892 l 460 1021 l 564 1021 l 408 831 l 289 831 "},"Ţ":{"ha":818,"x_min":0,"x_max":0,"o":"m 799 903 l 463 903 l 463 0 l 353 0 l 353 903 l 19 903 l 19 1000 l 799 1000 m 464 -199 b 308 -396 464 -315 390 -381 l 308 -340 b 385 -215 357 -325 385 -279 l 351 -215 l 351 -99 l 464 -99 "},"ţ":{"ha":433,"x_min":0,"x_max":0,"o":"m 235 633 l 235 160 b 321 69 235 99 267 69 b 406 81 346 69 367 71 l 406 -7 b 310 -21 371 -17 342 -21 b 132 163 194 -21 132 49 l 132 633 l 26 633 l 26 722 l 132 722 l 139 896 l 235 896 l 235 722 l 397 722 l 397 633 m 288 -199 b 132 -396 288 -315 214 -381 l 132 -340 b 208 -215 181 -325 208 -279 l 175 -215 l 175 -99 l 288 -99 "},"Ť":{"ha":818,"x_min":0,"x_max":0,"o":"m 799 903 l 463 903 l 463 0 l 353 0 l 353 903 l 19 903 l 19 1000 l 799 1000 m 192 1257 l 294 1257 l 407 1128 l 518 1257 l 622 1257 l 467 1067 l 347 1067 "},"ť":{"ha":496,"x_min":0,"x_max":0,"o":"m 500 917 b 358 758 500 819 440 771 l 358 813 b 421 892 407 825 421 851 l 388 892 l 388 1000 l 500 1000 m 235 633 l 235 160 b 321 69 235 99 267 69 b 406 81 346 69 367 71 l 406 -7 b 310 -21 371 -17 342 -21 b 132 163 194 -21 132 49 l 132 633 l 26 633 l 26 722 l 132 722 l 139 896 l 235 896 l 235 722 l 397 722 l 397 633 "},"Ŧ":{"ha":818,"x_min":0,"x_max":0,"o":"m 799 903 l 463 903 l 463 608 l 650 608 l 650 526 l 463 526 l 463 0 l 353 0 l 353 526 l 167 526 l 167 608 l 353 608 l 353 903 l 19 903 l 19 1000 l 799 1000 "},"ŧ":{"ha":433,"x_min":0,"x_max":0,"o":"m 235 160 b 321 69 235 99 267 69 b 406 81 346 69 367 71 l 406 -7 b 310 -21 371 -17 342 -21 b 132 181 185 -21 132 54 l 132 450 l 36 450 l 36 529 l 132 529 l 132 633 l 26 633 l 26 722 l 132 722 l 139 896 l 235 896 l 235 722 l 397 722 l 397 633 l 235 633 l 235 529 l 383 529 l 383 450 l 235 450 "},"Ũ":{"ha":978,"x_min":0,"x_max":0,"o":"m 490 -21 b 103 332 249 -21 103 126 l 103 1000 l 211 1000 l 211 324 b 490 72 211 175 319 72 b 771 324 661 72 771 175 l 771 1000 l 876 1000 l 876 332 b 490 -21 876 124 726 -21 m 576 1096 b 417 1146 493 1096 483 1146 b 304 1096 379 1146 344 1128 l 304 1186 b 421 1229 343 1214 376 1229 b 581 1179 504 1229 514 1179 b 689 1229 618 1179 649 1197 l 689 1139 b 576 1096 650 1111 619 1096 "},"ũ":{"ha":771,"x_min":0,"x_max":0,"o":"m 199 722 l 199 242 b 368 67 199 124 264 67 b 565 281 493 67 565 164 l 565 722 l 669 722 l 669 0 l 583 0 l 572 100 b 344 -21 521 18 435 -21 b 96 242 200 -21 96 65 l 96 722 m 456 860 b 296 910 372 860 363 910 b 183 860 258 910 224 892 l 183 950 b 300 993 222 978 256 993 b 460 943 383 993 393 943 b 568 993 497 943 528 961 l 568 903 b 456 860 529 875 499 860 "},"Ū":{"ha":978,"x_min":0,"x_max":0,"o":"m 490 -21 b 103 332 249 -21 103 126 l 103 1000 l 211 1000 l 211 324 b 490 72 211 175 319 72 b 771 324 661 72 771 175 l 771 1000 l 876 1000 l 876 332 b 490 -21 876 124 726 -21 m 313 1129 l 313 1218 l 668 1218 l 668 1129 "},"ū":{"ha":771,"x_min":0,"x_max":0,"o":"m 199 722 l 199 242 b 368 67 199 124 264 67 b 565 281 493 67 565 164 l 565 722 l 669 722 l 669 0 l 583 0 l 572 100 b 344 -21 521 18 435 -21 b 96 242 200 -21 96 65 l 96 722 m 201 893 l 201 982 l 557 982 l 557 893 "},"Ŭ":{"ha":978,"x_min":0,"x_max":0,"o":"m 490 -21 b 103 332 249 -21 103 126 l 103 1000 l 211 1000 l 211 324 b 490 72 211 175 319 72 b 771 324 661 72 771 175 l 771 1000 l 876 1000 l 876 332 b 490 -21 876 124 726 -21 m 488 1065 b 296 1250 375 1065 307 1133 l 386 1250 b 488 1136 390 1186 418 1136 b 590 1250 558 1136 586 1186 l 681 1250 b 488 1065 669 1133 600 1065 "},"ŭ":{"ha":771,"x_min":0,"x_max":0,"o":"m 199 722 l 199 242 b 368 67 199 124 264 67 b 565 281 493 67 565 164 l 565 722 l 669 722 l 669 0 l 583 0 l 572 100 b 344 -21 521 18 435 -21 b 96 242 200 -21 96 65 l 96 722 m 378 829 b 186 1014 265 829 197 897 l 276 1014 b 378 900 281 950 308 900 b 481 1014 449 900 476 950 l 571 1014 b 378 829 560 897 490 829 "},"Ů":{"ha":978,"x_min":0,"x_max":0,"o":"m 490 -21 b 103 332 249 -21 103 126 l 103 1000 l 211 1000 l 211 324 b 490 72 211 175 319 72 b 771 324 661 72 771 175 l 771 1000 l 876 1000 l 876 332 b 490 -21 876 124 726 -21 m 392 1208 b 489 1108 392 1146 432 1108 b 588 1208 546 1108 588 1146 b 489 1308 588 1271 547 1308 b 392 1208 432 1308 392 1271 m 664 1208 b 489 1044 664 1115 596 1044 b 315 1208 382 1044 315 1115 b 489 1372 315 1301 382 1372 b 664 1208 596 1372 664 1301 "},"ů":{"ha":771,"x_min":0,"x_max":0,"o":"m 199 722 l 199 242 b 368 67 199 124 264 67 b 565 281 493 67 565 164 l 565 722 l 669 722 l 669 0 l 583 0 l 572 100 b 344 -21 521 18 435 -21 b 96 242 200 -21 96 65 l 96 722 m 285 972 b 382 872 285 910 325 872 b 481 972 439 872 481 910 b 382 1072 481 1035 440 1072 b 285 972 325 1072 285 1035 m 557 972 b 382 808 557 879 489 808 b 208 972 275 808 208 879 b 382 1136 208 1065 275 1136 b 557 972 489 1136 557 1065 "},"Ű":{"ha":978,"x_min":0,"x_max":0,"o":"m 490 -21 b 103 332 249 -21 103 126 l 103 1000 l 211 1000 l 211 324 b 490 72 211 175 319 72 b 771 324 661 72 771 175 l 771 1000 l 876 1000 l 876 332 b 490 -21 876 124 726 -21 m 438 1257 l 558 1257 l 397 1067 l 314 1067 m 669 1257 l 789 1257 l 629 1067 l 544 1067 "},"ű":{"ha":771,"x_min":0,"x_max":0,"o":"m 199 722 l 199 242 b 368 67 199 124 264 67 b 565 281 493 67 565 164 l 565 722 l 669 722 l 669 0 l 583 0 l 572 100 b 344 -21 521 18 435 -21 b 96 242 200 -21 96 65 l 96 722 m 350 1021 l 471 1021 l 310 831 l 226 831 m 582 1021 l 701 1021 l 542 831 l 457 831 "},"Ų":{"ha":978,"x_min":0,"x_max":0,"o":"m 735 -207 b 558 -337 711 -289 643 -337 b 389 -193 460 -337 389 -282 b 500 -21 389 -131 432 -67 b 103 332 278 -21 103 94 l 103 1000 l 211 1000 l 211 324 b 490 72 211 175 319 72 b 771 386 701 72 771 206 l 771 1000 l 876 1000 l 876 332 b 649 4 876 172 792 60 b 474 -178 561 -31 474 -104 b 563 -265 474 -236 508 -265 b 649 -207 611 -265 639 -240 "},"ų":{"ha":771,"x_min":0,"x_max":0,"o":"m 199 722 l 199 242 b 368 67 199 124 264 67 b 565 275 490 67 565 161 l 565 722 l 669 722 l 669 0 b 504 -178 607 -29 504 -93 b 593 -265 504 -236 540 -265 b 679 -207 642 -265 669 -240 l 765 -207 b 589 -335 742 -287 674 -335 b 422 -193 490 -335 422 -282 b 582 7 422 -115 489 -37 l 572 100 b 344 -21 521 18 435 -21 b 96 242 200 -21 96 65 l 96 722 "},"Ŵ":{"ha":1331,"x_min":0,"x_max":0,"o":"m 1319 1000 l 1049 0 l 917 0 l 671 888 l 421 0 l 282 0 l 13 1000 l 124 1000 l 357 122 l 604 1000 l 744 1000 l 983 125 l 1218 1000 m 882 1067 l 779 1067 l 667 1196 l 554 1067 l 451 1067 l 608 1257 l 726 1257 "},"ŵ":{"ha":1096,"x_min":0,"x_max":0,"o":"m 1071 722 l 861 0 l 739 0 l 550 610 l 367 0 l 242 0 l 26 722 l 133 722 l 307 108 l 489 722 l 615 722 l 800 111 l 967 722 m 764 831 l 661 831 l 549 960 l 436 831 l 333 831 l 490 1021 l 608 1021 "},"Ŷ":{"ha":869,"x_min":0,"x_max":0,"o":"m 125 1000 l 435 490 l 753 1000 l 864 1000 l 489 394 l 489 0 l 381 0 l 381 396 l 6 1000 m 650 1067 l 547 1067 l 435 1196 l 322 1067 l 219 1067 l 376 1257 l 494 1257 "},"ŷ":{"ha":701,"x_min":0,"x_max":0,"o":"m 429 -8 b 210 -271 367 -186 328 -271 b 129 -258 183 -271 161 -267 l 129 -174 b 200 -185 156 -181 178 -185 b 331 0 263 -185 283 -136 l 294 0 l 19 722 l 131 722 l 361 82 l 579 722 l 683 722 m 569 831 l 467 831 l 354 960 l 242 831 l 139 831 l 296 1021 l 414 1021 "},"Ÿ":{"ha":869,"x_min":0,"x_max":0,"o":"m 125 1000 l 435 490 l 753 1000 l 864 1000 l 489 394 l 489 0 l 381 0 l 381 396 l 6 1000 m 228 1118 l 228 1236 l 343 1236 l 343 1118 m 526 1118 l 526 1236 l 642 1236 l 642 1118 "},"Ź":{"ha":888,"x_min":0,"x_max":0,"o":"m 189 94 l 813 94 l 813 0 l 61 0 l 61 96 l 697 906 l 93 906 l 93 1000 l 826 1000 l 826 908 m 510 1257 l 647 1257 l 461 1067 l 368 1067 "},"ź":{"ha":668,"x_min":0,"x_max":0,"o":"m 167 89 l 621 89 l 621 0 l 47 0 l 47 99 l 501 635 l 68 635 l 68 722 l 621 722 l 621 622 m 419 1021 l 557 1021 l 371 831 l 278 831 "},"Ż":{"ha":888,"x_min":0,"x_max":0,"o":"m 189 94 l 813 94 l 813 0 l 61 0 l 61 96 l 697 906 l 93 906 l 93 1000 l 826 1000 l 826 908 m 389 1107 l 389 1236 l 508 1236 l 508 1107 "},"ż":{"ha":668,"x_min":0,"x_max":0,"o":"m 167 89 l 621 89 l 621 0 l 47 0 l 47 99 l 501 635 l 68 635 l 68 722 l 621 722 l 621 622 m 285 871 l 285 1000 l 404 1000 l 404 871 "},"Ž":{"ha":888,"x_min":0,"x_max":0,"o":"m 189 94 l 813 94 l 813 0 l 61 0 l 61 96 l 697 906 l 93 906 l 93 1000 l 826 1000 l 826 908 m 239 1257 l 342 1257 l 454 1128 l 565 1257 l 669 1257 l 514 1067 l 394 1067 "},"ž":{"ha":668,"x_min":0,"x_max":0,"o":"m 167 89 l 621 89 l 621 0 l 47 0 l 47 99 l 501 635 l 68 635 l 68 722 l 621 722 l 621 622 m 133 1021 l 236 1021 l 349 892 l 460 1021 l 564 1021 l 408 831 l 289 831 "},"ſ":{"ha":432,"x_min":0,"x_max":0,"o":"m 140 0 l 140 633 l 33 633 l 33 722 l 140 722 l 140 835 b 325 1021 140 950 215 1021 b 439 1004 368 1021 403 1014 l 439 915 b 331 932 399 926 361 932 b 243 840 275 932 243 899 l 243 0 "},"ƒ":{"ha":432,"x_min":0,"x_max":0,"o":"m 439 897 b 331 914 399 908 361 914 b 243 822 282 914 243 886 l 243 708 l 406 708 l 406 621 l 243 621 l 243 -250 l 140 -250 l 140 621 l 33 621 l 33 708 l 140 708 l 140 817 b 325 1003 140 926 210 1003 b 439 986 368 1003 403 997 "},"Ǻ":{"ha":950,"x_min":0,"x_max":0,"o":"m 439 1169 l 575 1333 l 706 1333 l 528 1169 m 479 1140 b 650 992 588 1140 650 1075 b 553 860 650 932 615 883 l 944 0 l 824 0 l 707 268 l 238 268 l 119 0 l 6 0 l 399 861 b 307 992 340 885 307 933 b 479 1140 307 1075 369 1140 m 479 1082 b 382 992 418 1082 382 1047 b 479 901 382 938 419 901 b 575 992 540 901 575 938 b 479 1082 575 1047 540 1082 m 669 357 l 475 804 l 276 357 "},"ǻ":{"ha":749,"x_min":0,"x_max":0,"o":"m 78 528 b 372 743 90 657 203 743 b 654 500 547 743 654 647 l 654 0 l 569 0 l 557 110 b 307 -21 511 39 429 -21 b 61 185 157 -21 61 61 b 336 421 61 313 138 388 l 551 457 l 551 507 b 368 661 551 603 483 661 b 186 528 258 661 196 608 m 551 375 l 364 343 b 169 194 213 317 169 269 b 332 67 169 111 232 67 b 551 261 440 67 551 149 m 276 914 b 374 824 276 858 317 824 b 472 914 431 824 472 858 b 374 1004 472 971 432 1004 b 276 914 317 1004 276 971 m 549 914 b 374 767 549 831 481 767 b 200 914 267 767 200 831 b 374 1061 200 997 267 1061 b 549 914 481 1061 549 997 m 460 1258 l 597 1258 l 411 1086 l 318 1086 "},"Ǽ":{"ha":1326,"x_min":0,"x_max":0,"o":"m 1213 463 l 782 463 l 782 93 l 1253 93 l 1253 0 l 674 0 l 674 268 l 281 268 l 117 0 l 0 0 l 611 1000 l 1253 1000 l 1253 907 l 782 907 l 782 554 l 1213 554 m 674 358 l 674 910 l 336 358 m 965 1257 l 1103 1257 l 917 1067 l 824 1067 "},"ǽ":{"ha":1289,"x_min":0,"x_max":0,"o":"m 1210 204 b 897 -21 1174 68 1054 -21 b 600 151 785 -21 665 24 b 317 -21 558 60 464 -21 b 61 185 171 -21 61 46 b 332 406 61 322 167 386 l 550 432 l 550 507 b 368 661 550 600 486 661 b 186 528 278 661 196 621 l 78 528 b 372 743 93 661 207 743 b 621 607 494 743 582 694 b 888 743 689 707 796 743 b 1219 354 1071 743 1218 632 l 656 354 b 900 67 658 133 786 67 b 1099 204 994 67 1074 119 m 332 67 b 550 250 432 67 550 140 l 550 350 l 383 331 b 169 190 221 311 169 272 b 332 67 169 117 222 67 m 889 660 b 660 438 781 660 683 589 l 1114 438 b 889 660 1101 582 1013 660 m 726 1021 l 864 1021 l 678 831 l 585 831 "},"Ǿ":{"ha":1060,"x_min":0,"x_max":0,"o":"m 578 1257 l 715 1257 l 529 1067 l 436 1067 m 531 -21 b 394 -1 483 -21 438 -14 l 342 -153 l 244 -153 l 310 31 b 68 500 171 103 68 253 b 531 1021 68 863 300 1021 b 668 1000 576 1021 622 1014 l 719 1139 l 815 1139 l 753 968 b 993 500 890 894 993 743 b 531 -21 993 135 760 -21 m 179 500 b 347 119 179 311 246 185 l 636 914 b 531 931 604 925 568 931 b 179 500 326 931 179 781 m 531 69 b 881 500 729 69 881 213 b 714 879 881 685 817 813 l 424 86 b 531 69 457 75 492 69 "},"ǿ":{"ha":810,"x_min":0,"x_max":0,"o":"m 461 1021 l 599 1021 l 413 831 l 319 831 m 61 361 b 406 743 61 618 214 743 b 522 725 447 743 486 738 l 592 875 l 688 875 l 603 688 b 749 361 692 628 749 519 b 406 -21 749 108 603 -21 b 289 -1 364 -21 325 -15 l 221 -153 l 121 -153 l 207 35 b 61 361 118 97 61 206 m 407 64 b 642 361 544 64 642 165 b 558 600 642 472 610 551 l 324 78 b 407 64 350 68 376 64 m 168 361 b 253 124 168 251 200 172 l 488 643 b 406 658 463 654 435 658 b 168 361 269 658 168 558 "},"Ș":{"ha":901,"x_min":0,"x_max":0,"o":"m 450 71 b 724 264 629 71 724 153 b 399 490 724 371 669 424 b 92 769 169 547 92 631 b 443 1021 92 914 217 1021 b 831 761 649 1021 801 924 l 718 761 b 444 929 697 867 600 929 b 201 775 276 929 201 863 b 475 576 201 682 246 633 b 833 268 747 507 833 424 b 451 -21 833 111 696 -21 b 54 268 240 -21 83 89 l 167 268 b 450 71 188 142 294 71 m 515 -199 b 360 -396 515 -315 442 -381 l 360 -340 b 436 -215 408 -325 436 -279 l 403 -215 l 403 -99 l 515 -99 "},"ș":{"ha":700,"x_min":0,"x_max":0,"o":"m 533 193 b 310 340 533 282 457 311 b 74 544 153 372 74 435 b 346 743 74 660 167 743 b 635 538 501 743 613 664 l 529 538 b 343 661 515 611 447 661 b 179 554 231 661 179 613 b 364 425 179 486 218 454 b 639 200 542 389 639 336 b 347 -21 639 76 532 -21 b 47 199 172 -21 61 67 l 153 199 b 349 63 167 110 236 63 b 533 193 469 63 533 122 m 413 -199 b 257 -396 413 -315 339 -381 l 257 -340 b 333 -215 306 -325 333 -279 l 300 -215 l 300 -99 l 413 -99 "},"Ț":{"ha":818,"x_min":0,"x_max":0,"o":"m 799 903 l 463 903 l 463 0 l 353 0 l 353 903 l 19 903 l 19 1000 l 799 1000 m 464 -199 b 308 -396 464 -315 390 -381 l 308 -340 b 385 -215 357 -325 385 -279 l 351 -215 l 351 -99 l 464 -99 "},"ț":{"ha":433,"x_min":0,"x_max":0,"o":"m 235 633 l 235 160 b 321 69 235 99 267 69 b 406 81 346 69 367 71 l 406 -7 b 310 -21 371 -17 342 -21 b 132 163 194 -21 132 49 l 132 633 l 26 633 l 26 722 l 132 722 l 139 896 l 235 896 l 235 722 l 397 722 l 397 633 m 288 -199 b 132 -396 288 -315 214 -381 l 132 -340 b 208 -215 181 -325 208 -279 l 175 -215 l 175 -99 l 288 -99 "},"ȷ":{"ha":301,"x_min":0,"x_max":0,"o":"m -74 -168 b 13 -182 -43 -176 -8 -182 b 99 -79 71 -182 99 -160 l 99 722 l 203 722 l 203 -85 b 29 -271 203 -199 140 -271 b -74 -254 -1 -271 -39 -265 "},"ˆ":{"ha":511,"x_min":0,"x_max":0,"o":"m 471 831 l 368 831 l 256 960 l 143 831 l 40 831 l 197 1021 l 315 1021 "},"ˇ":{"ha":511,"x_min":0,"x_max":0,"o":"m 40 1021 l 143 1021 l 256 892 l 367 1021 l 471 1021 l 315 831 l 196 831 "},"ˉ":{"ha":439,"x_min":0,"x_max":0,"o":"m 42 894 l 42 981 l 397 981 l 397 894 "},"˘":{"ha":451,"x_min":0,"x_max":0,"o":"m 225 829 b 33 1014 113 829 44 897 l 124 1014 b 225 900 128 950 156 900 b 328 1014 296 900 324 950 l 418 1014 b 225 829 407 897 338 829 "},"˙":{"ha":203,"x_min":0,"x_max":0,"o":"m 42 871 l 42 1000 l 161 1000 l 161 871 "},"˚":{"ha":432,"x_min":0,"x_max":0,"o":"m 118 972 b 215 872 118 910 158 872 b 314 972 272 872 314 910 b 215 1072 314 1035 274 1072 b 118 972 158 1072 118 1035 m 390 972 b 215 808 390 879 322 808 b 42 972 108 808 42 879 b 215 1136 42 1065 108 1136 b 390 972 322 1136 390 1065 "},"˛":{"ha":426,"x_min":0,"x_max":0,"o":"m 385 -207 b 208 -337 361 -289 293 -337 b 39 -193 110 -337 39 -282 b 253 26 39 -103 128 -11 l 339 26 b 124 -178 244 -17 124 -89 b 213 -265 124 -236 160 -265 b 299 -207 261 -265 289 -240 "},"˜":{"ha":468,"x_min":0,"x_max":0,"o":"m 314 860 b 154 910 231 860 221 910 b 42 860 117 910 82 892 l 42 950 b 158 993 81 978 114 993 b 318 943 242 993 251 943 b 426 993 356 943 386 961 l 426 903 b 314 860 388 875 357 860 "},"˝":{"ha":558,"x_min":0,"x_max":0,"o":"m 165 1021 l 286 1021 l 125 831 l 42 831 m 397 1021 l 517 1021 l 357 831 l 272 831 "},"̒":{"ha":208,"x_min":0,"x_max":0,"o":"m 43 921 b 199 1107 43 1031 117 1090 l 199 1050 b 122 938 150 1036 122 1001 l 157 938 l 157 821 l 43 821 "},"̣":{"ha":203,"x_min":0,"x_max":0,"o":"m 46 -250 l 46 -121 l 164 -121 l 164 -250 "},";":{"ha":406,"x_min":0,"x_max":0,"o":"m 138 588 l 138 722 l 268 722 l 268 588 m 268 15 b 106 -201 268 -125 190 -185 l 106 -142 b 188 0 157 -126 188 -89 l 136 0 l 136 135 l 268 135 "},"΄":{"ha":251,"x_min":0,"x_max":0,"o":"m 81 1000 l 210 1000 l 121 796 l 42 796 "},"΅":{"ha":497,"x_min":0,"x_max":0,"o":"m 217 981 l 269 1182 l 411 1182 l 303 981 m 357 833 l 357 951 l 472 951 l 472 833 m 51 833 l 51 951 l 167 951 l 167 833 "},"Ά":{"ha":949,"x_min":0,"x_max":0,"o":"m 822 0 l 718 268 l 226 268 l 119 0 l 6 0 l 411 1000 l 539 1000 l 943 0 m 261 358 l 682 358 l 474 892 m 203 1000 l 332 1000 l 243 796 l 164 796 "},"·":{"ha":406,"x_min":0,"x_max":0,"o":"m 138 375 l 138 511 l 268 511 l 268 375 "},"Έ":{"ha":890,"x_min":0,"x_max":0,"o":"m 775 463 l 317 463 l 317 93 l 815 93 l 815 0 l 208 0 l 208 1000 l 815 1000 l 815 907 l 317 907 l 317 554 l 775 554 m 17 1000 l 146 1000 l 57 796 l -22 796 "},"Ή":{"ha":1057,"x_min":0,"x_max":0,"o":"m 947 1000 l 947 0 l 838 0 l 838 461 l 308 461 l 308 0 l 200 0 l 200 1000 l 308 1000 l 308 554 l 838 554 l 838 1000 m 17 1000 l 146 1000 l 57 796 l -22 796 "},"Ί":{"ha":418,"x_min":0,"x_max":0,"o":"m 308 1000 l 308 0 l 200 0 l 200 1000 m 17 1000 l 146 1000 l 57 796 l -22 796 "},"Ό":{"ha":1086,"x_min":0,"x_max":0,"o":"m 46 1000 l 175 1000 l 86 796 l 7 796 m 557 69 b 907 500 756 69 907 207 b 557 931 907 781 760 931 b 206 500 346 931 206 779 b 557 69 206 215 357 69 m 557 -21 b 94 500 290 -21 94 168 b 557 1021 94 843 301 1021 b 1019 500 814 1021 1019 840 b 557 -21 1019 160 817 -21 "},"Ύ":{"ha":1021,"x_min":0,"x_max":0,"o":"m 278 1000 l 588 490 l 906 1000 l 1017 1000 l 642 394 l 642 0 l 533 0 l 533 396 l 158 1000 m -11 1000 l 118 1000 l 29 796 l -50 796 "},"Ώ":{"ha":1088,"x_min":0,"x_max":0,"o":"m 672 97 b 908 501 806 133 908 257 b 558 931 908 781 761 931 b 207 501 347 931 207 781 b 444 97 207 264 308 132 l 444 0 l 143 0 l 143 97 l 290 97 b 96 501 175 157 96 310 b 558 1021 96 871 328 1021 b 1021 501 788 1021 1021 868 b 825 97 1021 306 939 156 l 972 97 l 972 0 l 672 0 m 46 1000 l 175 1000 l 86 796 l 7 796 "},"ΐ":{"ha":301,"x_min":0,"x_max":0,"o":"m 99 0 l 99 722 l 203 722 l 203 0 m 124 981 l 176 1182 l 318 1182 l 210 981 m 264 833 l 264 951 l 379 951 l 379 833 m -42 833 l -42 951 l 74 951 l 74 833 "},"Α":{"ha":949,"x_min":0,"x_max":0,"o":"m 822 0 l 718 268 l 226 268 l 119 0 l 6 0 l 411 1000 l 539 1000 l 943 0 m 261 358 l 682 358 l 474 892 "},"Β":{"ha":896,"x_min":0,"x_max":0,"o":"m 460 1000 b 793 743 678 1000 793 903 b 622 529 793 646 724 554 b 829 281 735 513 829 414 b 461 0 829 106 704 0 l 110 0 l 110 1000 m 218 482 l 218 90 l 478 90 b 715 281 635 90 715 158 b 483 482 715 407 632 482 m 218 915 l 218 568 l 479 568 b 683 743 614 568 683 642 b 471 915 683 851 606 915 "},"Γ":{"ha":683,"x_min":0,"x_max":0,"o":"m 664 1000 l 664 907 l 218 907 l 218 0 l 110 0 l 110 1000 "},"Δ":{"ha":949,"x_min":0,"x_max":0,"o":"m 6 0 l 411 1000 l 539 1000 l 943 0 m 156 93 l 786 93 l 474 892 "},"Ε":{"ha":790,"x_min":0,"x_max":0,"o":"m 676 463 l 218 463 l 218 93 l 717 93 l 717 0 l 110 0 l 110 1000 l 717 1000 l 717 907 l 218 907 l 218 554 l 676 554 "},"Ζ":{"ha":888,"x_min":0,"x_max":0,"o":"m 189 94 l 813 94 l 813 0 l 61 0 l 61 96 l 697 906 l 93 906 l 93 1000 l 826 1000 l 826 908 "},"Η":{"ha":967,"x_min":0,"x_max":0,"o":"m 857 1000 l 857 0 l 747 0 l 747 461 l 218 461 l 218 0 l 110 0 l 110 1000 l 218 1000 l 218 554 l 747 554 l 747 1000 "},"Θ":{"ha":1060,"x_min":0,"x_max":0,"o":"m 778 463 l 283 463 l 283 554 l 778 554 m 531 69 b 881 500 729 69 881 213 b 531 931 881 781 733 931 b 179 500 326 931 179 781 b 531 69 179 215 331 69 m 531 -21 b 68 500 264 -21 68 168 b 531 1021 68 836 275 1021 b 993 500 788 1021 993 840 b 531 -21 993 165 790 -21 "},"Ι":{"ha":328,"x_min":0,"x_max":0,"o":"m 218 1000 l 218 0 l 110 0 l 110 1000 "},"Κ":{"ha":851,"x_min":0,"x_max":0,"o":"m 694 0 l 218 482 l 218 0 l 110 0 l 110 1000 l 218 1000 l 218 544 l 664 1000 l 797 1000 l 321 521 l 840 0 "},"Λ":{"ha":935,"x_min":0,"x_max":0,"o":"m 808 0 l 467 892 l 119 0 l 6 0 l 404 1000 l 532 1000 l 929 0 "},"Μ":{"ha":1189,"x_min":0,"x_max":0,"o":"m 551 0 l 215 842 l 215 0 l 110 0 l 110 1000 l 264 1000 l 608 124 l 932 1000 l 1079 1000 l 1079 0 l 976 0 l 976 835 l 660 0 "},"Ν":{"ha":993,"x_min":0,"x_max":0,"o":"m 885 1000 l 885 0 l 750 0 l 210 869 l 210 0 l 110 0 l 110 1000 l 250 1000 l 786 138 l 786 1000 "},"Ξ":{"ha":810,"x_min":0,"x_max":0,"o":"m 75 99 l 735 99 l 735 0 l 75 0 m 735 903 l 75 903 l 75 1000 l 735 1000 m 175 456 l 175 553 l 633 553 l 633 456 "},"Ο":{"ha":1060,"x_min":0,"x_max":0,"o":"m 531 69 b 881 500 729 69 881 207 b 531 931 881 781 733 931 b 179 500 319 931 179 779 b 531 69 179 215 331 69 m 531 -21 b 68 500 264 -21 68 168 b 531 1021 68 843 275 1021 b 993 500 788 1021 993 840 b 531 -21 993 160 790 -21 "},"Π":{"ha":967,"x_min":0,"x_max":0,"o":"m 857 1000 l 857 0 l 747 0 l 747 907 l 218 907 l 218 0 l 110 0 l 110 1000 "},"Ρ":{"ha":872,"x_min":0,"x_max":0,"o":"m 440 1000 b 813 681 678 1000 813 885 b 435 371 813 485 674 371 l 218 371 l 218 0 l 110 0 l 110 1000 m 218 910 l 218 461 l 438 461 b 699 681 613 461 699 542 b 443 910 699 825 607 910 "},"Σ":{"ha":785,"x_min":0,"x_max":0,"o":"m 514 542 l 514 464 l 181 92 l 735 92 l 735 0 l 51 0 l 51 93 l 415 503 l 51 907 l 51 1000 l 735 1000 l 735 908 l 181 908 "},"Τ":{"ha":818,"x_min":0,"x_max":0,"o":"m 799 903 l 463 903 l 463 0 l 353 0 l 353 903 l 19 903 l 19 1000 l 799 1000 "},"Υ":{"ha":869,"x_min":0,"x_max":0,"o":"m 125 1000 l 435 490 l 753 1000 l 864 1000 l 489 394 l 489 0 l 381 0 l 381 396 l 6 1000 "},"Φ":{"ha":1146,"x_min":0,"x_max":0,"o":"m 628 1021 l 628 968 b 1079 500 878 963 1079 806 b 628 32 1079 204 886 36 l 628 -21 l 518 -21 l 518 32 b 68 500 258 36 68 204 b 518 968 68 806 268 963 l 518 1021 m 968 500 b 628 878 968 750 832 874 l 628 122 b 968 500 821 126 968 244 m 179 500 b 518 122 179 244 325 126 l 518 878 b 179 500 314 874 179 750 "},"Χ":{"ha":878,"x_min":0,"x_max":0,"o":"m 501 519 l 858 0 l 728 0 l 440 431 l 143 0 l 19 0 l 378 518 l 44 1000 l 174 1000 l 444 603 l 724 1000 l 847 1000 "},"Ψ":{"ha":1044,"x_min":0,"x_max":0,"o":"m 197 1000 l 197 564 b 471 336 197 431 300 350 l 471 1000 l 581 1000 l 581 338 b 850 564 743 351 850 432 l 850 1000 l 957 1000 l 957 574 b 581 243 957 378 814 260 l 581 0 l 471 0 l 471 243 b 89 574 233 258 89 379 l 89 1000 "},"Ω":{"ha":1060,"x_min":0,"x_max":0,"o":"m 644 97 b 881 501 778 133 881 257 b 531 931 881 781 733 931 b 179 501 319 931 179 781 b 417 97 179 264 281 132 l 417 0 l 115 0 l 115 97 l 263 97 b 68 501 147 157 68 310 b 531 1021 68 871 300 1021 b 993 501 760 1021 993 868 b 797 97 993 306 911 156 l 944 97 l 944 0 l 644 0 "},"Ϊ":{"ha":328,"x_min":0,"x_max":0,"o":"m 218 1000 l 218 0 l 110 0 l 110 1000 m -43 1118 l -43 1236 l 72 1236 l 72 1118 m 256 1118 l 256 1236 l 371 1236 l 371 1118 "},"Ϋ":{"ha":869,"x_min":0,"x_max":0,"o":"m 125 1000 l 435 490 l 753 1000 l 864 1000 l 489 394 l 489 0 l 381 0 l 381 396 l 6 1000 m 228 1118 l 228 1236 l 343 1236 l 343 1118 m 526 1118 l 526 1236 l 642 1236 l 642 1118 "},"ά":{"ha":818,"x_min":0,"x_max":0,"o":"m 632 0 l 614 119 b 368 -21 567 38 483 -21 b 61 356 196 -21 61 108 b 372 743 61 615 194 743 b 614 607 485 743 567 686 l 629 722 l 717 722 l 717 0 m 168 354 b 390 67 168 161 263 67 b 619 357 518 67 619 168 b 392 656 619 551 522 656 b 168 354 261 656 168 560 m 388 1000 l 517 1000 l 428 796 l 349 796 "},"έ":{"ha":708,"x_min":0,"x_max":0,"o":"m 344 1000 l 474 1000 l 385 796 l 306 796 m 342 660 b 185 540 238 660 185 611 b 339 419 185 467 246 419 l 407 419 l 407 329 l 336 329 b 161 196 224 329 161 272 b 349 65 161 113 228 65 b 543 215 460 65 526 117 l 654 215 b 347 -21 632 78 526 -21 b 56 194 157 -21 56 65 b 224 379 56 281 115 356 b 81 547 129 406 81 469 b 339 743 81 660 171 743 b 650 522 511 743 628 651 l 538 522 b 342 660 519 607 450 660 "},"ή":{"ha":778,"x_min":0,"x_max":0,"o":"m 103 0 l 103 722 l 188 722 l 200 614 b 429 743 250 699 338 743 b 682 482 585 743 682 647 l 682 -250 l 579 -250 l 579 479 b 406 656 579 594 515 656 b 206 446 303 656 206 575 l 206 0 m 376 1000 l 506 1000 l 417 796 l 338 796 "},"ί":{"ha":301,"x_min":0,"x_max":0,"o":"m 149 1000 l 278 1000 l 189 796 l 110 796 m 99 0 l 99 722 l 203 722 l 203 0 "},"ΰ":{"ha":775,"x_min":0,"x_max":0,"o":"m 388 -21 b 100 242 210 -21 100 69 l 100 722 l 203 722 l 203 242 b 388 67 203 129 272 67 b 572 242 503 67 572 129 l 572 722 l 675 722 l 675 242 b 388 -21 675 69 565 -21 m 363 981 l 415 1182 l 557 1182 l 449 981 m 503 833 l 503 951 l 618 951 l 618 833 m 197 833 l 197 951 l 313 951 l 313 833 "},"α":{"ha":818,"x_min":0,"x_max":0,"o":"m 632 0 l 614 119 b 368 -21 567 38 483 -21 b 61 356 196 -21 61 108 b 372 743 61 615 194 743 b 614 607 485 743 567 686 l 629 722 l 717 722 l 717 0 m 168 354 b 390 67 168 161 263 67 b 619 357 518 67 619 168 b 392 656 619 551 522 656 b 168 354 261 656 168 560 "},"β":{"ha":779,"x_min":0,"x_max":0,"o":"m 654 774 b 494 547 654 669 597 579 b 699 283 599 528 699 425 b 422 -21 699 93 579 -21 b 206 93 322 -21 251 21 l 206 -250 l 103 -250 l 103 714 b 376 1021 103 908 197 1021 b 654 774 549 1021 654 921 m 206 260 b 403 67 206 161 292 67 b 593 281 518 67 593 140 b 400 494 593 425 503 494 l 349 494 l 349 585 l 397 585 b 550 763 475 585 550 654 b 374 935 550 867 492 935 b 206 717 264 935 206 868 "},"γ":{"ha":701,"x_min":0,"x_max":0,"o":"m 297 -250 l 297 0 l 19 722 l 131 722 l 351 100 l 575 722 l 683 722 l 401 0 l 401 -250 "},"δ":{"ha":776,"x_min":0,"x_max":0,"o":"m 193 1000 l 663 1000 l 663 911 l 414 911 b 715 432 583 867 715 699 b 381 -21 715 157 604 -21 b 61 331 190 -21 61 115 b 365 668 61 526 185 668 b 618 515 488 668 586 599 b 193 922 597 769 392 896 m 614 322 b 381 581 614 458 532 581 b 167 324 256 581 167 496 b 379 67 167 167 246 67 b 614 322 514 67 607 160 "},"ε":{"ha":708,"x_min":0,"x_max":0,"o":"m 342 660 b 185 540 238 660 185 611 b 339 419 185 467 246 419 l 407 419 l 407 329 l 336 329 b 161 196 224 329 161 272 b 349 65 161 113 228 65 b 543 215 460 65 526 117 l 654 215 b 347 -21 632 78 526 -21 b 56 194 157 -21 56 65 b 224 379 56 281 115 356 b 81 547 129 406 81 469 b 339 743 81 660 171 743 b 650 522 511 743 628 651 l 538 522 b 342 660 519 607 450 660 "},"ζ":{"ha":625,"x_min":0,"x_max":0,"o":"m 154 367 b 393 72 154 193 235 106 b 594 -96 550 39 594 -8 b 496 -271 594 -167 540 -232 l 435 -224 b 486 -146 454 -203 479 -172 b 494 -93 493 -126 497 -110 b 356 -12 488 -53 453 -32 b 49 347 156 25 49 156 b 431 915 49 615 193 825 l 57 915 l 57 1000 l 594 1000 l 594 928 b 154 367 326 840 154 632 "},"η":{"ha":778,"x_min":0,"x_max":0,"o":"m 103 0 l 103 722 l 188 722 l 200 614 b 429 743 250 699 338 743 b 682 482 585 743 682 647 l 682 -250 l 579 -250 l 579 479 b 406 656 579 594 515 656 b 206 446 303 656 206 575 l 206 0 "},"θ":{"ha":810,"x_min":0,"x_max":0,"o":"m 404 -21 b 61 501 211 -21 61 142 b 404 1021 61 868 213 1021 b 749 501 597 1021 749 868 b 404 -21 749 142 599 -21 m 404 67 b 640 463 549 67 633 193 l 169 463 b 404 67 175 193 260 67 m 404 933 b 169 551 263 933 178 811 l 640 551 b 404 933 631 811 547 933 "},"ι":{"ha":301,"x_min":0,"x_max":0,"o":"m 99 0 l 99 722 l 203 722 l 203 0 "},"κ":{"ha":699,"x_min":0,"x_max":0,"o":"m 103 0 l 103 722 l 206 722 l 206 417 l 522 722 l 658 722 l 310 393 l 701 0 l 563 0 l 206 354 l 206 0 "},"λ":{"ha":704,"x_min":0,"x_max":0,"o":"m 685 0 l 576 0 l 357 640 l 124 0 l 19 0 l 293 722 l 328 722 b 185 935 261 914 239 935 b 110 922 163 935 138 931 l 110 1007 b 196 1021 143 1017 168 1021 b 429 731 294 1021 342 979 "},"μ":{"ha":778,"x_min":0,"x_max":0,"o":"m 206 722 l 206 242 b 375 67 206 113 283 67 b 572 276 497 67 572 163 l 572 722 l 676 722 l 676 0 l 590 0 l 579 96 b 361 -21 528 14 442 -21 b 206 35 299 -21 244 0 l 206 -250 l 103 -250 l 103 722 "},"ν":{"ha":701,"x_min":0,"x_max":0,"o":"m 683 722 l 419 0 l 281 0 l 19 722 l 132 722 l 353 85 l 575 722 "},"ξ":{"ha":668,"x_min":0,"x_max":0,"o":"m 360 -18 b 51 261 151 21 51 119 b 247 500 51 390 117 471 b 85 696 147 524 85 600 b 288 915 85 797 149 879 l 61 915 l 61 1000 l 589 1000 l 589 925 l 564 925 b 182 697 294 925 182 822 b 392 540 182 578 276 540 l 478 540 l 478 450 l 356 450 b 156 268 231 450 156 372 b 396 67 156 164 225 104 b 619 -100 572 29 619 -17 b 510 -271 619 -157 581 -211 l 449 -224 b 515 -112 478 -193 515 -150 b 360 -18 515 -65 489 -42 "},"ο":{"ha":810,"x_min":0,"x_max":0,"o":"m 168 361 b 407 64 168 165 271 64 b 642 361 544 64 642 165 b 406 658 642 561 542 658 b 168 361 269 658 168 558 m 61 361 b 406 743 61 618 214 743 b 749 361 600 743 749 617 b 406 -21 749 108 603 -21 b 61 361 210 -21 61 111 "},"π":{"ha":808,"x_min":0,"x_max":0,"o":"m 125 0 l 125 633 l 26 633 l 26 722 l 782 722 l 782 633 l 683 633 l 683 0 l 581 0 l 581 633 l 229 633 l 229 0 "},"ρ":{"ha":821,"x_min":0,"x_max":0,"o":"m 97 383 b 431 743 97 611 211 743 b 760 368 624 743 760 611 b 440 -21 760 115 624 -21 b 201 111 326 -21 246 33 l 201 -250 l 97 -250 l 97 383 m 653 371 b 424 656 653 565 554 656 b 194 365 283 656 194 560 b 425 67 194 171 290 67 b 653 371 557 67 653 163 "},"ς":{"ha":750,"x_min":0,"x_max":0,"o":"m 61 374 b 390 743 61 600 199 743 b 694 515 551 743 669 657 l 581 515 b 393 656 563 604 493 656 b 169 374 264 656 169 557 b 447 75 169 203 244 110 b 675 -94 621 46 675 -3 b 568 -271 675 -165 617 -228 l 507 -224 b 571 -111 538 -192 571 -150 b 407 -12 571 -56 538 -31 b 61 374 190 17 61 144 "},"σ":{"ha":810,"x_min":0,"x_max":0,"o":"m 61 361 b 400 743 61 615 208 743 b 536 722 446 743 494 736 l 800 722 l 800 633 l 651 639 b 749 361 710 579 749 479 b 406 -21 749 108 603 -21 b 61 361 210 -21 61 111 m 168 361 b 407 64 168 165 271 64 b 642 361 544 64 642 165 b 518 646 642 490 594 594 b 404 658 489 653 442 658 b 168 361 271 658 168 558 "},"τ":{"ha":663,"x_min":0,"x_max":0,"o":"m 279 0 l 279 633 l 21 633 l 21 722 l 642 722 l 642 633 l 383 633 l 383 0 "},"υ":{"ha":775,"x_min":0,"x_max":0,"o":"m 388 -21 b 100 242 210 -21 100 69 l 100 722 l 203 722 l 203 242 b 388 67 203 129 272 67 b 572 242 503 67 572 129 l 572 722 l 675 722 l 675 242 b 388 -21 675 69 565 -21 "},"φ":{"ha":1031,"x_min":0,"x_max":0,"o":"m 963 382 b 553 -19 963 136 840 -6 l 553 -250 l 450 -250 l 450 -19 b 68 314 189 -7 68 96 b 161 722 68 454 108 589 l 264 722 b 171 319 208 575 171 460 b 450 67 171 157 249 78 l 450 431 b 696 743 450 631 532 743 b 963 382 863 743 963 635 m 553 67 b 856 383 774 76 856 168 b 694 656 856 585 796 656 b 553 403 601 656 553 592 "},"χ":{"ha":722,"x_min":0,"x_max":0,"o":"m 415 260 l 703 -250 l 576 -250 l 356 175 l 140 -250 l 19 -250 l 294 254 l 35 722 l 160 722 l 357 338 l 543 722 l 661 722 "},"ψ":{"ha":1017,"x_min":0,"x_max":0,"o":"m 204 722 l 204 304 b 460 74 204 171 301 89 l 460 722 l 564 722 l 564 74 b 815 304 721 89 815 174 l 815 722 l 917 722 l 917 314 b 564 -18 917 117 781 -1 l 564 -250 l 460 -250 l 460 -19 b 100 314 236 -3 100 119 l 100 722 "},"ω":{"ha":1054,"x_min":0,"x_max":0,"o":"m 893 722 b 986 304 946 589 986 457 b 738 -21 986 76 886 -21 b 526 131 632 -21 556 32 b 313 -21 496 33 419 -21 b 68 304 164 -21 68 83 b 161 722 68 457 108 589 l 264 722 b 171 310 210 575 171 460 b 328 67 171 133 232 67 b 475 254 418 67 475 129 l 475 528 l 578 528 l 578 254 b 725 67 578 129 635 67 b 882 310 819 67 882 133 b 789 722 882 460 844 575 "},"ϊ":{"ha":301,"x_min":0,"x_max":0,"o":"m -56 882 l -56 1000 l 60 1000 l 60 882 m 243 882 l 243 1000 l 358 1000 l 358 882 m 99 0 l 99 722 l 203 722 l 203 0 "},"ϋ":{"ha":775,"x_min":0,"x_max":0,"o":"m 388 -21 b 100 242 210 -21 100 69 l 100 722 l 203 722 l 203 242 b 388 67 203 129 272 67 b 572 242 503 67 572 129 l 572 722 l 675 722 l 675 242 b 388 -21 675 69 565 -21 m 182 882 l 182 1000 l 297 1000 l 297 882 m 481 882 l 481 1000 l 596 1000 l 596 882 "},"ό":{"ha":810,"x_min":0,"x_max":0,"o":"m 168 361 b 407 64 168 165 271 64 b 642 361 544 64 642 165 b 406 658 642 561 542 658 b 168 361 269 658 168 558 m 61 361 b 406 743 61 618 214 743 b 749 361 600 743 749 617 b 406 -21 749 108 603 -21 b 61 361 210 -21 61 111 m 408 1000 l 538 1000 l 449 796 l 369 796 "},"ύ":{"ha":775,"x_min":0,"x_max":0,"o":"m 374 1000 l 503 1000 l 414 796 l 335 796 m 388 -21 b 100 242 210 -21 100 69 l 100 722 l 203 722 l 203 242 b 388 67 203 129 272 67 b 572 242 503 67 572 129 l 572 722 l 675 722 l 675 242 b 388 -21 675 69 565 -21 "},"ώ":{"ha":1054,"x_min":0,"x_max":0,"o":"m 893 722 b 986 304 946 589 986 457 b 738 -21 986 76 886 -21 b 526 131 632 -21 556 32 b 313 -21 496 33 419 -21 b 68 304 164 -21 68 83 b 161 722 68 457 108 589 l 264 722 b 171 310 210 575 171 460 b 328 67 171 133 232 67 b 475 254 418 67 475 129 l 475 528 l 578 528 l 578 254 b 725 67 578 129 635 67 b 882 310 819 67 882 133 b 789 722 882 460 844 575 m 525 1000 l 654 1000 l 565 796 l 486 796 "},"Ѐ":{"ha":790,"x_min":0,"x_max":0,"o":"m 676 463 l 218 463 l 218 93 l 717 93 l 717 0 l 110 0 l 110 1000 l 717 1000 l 717 907 l 218 907 l 218 554 l 676 554 m 507 1067 l 414 1067 l 228 1257 l 364 1257 "},"Ё":{"ha":790,"x_min":0,"x_max":0,"o":"m 676 463 l 218 463 l 218 93 l 717 93 l 717 0 l 110 0 l 110 1000 l 717 1000 l 717 907 l 218 907 l 218 554 l 676 554 m 206 1118 l 206 1236 l 321 1236 l 321 1118 m 504 1118 l 504 1236 l 619 1236 l 619 1118 "},"Ђ":{"ha":1093,"x_min":0,"x_max":0,"o":"m 1014 163 b 817 -22 1014 50 951 -22 b 732 -7 792 -22 760 -17 l 732 79 b 818 67 763 72 797 67 b 904 169 874 67 904 88 l 904 340 b 663 578 904 496 821 578 b 425 360 529 578 425 497 l 425 0 l 317 0 l 317 903 l 19 903 l 19 1000 l 725 1000 l 725 903 l 425 903 l 425 556 b 679 669 478 626 567 669 b 1014 336 878 669 1014 551 "},"Ѓ":{"ha":683,"x_min":0,"x_max":0,"o":"m 664 1000 l 664 907 l 218 907 l 218 0 l 110 0 l 110 1000 m 415 1257 l 553 1257 l 367 1067 l 274 1067 "},"Є":{"ha":1006,"x_min":0,"x_max":0,"o":"m 522 -21 b 68 496 249 -21 68 172 b 528 1021 68 836 263 1021 b 944 689 756 1021 922 881 l 835 689 b 528 929 810 840 692 929 b 181 554 340 929 199 800 l 638 554 l 638 463 l 179 463 b 524 72 190 215 331 72 b 835 342 694 72 819 182 l 944 342 b 522 -21 928 147 767 -21 "},"Ѕ":{"ha":901,"x_min":0,"x_max":0,"o":"m 450 71 b 724 264 629 71 724 153 b 399 490 724 371 669 424 b 92 769 169 547 92 631 b 443 1021 92 914 217 1021 b 831 761 649 1021 801 924 l 718 761 b 444 929 697 867 600 929 b 201 775 276 929 201 863 b 475 576 201 682 246 633 b 833 268 747 507 833 424 b 451 -21 833 111 696 -21 b 54 268 240 -21 83 89 l 167 268 b 450 71 188 142 294 71 "},"І":{"ha":328,"x_min":0,"x_max":0,"o":"m 218 1000 l 218 0 l 110 0 l 110 1000 "},"Ї":{"ha":328,"x_min":0,"x_max":0,"o":"m 218 1000 l 218 0 l 110 0 l 110 1000 m -43 1118 l -43 1236 l 72 1236 l 72 1118 m 256 1118 l 256 1236 l 371 1236 l 371 1118 "},"Ј":{"ha":739,"x_min":0,"x_max":0,"o":"m 149 272 b 342 72 156 136 229 72 b 528 286 457 72 528 149 l 528 1000 l 636 1000 l 636 286 b 338 -21 636 94 526 -21 b 40 272 160 -21 46 101 "},"Љ":{"ha":1453,"x_min":0,"x_max":0,"o":"m 799 1000 l 799 629 l 1019 629 b 1393 311 1258 629 1393 515 b 1015 0 1393 115 1254 0 l 689 0 l 689 907 l 293 907 l 235 263 b 19 0 218 85 181 0 l 19 100 b 128 250 92 100 117 121 l 194 1000 m 799 539 l 799 90 l 1017 90 b 1279 311 1193 90 1279 171 b 1024 539 1279 454 1188 539 "},"Њ":{"ha":1467,"x_min":0,"x_max":0,"o":"m 701 0 l 701 501 l 218 501 l 218 0 l 110 0 l 110 1000 l 218 1000 l 218 593 l 701 593 l 701 1000 l 811 1000 l 811 593 l 1013 593 b 1406 293 1201 593 1406 536 b 1029 0 1406 111 1267 0 m 811 503 l 811 90 l 1031 90 b 1292 293 1206 90 1292 168 b 1036 503 1292 422 1200 503 "},"Ћ":{"ha":1093,"x_min":0,"x_max":0,"o":"m 317 0 l 317 903 l 19 903 l 19 1000 l 725 1000 l 725 903 l 425 903 l 425 556 b 679 669 478 626 567 669 b 1014 336 878 669 1014 551 l 1014 0 l 904 0 l 904 340 b 663 578 904 496 821 578 b 425 360 529 578 425 496 l 425 0 "},"Ќ":{"ha":851,"x_min":0,"x_max":0,"o":"m 453 1257 l 590 1257 l 404 1067 l 311 1067 m 703 0 l 342 468 l 218 468 l 218 0 l 110 0 l 110 1000 l 218 1000 l 218 560 l 346 560 l 675 1000 l 793 1000 l 429 518 l 835 0 "},"Ѝ":{"ha":975,"x_min":0,"x_max":0,"o":"m 549 1067 l 456 1067 l 269 1257 l 406 1257 m 758 1000 l 867 1000 l 867 0 l 758 0 l 758 801 l 215 54 l 215 0 l 110 0 l 110 1000 l 215 1000 l 215 199 l 758 947 "},"Ў":{"ha":797,"x_min":0,"x_max":0,"o":"m 399 1057 b 203 1213 294 1057 215 1100 l 294 1213 b 399 1129 297 1157 333 1129 b 501 1213 463 1129 499 1157 l 593 1213 b 399 1057 582 1100 501 1057 m 472 208 b 250 -21 411 58 369 -21 b 175 -10 225 -21 206 -18 l 175 79 b 240 69 207 71 224 69 b 372 235 304 69 329 107 l 335 235 l 6 1000 l 119 1000 l 407 315 l 686 1000 l 793 1000 "},"Џ":{"ha":967,"x_min":0,"x_max":0,"o":"m 532 0 l 532 -194 l 431 -194 l 431 0 l 110 0 l 110 1000 l 218 1000 l 218 93 l 747 93 l 747 1000 l 857 1000 l 857 0 "},"А":{"ha":949,"x_min":0,"x_max":0,"o":"m 822 0 l 718 268 l 226 268 l 119 0 l 6 0 l 411 1000 l 539 1000 l 943 0 m 261 358 l 682 358 l 474 892 "},"Б":{"ha":872,"x_min":0,"x_max":0,"o":"m 678 1000 l 678 907 l 218 907 l 218 629 l 440 629 b 813 311 678 629 813 515 b 435 0 813 115 674 0 l 110 0 l 110 1000 m 218 539 l 218 90 l 438 90 b 699 311 613 90 699 171 b 443 539 699 454 607 539 "},"В":{"ha":896,"x_min":0,"x_max":0,"o":"m 460 1000 b 793 743 678 1000 793 903 b 622 529 793 646 724 554 b 829 281 735 513 829 414 b 461 0 829 106 704 0 l 110 0 l 110 1000 m 218 482 l 218 90 l 478 90 b 715 281 635 90 715 158 b 483 482 715 407 632 482 m 218 915 l 218 568 l 479 568 b 683 743 614 568 683 642 b 471 915 683 851 606 915 "},"Г":{"ha":683,"x_min":0,"x_max":0,"o":"m 664 1000 l 664 907 l 218 907 l 218 0 l 110 0 l 110 1000 "},"Д":{"ha":894,"x_min":0,"x_max":0,"o":"m 786 1000 l 786 96 l 868 96 l 868 -194 l 767 -194 l 767 0 l 119 0 l 119 -194 l 18 -194 l 18 96 l 74 96 b 158 332 132 131 154 225 l 186 1000 m 263 307 b 175 96 258 203 226 135 l 676 96 l 676 907 l 288 907 l 263 307 "},"Е":{"ha":790,"x_min":0,"x_max":0,"o":"m 676 463 l 218 463 l 218 93 l 717 93 l 717 0 l 110 0 l 110 1000 l 717 1000 l 717 907 l 218 907 l 218 554 l 676 554 "},"Ж":{"ha":1204,"x_min":0,"x_max":0,"o":"m 168 1000 l 401 560 l 550 560 l 550 1000 l 654 1000 l 654 560 l 803 560 l 1036 1000 l 1151 1000 l 886 519 l 1193 0 l 1068 0 l 803 467 l 654 467 l 654 0 l 550 0 l 550 467 l 401 467 l 138 0 l 13 0 l 318 519 l 54 1000 "},"З":{"ha":842,"x_min":0,"x_max":0,"o":"m 418 -21 b 56 231 210 -21 81 76 l 169 231 b 417 67 192 124 274 67 b 663 276 572 67 663 149 b 443 481 663 400 571 481 l 346 481 l 346 571 l 439 571 b 633 757 549 571 633 649 b 413 933 633 864 550 933 b 175 776 274 933 193 874 l 63 776 b 417 1021 86 919 211 1021 b 743 765 617 1021 743 918 b 564 531 743 651 675 563 b 774 275 689 510 774 411 b 418 -21 774 100 636 -21 "},"И":{"ha":975,"x_min":0,"x_max":0,"o":"m 758 1000 l 867 1000 l 867 0 l 758 0 l 758 801 l 215 54 l 215 0 l 110 0 l 110 1000 l 215 1000 l 215 199 l 758 947 "},"Й":{"ha":975,"x_min":0,"x_max":0,"o":"m 492 1057 b 296 1213 388 1057 308 1100 l 388 1213 b 492 1129 390 1157 426 1129 b 594 1213 556 1129 592 1157 l 686 1213 b 492 1057 675 1100 594 1057 m 758 1000 l 867 1000 l 867 0 l 758 0 l 758 801 l 215 54 l 215 0 l 110 0 l 110 1000 l 215 1000 l 215 199 l 758 947 "},"К":{"ha":851,"x_min":0,"x_max":0,"o":"m 703 0 l 342 468 l 218 468 l 218 0 l 110 0 l 110 1000 l 218 1000 l 218 560 l 346 560 l 675 1000 l 793 1000 l 429 518 l 835 0 "},"Л":{"ha":913,"x_min":0,"x_max":0,"o":"m 804 0 l 694 0 l 694 907 l 296 907 l 239 272 b 19 0 222 86 182 0 l 19 100 b 124 207 82 100 115 114 l 194 1000 l 804 1000 "},"М":{"ha":1189,"x_min":0,"x_max":0,"o":"m 551 0 l 215 842 l 215 0 l 110 0 l 110 1000 l 264 1000 l 608 124 l 932 1000 l 1079 1000 l 1079 0 l 976 0 l 976 835 l 660 0 "},"Н":{"ha":967,"x_min":0,"x_max":0,"o":"m 857 1000 l 857 0 l 747 0 l 747 461 l 218 461 l 218 0 l 110 0 l 110 1000 l 218 1000 l 218 554 l 747 554 l 747 1000 "},"О":{"ha":1060,"x_min":0,"x_max":0,"o":"m 531 69 b 881 500 729 69 881 213 b 531 931 881 781 733 931 b 179 500 326 931 179 781 b 531 69 179 215 331 69 m 531 -21 b 68 500 264 -21 68 168 b 531 1021 68 836 275 1021 b 993 500 788 1021 993 840 b 531 -21 993 165 790 -21 "},"П":{"ha":967,"x_min":0,"x_max":0,"o":"m 857 1000 l 857 0 l 747 0 l 747 907 l 218 907 l 218 0 l 110 0 l 110 1000 "},"Р":{"ha":872,"x_min":0,"x_max":0,"o":"m 440 1000 b 813 681 678 1000 813 885 b 435 371 813 485 674 371 l 218 371 l 218 0 l 110 0 l 110 1000 m 218 910 l 218 461 l 438 461 b 699 681 613 461 699 542 b 443 910 699 825 607 910 "},"С":{"ha":1006,"x_min":0,"x_max":0,"o":"m 522 -21 b 68 496 249 -21 68 172 b 528 1021 68 836 263 1021 b 944 689 756 1021 922 881 l 835 689 b 528 929 810 840 692 929 b 179 496 326 929 179 782 b 524 72 179 228 324 72 b 835 342 694 72 819 182 l 944 342 b 522 -21 928 147 767 -21 "},"Т":{"ha":818,"x_min":0,"x_max":0,"o":"m 799 903 l 463 903 l 463 0 l 353 0 l 353 903 l 19 903 l 19 1000 l 799 1000 "},"У":{"ha":797,"x_min":0,"x_max":0,"o":"m 472 208 b 250 -21 411 58 369 -21 b 175 -10 225 -21 206 -18 l 175 79 b 240 69 207 71 224 69 b 372 235 304 69 329 107 l 335 235 l 6 1000 l 119 1000 l 407 315 l 686 1000 l 793 1000 "},"Ф":{"ha":1146,"x_min":0,"x_max":0,"o":"m 628 1021 l 628 968 b 1079 500 878 963 1079 806 b 628 32 1079 204 886 36 l 628 -21 l 518 -21 l 518 32 b 68 500 258 36 68 204 b 518 968 68 806 268 963 l 518 1021 m 968 500 b 628 878 968 750 832 874 l 628 122 b 968 500 821 126 968 244 m 179 500 b 518 122 179 244 325 126 l 518 878 b 179 500 314 874 179 750 "},"Х":{"ha":878,"x_min":0,"x_max":0,"o":"m 501 519 l 858 0 l 728 0 l 440 431 l 143 0 l 19 0 l 378 518 l 44 1000 l 174 1000 l 444 603 l 724 1000 l 847 1000 "},"Ц":{"ha":967,"x_min":0,"x_max":0,"o":"m 110 1000 l 218 1000 l 218 93 l 747 93 l 747 1000 l 857 1000 l 857 93 l 940 93 l 940 -194 l 839 -194 l 839 0 l 110 0 "},"Ч":{"ha":894,"x_min":0,"x_max":0,"o":"m 786 1000 l 786 0 l 676 0 l 676 458 b 413 331 622 372 531 331 b 89 664 214 331 89 442 l 89 1000 l 197 1000 l 197 660 b 440 422 197 500 278 422 b 676 657 581 422 676 517 l 676 1000 "},"Ш":{"ha":1354,"x_min":0,"x_max":0,"o":"m 1244 1000 l 1244 0 l 110 0 l 110 1000 l 218 1000 l 218 96 l 624 96 l 624 1000 l 729 1000 l 729 96 l 1136 96 l 1136 1000 "},"Щ":{"ha":1354,"x_min":0,"x_max":0,"o":"m 1244 1000 l 1244 93 l 1328 93 l 1328 -194 l 1226 -194 l 1226 0 l 110 0 l 110 1000 l 218 1000 l 218 96 l 624 96 l 624 1000 l 729 1000 l 729 96 l 1136 96 l 1136 1000 "},"Ъ":{"ha":1113,"x_min":0,"x_max":0,"o":"m 14 1000 l 458 1000 l 458 629 l 681 629 b 1053 311 918 629 1053 515 b 675 0 1053 115 914 0 l 350 0 l 350 907 l 14 907 m 458 539 l 458 90 l 678 90 b 939 311 853 90 939 171 b 683 539 939 454 847 539 "},"Ы":{"ha":1128,"x_min":0,"x_max":0,"o":"m 1019 1000 l 1019 0 l 911 0 l 911 1000 m 218 1000 l 218 629 l 440 629 b 813 311 678 629 813 515 b 435 0 813 115 674 0 l 110 0 l 110 1000 m 218 539 l 218 90 l 438 90 b 699 311 613 90 699 171 b 443 539 699 454 607 539 "},"Ь":{"ha":872,"x_min":0,"x_max":0,"o":"m 218 1000 l 218 629 l 440 629 b 813 311 678 629 813 515 b 435 0 813 115 674 0 l 110 0 l 110 1000 m 218 539 l 218 90 l 438 90 b 699 311 613 90 699 171 b 443 539 699 454 607 539 "},"Э":{"ha":1006,"x_min":0,"x_max":0,"o":"m 493 -21 b 61 342 238 -21 78 144 l 172 342 b 493 72 186 182 310 72 b 825 463 686 72 814 217 l 368 463 l 368 554 l 824 554 b 488 929 808 803 676 929 b 171 689 322 929 196 840 l 61 689 b 488 1021 82 883 257 1021 b 938 504 754 1021 938 840 b 493 -21 938 185 768 -21 "},"Ю":{"ha":1408,"x_min":0,"x_max":0,"o":"m 893 -21 b 444 461 650 -21 460 153 l 215 461 l 215 0 l 107 0 l 107 1000 l 215 1000 l 215 554 l 446 554 b 893 1021 467 863 664 1021 b 1342 500 1136 1021 1342 840 b 893 -21 1342 160 1139 -21 m 893 69 b 1229 500 1078 69 1229 207 b 893 931 1229 781 1082 931 b 556 500 696 931 556 779 b 893 69 556 215 707 69 "},"Я":{"ha":901,"x_min":0,"x_max":0,"o":"m 19 0 l 293 413 b 90 692 189 447 90 529 b 425 1000 90 900 232 1000 l 792 1000 l 792 0 l 683 0 l 683 396 l 407 396 l 147 0 m 201 692 b 418 486 201 558 292 486 l 683 486 l 683 910 l 421 910 b 201 692 281 910 201 824 "},"а":{"ha":749,"x_min":0,"x_max":0,"o":"m 78 528 b 372 743 90 657 203 743 b 654 500 547 743 654 647 l 654 0 l 569 0 l 557 110 b 307 -21 511 39 429 -21 b 61 185 157 -21 61 61 b 336 421 61 313 138 388 l 551 457 l 551 507 b 368 661 551 603 483 661 b 186 528 258 661 196 608 m 551 375 l 364 343 b 169 194 213 317 169 269 b 332 67 169 111 232 67 b 551 261 440 67 551 149 "},"б":{"ha":803,"x_min":0,"x_max":0,"o":"m 169 331 b 404 64 169 168 272 64 b 635 335 539 64 635 172 b 408 597 635 494 543 597 b 169 331 275 597 169 497 m 163 532 b 424 682 211 625 308 682 b 742 335 597 682 742 550 b 403 -21 742 122 593 -21 b 61 407 190 -21 61 117 b 349 910 61 704 146 864 b 522 1000 454 935 522 954 l 640 1000 b 375 836 640 913 553 885 b 163 532 228 796 189 715 "},"в":{"ha":708,"x_min":0,"x_max":0,"o":"m 103 0 l 103 722 l 378 722 b 632 540 544 722 632 658 b 493 379 632 464 582 404 b 657 204 590 358 657 296 b 381 0 657 71 553 0 m 379 86 b 551 206 485 86 551 118 b 394 332 551 285 483 332 l 206 332 l 206 86 l 379 86 m 528 535 b 375 636 528 604 481 636 l 206 636 l 206 418 l 378 418 b 528 535 467 418 528 463 "},"г":{"ha":540,"x_min":0,"x_max":0,"o":"m 103 0 l 103 722 l 517 722 l 517 633 l 206 633 l 206 0 "},"д":{"ha":774,"x_min":0,"x_max":0,"o":"m 93 89 b 143 247 125 117 138 139 l 168 722 l 671 722 l 671 89 l 736 89 l 736 -194 l 639 -194 l 639 0 l 119 0 l 119 -194 l 24 -194 l 24 89 m 243 228 b 183 89 240 158 215 118 l 568 89 l 568 633 l 265 633 l 243 228 "},"е":{"ha":799,"x_min":0,"x_max":0,"o":"m 721 203 b 408 -21 685 71 572 -21 b 61 361 208 -21 61 111 b 399 743 61 611 206 743 b 731 338 590 743 731 621 l 167 338 b 413 67 175 151 279 67 b 610 203 510 67 586 121 m 400 660 b 169 421 281 660 186 579 l 625 421 b 400 660 615 581 524 660 "},"ж":{"ha":1006,"x_min":0,"x_max":0,"o":"m 157 722 l 350 426 l 449 426 l 449 722 l 547 722 l 547 426 l 654 426 l 847 722 l 963 722 l 740 388 l 1007 0 l 885 0 l 656 338 l 547 338 l 547 0 l 449 0 l 449 338 l 350 338 l 121 0 l -1 0 l 264 388 l 42 722 "},"з":{"ha":707,"x_min":0,"x_max":0,"o":"m 363 660 b 171 515 258 660 189 604 l 58 515 b 361 743 82 656 199 743 b 631 544 533 743 631 661 b 488 379 631 465 578 404 b 656 200 583 360 656 294 b 361 -21 656 74 553 -21 b 54 222 179 -21 75 85 l 165 222 b 363 65 181 126 246 65 b 550 200 478 65 550 113 b 367 329 550 278 474 329 l 292 329 l 292 419 l 364 419 b 526 539 461 419 526 464 b 363 660 526 611 469 660 "},"и":{"ha":778,"x_min":0,"x_max":0,"o":"m 103 0 l 103 722 l 204 722 l 204 181 l 574 685 l 574 722 l 675 722 l 675 0 l 574 0 l 574 542 l 204 38 l 204 0 "},"й":{"ha":778,"x_min":0,"x_max":0,"o":"m 393 821 b 197 976 289 821 210 864 l 289 976 b 393 893 292 921 328 893 b 496 976 457 893 493 921 l 588 976 b 393 821 576 864 496 821 m 103 0 l 103 722 l 204 722 l 204 181 l 574 685 l 574 722 l 675 722 l 675 0 l 574 0 l 574 542 l 204 38 l 204 0 "},"к":{"ha":699,"x_min":0,"x_max":0,"o":"m 103 0 l 103 722 l 206 722 l 206 426 l 271 426 l 533 722 l 658 722 l 353 386 l 701 0 l 568 0 l 263 338 l 206 338 l 206 0 "},"л":{"ha":750,"x_min":0,"x_max":0,"o":"m 544 0 l 544 633 l 243 633 l 210 254 b 19 0 194 83 156 0 l 19 93 b 110 239 79 93 99 108 l 151 722 l 647 722 l 647 0 "},"м":{"ha":938,"x_min":0,"x_max":0,"o":"m 425 0 l 200 579 l 200 0 l 103 0 l 103 722 l 253 722 l 476 135 l 685 722 l 836 722 l 836 0 l 736 0 l 736 569 l 525 0 "},"н":{"ha":785,"x_min":0,"x_max":0,"o":"m 103 0 l 103 722 l 206 722 l 206 426 l 579 426 l 579 722 l 682 722 l 682 0 l 579 0 l 579 338 l 206 338 l 206 0 "},"о":{"ha":810,"x_min":0,"x_max":0,"o":"m 168 361 b 407 64 168 165 271 64 b 642 361 544 64 642 165 b 406 658 642 561 542 658 b 168 361 269 658 168 558 m 61 361 b 406 743 61 618 214 743 b 749 361 600 743 749 617 b 406 -21 749 108 603 -21 b 61 361 210 -21 61 111 "},"п":{"ha":785,"x_min":0,"x_max":0,"o":"m 103 0 l 103 722 l 682 722 l 682 0 l 579 0 l 579 633 l 206 633 l 206 0 "},"р":{"ha":825,"x_min":0,"x_max":0,"o":"m 188 722 l 203 607 b 454 743 251 686 338 743 b 765 368 638 743 765 613 b 444 -21 765 115 628 -21 b 206 111 332 -21 250 33 l 206 -250 l 103 -250 l 103 722 m 657 371 b 431 656 657 565 561 656 b 199 365 310 656 199 568 b 429 67 199 171 294 67 b 657 371 561 67 657 163 "},"с":{"ha":760,"x_min":0,"x_max":0,"o":"m 699 222 b 392 -21 678 85 561 -21 b 61 356 206 -21 61 110 b 392 743 61 604 200 743 b 694 515 551 743 671 656 l 581 515 b 394 656 563 604 492 656 b 169 351 265 656 169 560 b 394 67 169 157 271 67 b 588 222 496 67 572 126 "},"т":{"ha":663,"x_min":0,"x_max":0,"o":"m 279 0 l 279 633 l 21 633 l 21 722 l 642 722 l 642 633 l 383 633 l 383 0 "},"у":{"ha":701,"x_min":0,"x_max":0,"o":"m 429 -8 b 210 -271 367 -186 328 -271 b 129 -258 183 -271 161 -267 l 129 -174 b 200 -185 156 -181 178 -185 b 331 0 263 -185 283 -136 l 294 0 l 19 722 l 131 722 l 361 82 l 579 722 l 683 722 "},"ф":{"ha":1179,"x_min":0,"x_max":0,"o":"m 642 1000 l 642 621 b 849 743 682 692 753 743 b 1118 368 1006 743 1118 613 b 840 -21 1118 115 996 -21 b 642 99 746 -21 679 28 l 642 -250 l 538 -250 l 538 99 b 339 -21 499 28 432 -21 b 61 368 183 -21 61 115 b 331 743 61 613 174 743 b 538 621 426 743 496 692 l 538 1000 m 1011 371 b 826 656 1011 565 928 656 b 636 365 725 656 636 568 b 825 67 636 171 708 67 b 1011 371 929 67 1011 163 m 168 371 b 354 67 168 163 250 67 b 543 365 471 67 543 171 b 353 656 543 568 454 656 b 168 371 251 656 168 565 "},"х":{"ha":722,"x_min":0,"x_max":0,"o":"m 415 383 l 703 0 l 576 0 l 356 303 l 140 0 l 19 0 l 294 376 l 35 722 l 160 722 l 357 457 l 543 722 l 661 722 "},"ц":{"ha":785,"x_min":0,"x_max":0,"o":"m 682 722 l 682 89 l 747 89 l 747 -194 l 650 -194 l 650 0 l 103 0 l 103 722 l 206 722 l 206 89 l 579 89 l 579 722 "},"ч":{"ha":769,"x_min":0,"x_max":0,"o":"m 196 722 l 196 447 b 367 274 196 329 261 274 b 564 481 486 274 564 368 l 564 722 l 667 722 l 667 0 l 564 0 l 564 297 b 343 185 513 221 428 185 b 93 447 197 185 93 271 l 93 722 "},"ш":{"ha":1122,"x_min":0,"x_max":0,"o":"m 1019 722 l 1019 0 l 103 0 l 103 722 l 206 722 l 206 89 l 510 89 l 510 722 l 613 722 l 613 89 l 917 89 l 917 722 "},"щ":{"ha":1122,"x_min":0,"x_max":0,"o":"m 1019 722 l 1019 89 l 1083 89 l 1083 -194 l 988 -194 l 988 0 l 103 0 l 103 722 l 206 722 l 206 89 l 510 89 l 510 722 l 613 722 l 613 89 l 917 89 l 917 722 "},"ъ":{"ha":864,"x_min":0,"x_max":0,"o":"m 358 722 l 358 489 l 508 489 b 807 250 704 489 807 386 b 494 0 807 96 696 0 l 254 0 l 254 633 l 14 633 l 14 722 m 358 407 l 358 82 l 492 82 b 700 249 633 82 700 143 b 499 407 700 344 639 407 "},"ы":{"ha":931,"x_min":0,"x_max":0,"o":"m 724 0 l 724 722 l 828 722 l 828 0 m 206 722 l 206 489 l 356 489 b 656 250 551 489 656 386 b 342 0 656 96 543 0 l 103 0 l 103 722 m 206 407 l 206 82 l 339 82 b 547 249 481 82 547 143 b 346 407 547 344 486 407 "},"ь":{"ha":715,"x_min":0,"x_max":0,"o":"m 206 722 l 206 489 l 356 489 b 656 250 551 489 656 386 b 342 0 656 96 543 0 l 103 0 l 103 722 m 206 407 l 206 82 l 339 82 b 547 249 481 82 547 143 b 346 407 547 344 486 407 "},"э":{"ha":760,"x_min":0,"x_max":0,"o":"m 172 222 b 375 67 188 126 272 67 b 589 331 494 67 582 150 l 313 331 l 313 414 l 588 414 b 378 656 572 579 493 656 b 179 515 275 656 197 604 l 65 515 b 381 743 89 656 215 743 b 699 356 572 743 699 604 b 376 -21 699 111 564 -21 b 61 222 206 -21 82 85 "},"ю":{"ha":1093,"x_min":0,"x_max":0,"o":"m 103 0 l 103 722 l 206 722 l 206 426 l 376 426 b 704 743 399 639 535 743 b 1033 361 890 743 1033 617 b 704 -21 1033 108 894 -21 b 372 338 521 -21 382 103 l 206 338 l 206 0 m 479 361 b 704 64 479 165 576 64 b 926 361 836 64 926 165 b 704 658 926 561 833 658 b 479 361 575 658 479 558 "},"я":{"ha":738,"x_min":0,"x_max":0,"o":"m 19 0 l 240 282 b 81 490 150 306 81 383 b 360 722 81 640 190 722 l 636 722 l 636 0 l 532 0 l 532 274 l 357 274 l 139 0 m 532 363 l 532 642 l 367 642 b 188 494 242 642 188 585 b 324 363 188 413 242 363 "},"ѐ":{"ha":799,"x_min":0,"x_max":0,"o":"m 721 203 b 408 -21 685 71 572 -21 b 61 361 208 -21 61 111 b 399 743 61 611 206 743 b 731 338 590 743 731 621 l 167 338 b 413 67 175 151 279 67 b 610 203 510 67 586 121 m 400 660 b 169 421 281 660 186 579 l 625 421 b 400 660 615 581 524 660 m 479 831 l 386 831 l 200 1021 l 336 1021 "},"ё":{"ha":799,"x_min":0,"x_max":0,"o":"m 721 203 b 408 -21 685 71 572 -21 b 61 361 208 -21 61 111 b 399 743 61 611 206 743 b 731 338 590 743 731 621 l 167 338 b 413 67 175 151 279 67 b 610 203 510 67 586 121 m 400 660 b 169 421 281 660 186 579 l 625 421 b 400 660 615 581 524 660 m 190 882 l 190 1000 l 306 1000 l 306 882 m 489 882 l 489 1000 l 604 1000 l 604 882 "},"ђ":{"ha":797,"x_min":0,"x_max":0,"o":"m 701 -89 b 511 -271 701 -201 646 -271 b 426 -256 486 -271 454 -265 l 426 -169 b 513 -182 457 -176 492 -182 b 599 -79 568 -182 599 -161 l 599 479 b 425 656 599 594 535 656 b 225 447 324 656 225 575 l 225 0 l 122 0 l 122 828 l 26 828 l 26 917 l 122 917 l 122 1000 l 225 1000 l 225 917 l 415 917 l 415 828 l 225 828 l 225 621 b 449 743 275 701 360 743 b 701 482 604 743 701 647 "},"ѓ":{"ha":540,"x_min":0,"x_max":0,"o":"m 343 1021 l 481 1021 l 294 831 l 201 831 m 103 0 l 103 722 l 517 722 l 517 633 l 206 633 l 206 0 "},"є":{"ha":760,"x_min":0,"x_max":0,"o":"m 699 222 b 392 -21 678 85 561 -21 b 61 356 206 -21 61 110 b 392 743 61 604 200 743 b 694 515 551 743 671 656 l 581 515 b 394 656 563 604 492 656 b 172 414 278 656 189 579 l 447 414 l 447 331 l 169 331 b 394 67 176 150 275 67 b 588 222 496 67 572 126 "},"ѕ":{"ha":700,"x_min":0,"x_max":0,"o":"m 533 193 b 310 340 533 282 457 311 b 74 544 153 372 74 435 b 346 743 74 660 167 743 b 635 538 501 743 613 664 l 529 538 b 343 661 515 611 447 661 b 179 554 231 661 179 613 b 364 425 179 486 218 454 b 639 200 542 389 639 336 b 347 -21 639 76 532 -21 b 47 199 172 -21 61 67 l 153 199 b 349 63 167 110 236 63 b 533 193 469 63 533 122 "},"і":{"ha":301,"x_min":0,"x_max":0,"o":"m 99 0 l 99 722 l 203 722 l 203 0 m 92 871 l 92 1000 l 210 1000 l 210 871 "},"ї":{"ha":301,"x_min":0,"x_max":0,"o":"m -56 882 l -56 1000 l 60 1000 l 60 882 m 243 882 l 243 1000 l 358 1000 l 358 882 m 99 0 l 99 722 l 203 722 l 203 0 "},"ј":{"ha":301,"x_min":0,"x_max":0,"o":"m -74 -168 b 13 -182 -43 -176 -8 -182 b 99 -79 74 -182 99 -157 l 99 722 l 203 722 l 203 -85 b 29 -271 203 -199 140 -271 b -74 -254 -1 -271 -39 -265 m 92 871 l 92 1000 l 210 1000 l 210 871 "},"љ":{"ha":1133,"x_min":0,"x_max":0,"o":"m 624 722 l 624 489 l 774 489 b 1074 250 969 489 1074 386 b 760 0 1074 96 961 0 l 521 0 l 521 633 l 244 633 l 208 207 b 19 0 197 78 153 0 l 19 93 b 107 199 64 93 99 100 l 151 722 m 624 407 l 624 82 l 757 82 b 965 249 899 82 965 143 b 764 407 965 344 906 407 "},"њ":{"ha":1160,"x_min":0,"x_max":0,"o":"m 103 0 l 103 722 l 206 722 l 206 426 l 546 426 l 546 722 l 650 722 l 650 489 l 800 489 b 1099 250 996 489 1099 386 b 786 0 1099 96 988 0 l 546 0 l 546 338 l 206 338 l 206 0 m 650 407 l 650 82 l 782 82 b 992 249 924 82 992 143 b 789 407 992 344 931 407 "},"ћ":{"ha":797,"x_min":0,"x_max":0,"o":"m 122 0 l 122 828 l 26 828 l 26 917 l 122 917 l 122 1000 l 225 1000 l 225 917 l 415 917 l 415 828 l 225 828 l 225 621 b 449 743 275 701 360 743 b 701 482 604 743 701 647 l 701 0 l 599 0 l 599 479 b 425 656 599 594 535 656 b 225 446 324 656 225 575 l 225 0 "},"ќ":{"ha":699,"x_min":0,"x_max":0,"o":"m 403 1021 l 540 1021 l 354 831 l 261 831 m 103 0 l 103 722 l 206 722 l 206 426 l 271 426 l 533 722 l 658 722 l 353 386 l 701 0 l 568 0 l 263 338 l 206 338 l 206 0 "},"ѝ":{"ha":778,"x_min":0,"x_max":0,"o":"m 464 831 l 371 831 l 185 1021 l 321 1021 m 103 0 l 103 722 l 204 722 l 204 181 l 574 685 l 574 722 l 675 722 l 675 0 l 574 0 l 574 542 l 204 38 l 204 0 "},"ў":{"ha":701,"x_min":0,"x_max":0,"o":"m 429 -8 b 210 -271 367 -186 328 -271 b 129 -258 183 -271 161 -267 l 129 -174 b 200 -185 156 -181 178 -185 b 331 0 263 -185 283 -136 l 294 0 l 19 722 l 131 722 l 361 82 l 579 722 l 683 722 m 354 821 b 158 976 250 821 171 864 l 250 976 b 354 893 253 921 289 893 b 457 976 418 893 454 921 l 549 976 b 354 821 538 864 457 821 "},"џ":{"ha":785,"x_min":0,"x_max":0,"o":"m 682 722 l 682 0 l 440 0 l 440 -194 l 344 -194 l 344 0 l 103 0 l 103 722 l 206 722 l 206 90 l 579 90 l 579 722 "},"Ѣ":{"ha":1081,"x_min":0,"x_max":0,"o":"m 317 0 l 317 903 l 19 903 l 19 1000 l 725 1000 l 725 903 l 425 903 l 425 629 l 613 629 b 1019 311 838 629 1019 561 b 642 0 1019 115 881 0 m 425 539 l 425 90 l 644 90 b 906 311 819 90 906 171 b 650 539 906 454 814 539 "},"ѣ":{"ha":715,"x_min":0,"x_max":0,"o":"m 206 689 l 206 489 l 356 489 b 656 250 551 489 656 386 b 342 0 656 96 543 0 l 103 0 l 103 689 l -1 689 l -1 778 l 103 778 l 103 914 l 206 914 l 206 778 l 367 778 l 367 689 m 206 407 l 206 82 l 339 82 b 547 249 481 82 547 143 b 346 407 547 344 486 407 "},"Ѳ":{"ha":1060,"x_min":0,"x_max":0,"o":"m 531 -21 b 68 500 264 -21 68 168 b 531 1021 68 836 275 1021 b 993 500 788 1021 993 840 b 531 -21 993 165 790 -21 m 531 69 b 881 464 719 69 868 200 l 179 464 b 531 69 192 203 340 69 m 531 931 b 181 556 340 931 199 800 l 878 556 b 531 931 860 800 719 931 "},"ѳ":{"ha":810,"x_min":0,"x_max":0,"o":"m 61 361 b 406 743 61 618 214 743 b 749 361 600 743 749 617 b 406 -21 749 108 603 -21 b 61 361 210 -21 61 111 m 407 64 b 640 325 536 64 629 151 l 169 325 b 407 64 181 151 281 64 m 406 658 b 169 408 281 658 185 574 l 639 408 b 406 658 625 575 529 658 "},"Ѵ":{"ha":885,"x_min":0,"x_max":0,"o":"m 119 1000 l 444 100 l 772 1000 l 879 1000 l 514 0 l 374 0 l 6 1000 "},"ѵ":{"ha":701,"x_min":0,"x_max":0,"o":"m 683 722 l 419 0 l 281 0 l 19 722 l 132 722 l 353 85 l 575 722 "},"Ґ":{"ha":683,"x_min":0,"x_max":0,"o":"m 563 1000 l 563 1194 l 664 1194 l 664 907 l 218 907 l 218 0 l 110 0 l 110 1000 "},"ґ":{"ha":540,"x_min":0,"x_max":0,"o":"m 103 0 l 103 722 l 421 722 l 421 903 l 517 903 l 517 633 l 206 633 l 206 0 "},"Ғ":{"ha":683,"x_min":0,"x_max":0,"o":"m 664 907 l 218 907 l 218 554 l 497 554 l 497 463 l 218 463 l 218 0 l 110 0 l 110 463 l -15 463 l -15 554 l 110 554 l 110 1000 l 664 1000 "},"ғ":{"ha":540,"x_min":0,"x_max":0,"o":"m 206 633 l 206 426 l 408 426 l 408 338 l 206 338 l 206 0 l 103 0 l 103 338 l 33 338 l 33 426 l 103 426 l 103 722 l 517 722 l 517 633 "},"Җ":{"ha":1203,"x_min":0,"x_max":0,"o":"m 168 1000 l 401 560 l 550 560 l 550 1000 l 654 1000 l 654 560 l 803 560 l 1036 1000 l 1151 1000 l 886 519 l 1139 93 l 1226 93 l 1226 -194 l 1125 -194 l 1125 0 l 1068 0 l 803 467 l 654 467 l 654 0 l 550 0 l 550 467 l 401 467 l 138 0 l 13 0 l 318 519 l 54 1000 "},"җ":{"ha":1011,"x_min":0,"x_max":0,"o":"m 157 722 l 350 426 l 449 426 l 449 722 l 547 722 l 547 426 l 654 426 l 847 722 l 963 722 l 740 388 l 947 89 l 1036 89 l 1036 -194 l 939 -194 l 939 0 l 885 0 l 656 338 l 547 338 l 547 0 l 449 0 l 449 338 l 350 338 l 121 0 l -1 0 l 264 388 l 42 722 "},"Ҙ":{"ha":842,"x_min":0,"x_max":0,"o":"m 594 -196 b 426 -340 594 -279 525 -340 b 256 -210 339 -340 268 -294 l 339 -210 b 428 -272 343 -244 376 -272 b 513 -197 479 -272 513 -243 b 372 -119 513 -149 475 -119 l 381 -19 b 56 231 196 -8 79 86 l 169 231 b 417 67 192 124 274 67 b 663 276 572 67 663 149 b 443 481 663 400 571 481 l 346 481 l 346 571 l 439 571 b 633 757 549 571 633 649 b 413 933 633 864 550 933 b 175 776 274 933 193 874 l 63 776 b 417 1021 86 919 211 1021 b 743 765 617 1021 743 918 b 564 531 743 651 675 563 b 774 275 689 510 774 411 b 458 -19 774 111 653 -6 l 458 -64 b 594 -196 547 -78 594 -124 "},"ҙ":{"ha":707,"x_min":0,"x_max":0,"o":"m 543 -196 b 375 -340 543 -279 474 -340 b 204 -210 288 -340 217 -294 l 288 -210 b 376 -272 292 -244 325 -272 b 463 -197 428 -272 463 -243 b 321 -119 463 -149 424 -119 l 329 -19 b 54 222 167 -7 74 92 l 165 222 b 363 65 181 126 246 65 b 550 200 478 65 550 113 b 367 329 550 278 474 329 l 292 329 l 292 419 l 364 419 b 526 539 461 419 526 464 b 363 660 526 611 469 660 b 171 515 258 660 189 604 l 58 515 b 361 743 82 656 199 743 b 631 544 533 743 631 661 b 488 379 631 465 578 404 b 656 200 583 360 656 294 b 407 -19 656 82 568 -6 l 407 -64 b 543 -196 496 -78 543 -124 "},"Қ":{"ha":851,"x_min":0,"x_max":0,"o":"m 793 1000 l 429 518 l 767 93 l 847 93 l 847 -194 l 746 -194 l 746 0 l 703 0 l 342 468 l 218 468 l 218 0 l 110 0 l 110 1000 l 218 1000 l 218 560 l 346 560 l 675 1000 "},"қ":{"ha":704,"x_min":0,"x_max":0,"o":"m 103 0 l 103 722 l 206 722 l 206 426 l 271 426 l 533 722 l 658 722 l 353 386 l 621 89 l 719 89 l 719 -194 l 622 -194 l 622 0 l 567 0 l 263 338 l 206 338 l 206 0 "},"Ҝ":{"ha":885,"x_min":0,"x_max":0,"o":"m 279 114 l 279 468 l 218 468 l 218 0 l 110 0 l 110 1000 l 218 1000 l 218 560 l 279 560 l 279 821 l 361 821 l 361 560 l 379 560 l 703 1000 l 819 1000 l 461 521 l 868 0 l 736 0 l 383 468 l 361 468 l 361 114 "},"ҝ":{"ha":747,"x_min":0,"x_max":0,"o":"m 317 557 l 317 426 l 322 426 l 578 722 l 706 722 l 415 394 l 749 0 l 613 0 l 326 338 l 317 338 l 317 74 l 240 74 l 240 338 l 206 338 l 206 0 l 103 0 l 103 722 l 206 722 l 206 426 l 240 426 l 240 557 "},"Ҡ":{"ha":1083,"x_min":0,"x_max":0,"o":"m 936 0 l 574 468 l 450 468 l 450 0 l 342 0 l 342 907 l 6 907 l 6 1000 l 450 1000 l 450 560 l 579 560 l 907 1000 l 1025 1000 l 661 518 l 1068 0 "},"ҡ":{"ha":851,"x_min":0,"x_max":0,"o":"m 254 0 l 254 633 l 14 633 l 14 722 l 358 722 l 358 426 l 422 426 l 685 722 l 810 722 l 506 386 l 854 0 l 719 0 l 415 338 l 358 338 l 358 0 "},"Ң":{"ha":967,"x_min":0,"x_max":0,"o":"m 857 1000 l 857 93 l 940 93 l 940 -194 l 839 -194 l 839 0 l 747 0 l 747 461 l 218 461 l 218 0 l 110 0 l 110 1000 l 218 1000 l 218 554 l 747 554 l 747 1000 "},"ң":{"ha":785,"x_min":0,"x_max":0,"o":"m 103 0 l 103 722 l 206 722 l 206 426 l 579 426 l 579 722 l 682 722 l 682 89 l 747 89 l 747 -194 l 650 -194 l 650 0 l 579 0 l 579 338 l 206 338 l 206 0 "},"Ҫ":{"ha":1006,"x_min":0,"x_max":0,"o":"m 778 -207 b 601 -337 754 -289 686 -337 b 432 -193 503 -337 432 -282 b 544 -19 432 -129 475 -65 b 68 496 228 -19 68 194 b 528 1021 68 836 263 1021 b 944 689 756 1021 922 881 l 835 689 b 528 929 810 840 692 929 b 179 496 326 929 179 782 b 524 72 179 228 324 72 b 835 342 694 72 819 182 l 944 342 b 724 24 933 208 851 86 b 517 -178 631 -22 517 -92 b 606 -265 517 -236 551 -265 b 692 -207 654 -265 682 -240 "},"ҫ":{"ha":760,"x_min":0,"x_max":0,"o":"m 617 -207 b 439 -337 593 -289 524 -337 b 269 -193 340 -337 269 -282 b 382 -19 269 -129 313 -65 b 61 356 199 -14 61 111 b 392 743 61 604 200 743 b 694 515 551 743 671 656 l 581 515 b 394 656 563 604 492 656 b 169 351 265 656 169 560 b 394 67 169 157 271 67 b 588 222 496 67 572 126 l 699 222 b 524 3 685 131 633 53 b 354 -178 444 -32 354 -106 b 444 -265 354 -236 390 -265 b 529 -207 493 -265 519 -240 "},"Ү":{"ha":869,"x_min":0,"x_max":0,"o":"m 125 1000 l 435 490 l 753 1000 l 864 1000 l 489 394 l 489 0 l 381 0 l 381 396 l 6 1000 "},"ү":{"ha":701,"x_min":0,"x_max":0,"o":"m 297 -250 l 297 0 l 19 722 l 131 722 l 351 100 l 575 722 l 683 722 l 401 0 l 401 -250 "},"Ұ":{"ha":869,"x_min":0,"x_max":0,"o":"m 125 1000 l 435 490 l 753 1000 l 864 1000 l 535 471 l 683 471 l 683 381 l 489 381 l 489 0 l 381 0 l 381 381 l 185 381 l 185 471 l 333 471 l 6 1000 "},"ұ":{"ha":701,"x_min":0,"x_max":0,"o":"m 683 722 l 435 89 l 553 89 l 553 0 l 401 0 l 401 -250 l 297 -250 l 297 0 l 149 0 l 149 89 l 264 89 l 19 722 l 131 722 l 351 100 l 575 722 "},"Ҳ":{"ha":876,"x_min":0,"x_max":0,"o":"m 501 519 l 794 93 l 879 93 l 879 -194 l 778 -194 l 778 0 l 728 0 l 440 431 l 143 0 l 19 0 l 378 518 l 44 1000 l 174 1000 l 444 603 l 724 1000 l 847 1000 "},"ҳ":{"ha":722,"x_min":0,"x_max":0,"o":"m 415 383 l 636 89 l 733 89 l 733 -194 l 636 -194 l 636 0 l 576 0 l 356 303 l 140 0 l 19 0 l 294 376 l 35 722 l 160 722 l 357 457 l 543 722 l 661 722 "},"Ҹ":{"ha":894,"x_min":0,"x_max":0,"o":"m 406 114 l 406 331 b 89 664 211 332 89 444 l 89 1000 l 197 1000 l 197 714 b 406 422 197 529 243 438 l 406 821 l 488 821 l 488 426 b 676 656 601 444 676 533 l 676 1000 l 786 1000 l 786 0 l 676 0 l 676 458 b 488 338 636 392 569 351 l 488 114 "},"ҹ":{"ha":769,"x_min":0,"x_max":0,"o":"m 418 557 l 418 279 b 564 486 508 301 564 386 l 564 722 l 667 722 l 667 0 l 564 0 l 564 297 b 418 194 528 242 474 210 l 418 74 l 340 74 l 340 185 b 93 447 196 186 93 271 l 93 722 l 196 722 l 196 447 b 340 274 196 339 250 283 l 340 557 "},"Һ":{"ha":886,"x_min":0,"x_max":0,"o":"m 110 0 l 110 1000 l 218 1000 l 218 549 b 482 669 272 624 365 669 b 807 336 674 669 807 557 l 807 0 l 697 0 l 697 340 b 464 578 697 504 613 578 b 218 349 326 578 218 493 l 218 0 "},"һ":{"ha":778,"x_min":0,"x_max":0,"o":"m 103 0 l 103 1000 l 206 1000 l 206 513 b 429 635 256 593 340 635 b 682 374 585 635 682 539 l 682 0 l 579 0 l 579 371 b 406 547 579 486 515 547 b 206 336 301 547 206 468 l 206 0 "},"Ӏ":{"ha":328,"x_min":0,"x_max":0,"o":"m 218 1000 l 218 0 l 110 0 l 110 1000 "},"Ӌ":{"ha":894,"x_min":0,"x_max":0,"o":"m 786 1000 l 786 93 l 868 93 l 868 -194 l 767 -194 l 767 0 l 676 0 l 676 458 b 413 331 622 372 531 331 b 89 664 214 331 89 442 l 89 1000 l 197 1000 l 197 660 b 440 422 197 500 278 422 b 676 658 582 422 676 517 l 676 1000 "},"ӌ":{"ha":769,"x_min":0,"x_max":0,"o":"m 196 722 l 196 447 b 367 274 196 329 261 274 b 564 485 489 274 564 371 l 564 722 l 667 722 l 667 89 l 731 89 l 731 -194 l 635 -194 l 635 0 l 564 0 l 564 297 b 343 185 513 221 428 185 b 93 447 197 185 93 271 l 93 722 "},"ӏ":{"ha":308,"x_min":0,"x_max":0,"o":"m 206 0 l 103 0 l 103 1000 l 206 1000 "},"Ә":{"ha":1006,"x_min":0,"x_max":0,"o":"m 489 -21 b 49 504 219 -21 56 147 l 826 504 b 489 929 824 788 689 929 b 178 721 321 929 218 853 l 67 721 b 489 1021 104 899 261 1021 b 938 503 754 1021 938 840 b 489 -21 938 188 763 -21 m 488 72 b 821 414 667 72 794 197 l 167 414 b 488 72 178 190 307 72 "},"ә":{"ha":799,"x_min":0,"x_max":0,"o":"m 74 519 b 396 743 108 651 232 743 b 733 361 594 743 733 611 b 401 -21 733 113 594 -21 b 63 385 208 -21 63 101 l 628 385 b 393 656 619 571 525 656 b 185 519 294 656 208 601 m 400 63 b 624 301 519 63 608 143 l 168 301 b 400 63 178 142 275 63 "},"Ӣ":{"ha":975,"x_min":0,"x_max":0,"o":"m 314 1129 l 314 1218 l 669 1218 l 669 1129 m 758 1000 l 867 1000 l 867 0 l 758 0 l 758 801 l 215 54 l 215 0 l 110 0 l 110 1000 l 215 1000 l 215 199 l 758 947 "},"ӣ":{"ha":778,"x_min":0,"x_max":0,"o":"m 213 893 l 213 982 l 568 982 l 568 893 m 103 0 l 103 722 l 204 722 l 204 181 l 574 685 l 574 722 l 675 722 l 675 0 l 574 0 l 574 542 l 204 38 l 204 0 "},"Ө":{"ha":1060,"x_min":0,"x_max":0,"o":"m 531 -21 b 68 500 264 -21 68 168 b 531 1021 68 836 275 1021 b 993 500 788 1021 993 840 b 531 -21 993 165 790 -21 m 531 69 b 881 464 719 69 868 200 l 179 464 b 531 69 192 203 340 69 m 531 931 b 181 556 340 931 199 800 l 878 556 b 531 931 860 800 719 931 "},"ө":{"ha":810,"x_min":0,"x_max":0,"o":"m 61 361 b 406 743 61 618 214 743 b 749 361 600 743 749 617 b 406 -21 749 108 603 -21 b 61 361 210 -21 61 111 m 407 64 b 640 325 536 64 629 151 l 169 325 b 407 64 181 151 281 64 m 406 658 b 169 408 281 658 185 574 l 639 408 b 406 658 625 575 529 658 "},"Ӯ":{"ha":797,"x_min":0,"x_max":0,"o":"m 228 1129 l 228 1218 l 583 1218 l 583 1129 m 472 208 b 250 -21 411 58 369 -21 b 175 -10 225 -21 206 -18 l 175 79 b 240 69 207 71 224 69 b 372 235 304 69 329 107 l 335 235 l 6 1000 l 119 1000 l 407 315 l 686 1000 l 793 1000 "},"ӯ":{"ha":701,"x_min":0,"x_max":0,"o":"m 429 -8 b 210 -271 367 -186 328 -271 b 129 -258 183 -271 161 -267 l 129 -174 b 200 -185 156 -181 178 -185 b 331 0 263 -185 283 -136 l 294 0 l 19 722 l 131 722 l 361 82 l 579 722 l 683 722 m 174 893 l 174 982 l 529 982 l 529 893 "},"Ẁ":{"ha":1331,"x_min":0,"x_max":0,"o":"m 1319 1000 l 1049 0 l 917 0 l 671 888 l 421 0 l 282 0 l 13 1000 l 124 1000 l 357 122 l 604 1000 l 744 1000 l 983 125 l 1218 1000 m 724 1067 l 631 1067 l 444 1257 l 581 1257 "},"ẁ":{"ha":1096,"x_min":0,"x_max":0,"o":"m 1071 722 l 861 0 l 739 0 l 550 610 l 367 0 l 242 0 l 26 722 l 133 722 l 307 108 l 489 722 l 615 722 l 800 111 l 967 722 m 596 831 l 503 831 l 317 1021 l 453 1021 "},"Ẃ":{"ha":1331,"x_min":0,"x_max":0,"o":"m 1319 1000 l 1049 0 l 917 0 l 671 888 l 421 0 l 282 0 l 13 1000 l 124 1000 l 357 122 l 604 1000 l 744 1000 l 983 125 l 1218 1000 m 756 1257 l 893 1257 l 707 1067 l 614 1067 "},"ẃ":{"ha":1096,"x_min":0,"x_max":0,"o":"m 1071 722 l 861 0 l 739 0 l 550 610 l 367 0 l 242 0 l 26 722 l 133 722 l 307 108 l 489 722 l 615 722 l 800 111 l 967 722 m 643 1021 l 781 1021 l 594 831 l 501 831 "},"Ẅ":{"ha":1331,"x_min":0,"x_max":0,"o":"m 1319 1000 l 1049 0 l 917 0 l 671 888 l 421 0 l 282 0 l 13 1000 l 124 1000 l 357 122 l 604 1000 l 744 1000 l 983 125 l 1218 1000 m 458 1118 l 458 1236 l 574 1236 l 574 1118 m 757 1118 l 757 1236 l 872 1236 l 872 1118 "},"ẅ":{"ha":1096,"x_min":0,"x_max":0,"o":"m 1071 722 l 861 0 l 739 0 l 550 610 l 367 0 l 242 0 l 26 722 l 133 722 l 307 108 l 489 722 l 615 722 l 800 111 l 967 722 m 342 882 l 342 1000 l 457 1000 l 457 882 m 640 882 l 640 1000 l 756 1000 l 756 882 "},"Ỳ":{"ha":869,"x_min":0,"x_max":0,"o":"m 125 1000 l 435 490 l 753 1000 l 864 1000 l 489 394 l 489 0 l 381 0 l 381 396 l 6 1000 m 514 1067 l 421 1067 l 235 1257 l 371 1257 "},"ỳ":{"ha":701,"x_min":0,"x_max":0,"o":"m 429 -8 b 210 -271 367 -186 328 -271 b 129 -258 183 -271 161 -267 l 129 -174 b 200 -185 156 -181 178 -185 b 331 0 263 -185 283 -136 l 294 0 l 19 722 l 131 722 l 361 82 l 579 722 l 683 722 m 429 831 l 336 831 l 150 1021 l 286 1021 "}," ":{"ha":833,"x_min":0,"x_max":0,"o":""}," ":{"ha":406,"x_min":0,"x_max":0,"o":""},"​":{"ha":0,"x_min":0,"x_max":0,"o":""},"‒":{"ha":803,"x_min":0,"x_max":0,"o":"m 688 401 l 115 401 l 115 494 l 688 494 "},"–":{"ha":608,"x_min":0,"x_max":0,"o":"m 582 401 l 26 401 l 26 494 l 582 494 "},"—":{"ha":886,"x_min":0,"x_max":0,"o":"m 860 401 l 26 401 l 26 494 l 860 494 "},"―":{"ha":608,"x_min":0,"x_max":0,"o":"m 582 401 l 26 401 l 26 494 l 582 494 "},"‗":{"ha":835,"x_min":0,"x_max":0,"o":"m 793 -168 l 42 -168 l 42 -75 l 793 -75 m 793 -351 l 42 -351 l 42 -258 l 793 -258 "},"‘":{"ha":393,"x_min":0,"x_max":0,"o":"m 129 785 b 292 1000 129 924 207 983 l 292 942 b 210 799 240 926 210 888 l 261 799 l 261 664 l 129 664 "},"’":{"ha":393,"x_min":0,"x_max":0,"o":"m 264 879 b 100 664 264 740 186 681 l 100 724 b 183 865 153 738 183 776 l 132 865 l 132 1000 l 264 1000 "},"‚":{"ha":393,"x_min":0,"x_max":0,"o":"m 264 15 b 100 -201 264 -125 186 -185 l 100 -142 b 183 0 153 -126 183 -89 l 132 0 l 132 135 l 264 135 "},"‛":{"ha":393,"x_min":0,"x_max":0,"o":"m 100 1000 l 232 1000 l 232 865 l 181 865 b 264 724 181 776 211 738 l 264 664 b 100 879 178 681 100 740 "},"“":{"ha":608,"x_min":0,"x_max":0,"o":"m 131 785 b 294 1000 131 924 208 983 l 294 942 b 211 799 242 926 211 888 l 263 799 l 263 664 l 131 664 m 346 785 b 508 1000 346 924 422 983 l 508 942 b 425 799 456 926 425 888 l 476 799 l 476 664 l 346 664 "},"”":{"ha":607,"x_min":0,"x_max":0,"o":"m 264 879 b 100 664 264 740 186 681 l 100 724 b 183 865 153 738 183 776 l 132 865 l 132 1000 l 264 1000 m 478 879 b 315 664 478 740 400 681 l 315 724 b 397 865 368 738 397 776 l 347 865 l 347 1000 l 478 1000 "},"„":{"ha":607,"x_min":0,"x_max":0,"o":"m 264 15 b 100 -201 264 -125 186 -185 l 100 -142 b 183 0 153 -126 183 -89 l 132 0 l 132 135 l 264 135 m 478 15 b 315 -201 478 -125 400 -185 l 315 -142 b 397 0 368 -126 397 -89 l 347 0 l 347 135 l 478 135 "},"†":{"ha":833,"x_min":0,"x_max":0,"o":"m 468 1000 l 468 728 l 733 728 l 733 631 l 468 631 l 468 0 l 364 0 l 364 631 l 100 631 l 100 728 l 364 728 l 364 1000 "},"‡":{"ha":833,"x_min":0,"x_max":0,"o":"m 468 1000 l 468 738 l 733 738 l 733 640 l 468 640 l 468 347 l 733 347 l 733 250 l 468 250 l 468 0 l 364 0 l 364 250 l 100 250 l 100 347 l 364 347 l 364 640 l 100 640 l 100 738 l 364 738 l 364 1000 "},"•":{"ha":414,"x_min":0,"x_max":0,"o":"m 101 340 l 101 544 l 313 544 l 313 340 "},"…":{"ha":1093,"x_min":0,"x_max":0,"o":"m 138 0 l 138 135 l 264 135 l 264 0 m 483 0 l 483 135 l 610 135 l 610 0 m 829 0 l 829 135 l 956 135 l 956 0 "},"‰":{"ha":1678,"x_min":0,"x_max":0,"o":"m 379 0 l 276 0 l 772 972 l 875 972 m 150 758 b 292 600 150 646 215 600 b 436 758 368 600 436 646 b 292 917 436 871 368 917 b 150 758 215 917 150 871 m 524 758 b 292 524 524 601 413 524 b 61 758 171 524 61 601 b 292 993 61 915 171 993 b 524 758 413 993 524 915 m 725 214 b 867 56 725 101 790 56 b 1011 214 943 56 1011 101 b 867 372 1011 326 943 372 b 725 214 790 372 725 326 m 1099 214 b 867 -21 1099 57 988 -21 b 635 214 746 -21 635 57 b 867 449 635 371 746 449 b 1099 214 988 449 1099 371 m 1261 214 b 1403 56 1261 101 1326 56 b 1547 214 1479 56 1547 101 b 1403 372 1547 326 1479 372 b 1261 214 1326 372 1261 326 m 1636 214 b 1403 -21 1636 57 1524 -21 b 1172 214 1282 -21 1172 57 b 1403 449 1172 371 1283 449 b 1636 214 1524 449 1636 371 "},"′":{"ha":375,"x_min":0,"x_max":0,"o":"m 211 681 l 136 681 l 147 893 l 147 1021 l 256 1021 l 256 893 "},"″":{"ha":833,"x_min":0,"x_max":0,"o":"m 207 681 l 132 681 l 143 893 l 143 1021 l 251 1021 l 251 893 m 414 681 l 339 681 l 350 893 l 350 1021 l 458 1021 l 458 893 "},"‹":{"ha":415,"x_min":0,"x_max":0,"o":"m 86 438 l 256 722 l 331 722 l 208 433 l 317 125 l 242 125 "},"›":{"ha":415,"x_min":0,"x_max":0,"o":"m 174 125 l 100 125 l 208 433 l 86 722 l 160 722 l 331 438 "},"‼":{"ha":757,"x_min":0,"x_max":0,"o":"m 144 324 l 126 1000 l 249 1000 l 231 324 m 125 0 l 125 135 l 254 135 l 254 0 m 522 324 l 504 1000 l 626 1000 l 608 324 m 503 0 l 503 135 l 632 135 l 632 0 "},"‾":{"ha":835,"x_min":0,"x_max":0,"o":"m 793 822 l 42 822 l 42 915 l 793 915 "},"⁄":{"ha":324,"x_min":0,"x_max":0,"o":"m -181 -125 l 397 1097 l 497 1097 l -82 -125 "},"⁰":{"ha":585,"x_min":0,"x_max":0,"o":"m 288 394 b 61 717 146 394 61 496 b 288 1033 61 942 153 1033 b 513 717 421 1033 513 944 b 288 394 513 499 428 394 m 288 475 b 418 717 381 475 418 551 b 288 954 418 881 381 954 b 156 717 194 954 156 881 b 288 475 156 551 194 475 "},"⁴":{"ha":594,"x_min":0,"x_max":0,"o":"m 429 606 l 522 606 l 522 524 l 429 524 l 429 408 l 343 408 l 343 524 l 61 524 l 61 613 l 331 1021 l 429 1021 m 146 606 l 343 606 l 343 890 "},"⁵":{"ha":583,"x_min":0,"x_max":0,"o":"m 481 939 l 188 939 l 179 778 b 311 819 213 806 253 819 b 511 610 431 819 511 753 b 283 394 511 496 429 394 b 61 560 150 394 76 479 l 158 560 b 283 478 169 517 210 478 b 413 611 363 478 413 526 b 285 744 413 699 368 744 b 167 693 239 744 197 736 l 86 693 l 100 1021 l 481 1021 "},"⁶":{"ha":574,"x_min":0,"x_max":0,"o":"m 294 1033 b 489 901 399 1033 469 982 l 388 901 b 293 956 376 933 347 956 b 158 738 219 956 168 901 b 307 811 192 790 246 811 b 501 604 431 811 501 721 b 289 394 501 468 403 394 b 61 690 135 394 61 496 b 294 1033 61 965 172 1033 m 286 731 b 167 606 201 731 167 667 b 285 472 167 526 204 472 b 403 600 358 472 403 519 b 286 731 403 679 365 731 "},"⁷":{"ha":533,"x_min":0,"x_max":0,"o":"m 119 408 l 367 936 l 61 936 l 61 1021 l 461 1021 l 461 935 l 221 408 "},"⁸":{"ha":593,"x_min":0,"x_max":0,"o":"m 290 1033 b 499 874 400 1033 499 988 b 385 732 499 810 443 761 b 521 575 451 707 521 658 b 290 394 521 469 436 394 b 61 569 146 394 61 467 b 190 729 61 660 121 708 b 83 868 132 753 83 792 b 290 1033 83 982 176 1033 m 290 960 b 178 872 228 960 178 929 b 303 756 178 799 232 774 b 404 872 351 774 404 799 b 290 960 404 928 354 960 m 274 706 b 163 576 217 679 163 647 b 290 475 163 524 204 475 b 419 576 375 475 419 518 b 274 706 419 658 349 683 "},"⁹":{"ha":574,"x_min":0,"x_max":0,"o":"m 278 1033 b 501 739 433 1033 501 940 b 268 394 501 471 399 394 b 71 531 163 394 93 449 l 174 531 b 271 474 185 494 215 474 b 407 692 350 474 397 526 b 253 618 372 639 315 618 b 61 826 132 618 61 701 b 278 1033 61 943 153 1033 m 278 954 b 160 829 203 954 160 900 b 276 699 160 743 201 699 b 397 824 364 699 397 763 b 278 954 397 899 363 954 "},"ⁿ":{"ha":569,"x_min":0,"x_max":0,"o":"m 319 1008 b 504 817 435 1008 504 943 l 504 488 l 418 488 l 418 814 b 303 933 418 899 382 933 b 160 786 222 933 160 876 l 160 488 l 74 488 l 74 993 l 146 993 l 154 918 b 319 1008 193 974 250 1008 "},"₣":{"ha":807,"x_min":0,"x_max":0,"o":"m 690 528 l 690 435 l 261 435 l 261 285 l 543 285 l 543 199 l 261 199 l 261 0 l 153 0 l 153 199 l 69 199 l 69 285 l 153 285 l 153 972 l 738 972 l 738 879 l 261 879 l 261 528 "},"₤":{"ha":792,"x_min":0,"x_max":0,"o":"m 714 0 l 69 0 l 69 94 b 172 265 139 118 172 168 l 172 333 l 90 333 l 90 418 l 172 418 l 172 554 l 90 554 l 90 639 l 172 639 l 172 726 b 444 993 172 906 292 993 b 718 779 578 993 686 921 l 610 779 b 442 906 592 858 535 906 b 275 725 338 906 275 842 l 275 639 l 536 639 l 536 554 l 275 554 l 275 418 l 510 418 l 510 333 l 275 333 l 275 249 b 199 94 275 181 247 129 l 714 94 "},"₧":{"ha":1275,"x_min":0,"x_max":0,"o":"m 1015 336 b 1206 151 1160 296 1206 243 b 1000 -21 1206 50 1138 -21 b 879 7 951 -21 911 -11 b 764 -22 838 -14 799 -22 b 629 126 678 -22 629 35 l 629 497 l 528 497 b 247 379 471 422 375 379 l 178 379 l 178 0 l 69 0 l 69 972 l 253 972 b 590 683 469 972 590 882 b 571 574 590 638 582 610 l 629 574 l 636 713 l 718 713 l 718 574 l 900 574 b 1000 590 928 585 961 590 b 1204 426 1113 590 1188 526 l 1117 426 b 996 519 1108 483 1068 519 b 897 440 925 519 897 488 b 1015 336 897 386 921 361 m 253 469 b 483 683 406 469 483 554 b 260 882 483 831 404 882 l 178 882 l 178 469 m 1001 50 b 1118 147 1078 50 1118 88 b 978 269 1118 208 1085 243 b 807 433 864 299 807 346 b 822 497 807 457 813 479 l 718 497 l 718 125 b 772 53 718 74 736 53 b 822 61 788 53 804 54 b 789 154 804 86 793 118 l 876 154 b 1001 50 883 86 922 50 "},"€":{"ha":833,"x_min":0,"x_max":0,"o":"m 486 -21 b 119 340 299 -21 156 92 l 17 340 l 39 426 l 110 426 b 107 486 107 444 107 465 b 110 543 107 506 107 525 l 17 543 l 39 629 l 118 629 b 485 993 156 883 301 993 b 815 735 674 993 789 885 l 704 735 b 483 901 681 839 606 901 b 229 629 354 901 257 826 l 601 629 l 581 543 l 219 543 b 218 486 219 525 218 506 b 221 426 218 464 219 444 l 546 426 l 525 340 l 231 340 b 488 72 260 151 357 72 b 704 240 603 72 679 131 l 817 240 b 486 -21 783 89 669 -21 "},"℅":{"ha":1288,"x_min":0,"x_max":0,"o":"m 257 -125 l 835 1097 l 935 1097 l 356 -125 m 539 649 b 311 472 522 550 442 472 b 69 736 164 472 69 560 b 311 1008 69 907 164 1008 b 536 844 435 1008 517 946 l 443 844 b 314 933 429 908 383 933 b 158 733 217 933 158 871 b 314 546 158 606 221 546 b 447 649 392 546 435 583 m 968 521 b 1218 253 1119 521 1218 432 b 967 -15 1218 76 1119 -15 b 715 253 813 -15 715 76 b 968 521 715 435 815 521 m 968 450 b 806 253 864 450 806 382 b 968 56 806 124 867 56 b 1131 253 1072 56 1131 124 b 968 450 1131 385 1072 450 "},"ℓ":{"ha":663,"x_min":0,"x_max":0,"o":"m 429 68 b 531 96 468 68 501 78 l 564 17 b 425 -21 525 -7 486 -21 b 165 242 293 -21 197 74 b 69 185 135 224 104 204 l 69 278 b 154 331 100 294 128 313 b 153 367 153 342 153 354 b 417 1021 153 810 224 1021 b 593 825 538 1021 593 939 b 256 300 593 657 494 474 b 429 68 272 133 335 68 m 249 401 b 494 824 414 539 494 690 b 408 942 494 903 467 942 b 249 422 296 942 249 729 "},"№":{"ha":1631,"x_min":0,"x_max":0,"o":"m 885 1000 l 885 0 l 750 0 l 210 869 l 210 0 l 110 0 l 110 1000 l 250 1000 l 786 138 l 786 1000 m 1156 714 b 1314 485 1156 549 1226 485 b 1469 714 1400 485 1469 546 b 1314 944 1469 882 1399 944 b 1156 714 1228 944 1156 879 m 1061 714 b 1314 1019 1061 944 1182 1019 b 1564 714 1444 1019 1564 946 b 1314 410 1564 482 1442 410 b 1061 714 1186 410 1061 483 m 1547 0 l 1063 0 l 1063 93 l 1547 93 "},"™":{"ha":1157,"x_min":0,"x_max":0,"o":"m 735 450 l 581 914 l 581 450 l 503 450 l 503 926 l 307 926 l 307 450 l 224 450 l 224 926 l 40 926 l 40 1000 l 635 1000 l 779 554 l 918 1000 l 1047 1000 l 1047 450 l 967 450 l 967 914 l 819 450 "},"Ω":{"ha":1060,"x_min":0,"x_max":0,"o":"m 644 97 b 881 501 778 133 881 257 b 531 931 881 781 733 931 b 179 501 319 931 179 781 b 417 97 179 264 281 132 l 417 0 l 115 0 l 115 97 l 263 97 b 68 501 147 157 68 310 b 531 1021 68 871 300 1021 b 993 501 760 1021 993 868 b 797 97 993 306 911 156 l 944 97 l 944 0 l 644 0 "},"℮":{"ha":1313,"x_min":0,"x_max":0,"o":"m 303 471 l 303 168 b 657 33 361 81 526 33 b 1018 169 788 33 940 79 l 1099 169 b 656 -21 997 51 849 -21 b 97 482 338 -21 97 190 b 656 993 97 774 349 993 b 1215 471 953 993 1215 781 m 1010 797 b 657 939 932 882 819 939 b 303 799 494 939 374 885 l 303 526 l 1010 526 "},"⅓":{"ha":1247,"x_min":0,"x_max":0,"o":"m 214 -125 l 792 1097 l 892 1097 l 313 -125 m 315 408 l 218 408 l 218 925 l 69 850 l 69 943 l 224 1021 l 315 1021 m 954 615 b 1158 454 1067 615 1158 568 b 1033 315 1158 390 1114 336 b 1178 158 1119 300 1178 249 b 951 -21 1178 53 1094 -21 b 722 144 818 -21 736 49 l 819 144 b 951 60 835 90 875 60 b 1079 161 1036 60 1079 101 b 957 274 1079 243 1022 274 l 903 274 l 903 347 l 957 347 b 1061 447 1010 347 1061 374 b 949 536 1061 510 1013 536 b 832 456 878 536 842 503 l 733 456 b 954 615 749 553 831 615 "},"⅔":{"ha":1351,"x_min":0,"x_max":0,"o":"m 318 -125 l 896 1097 l 996 1097 l 417 -125 m 69 861 b 296 1033 85 967 174 1033 b 504 858 418 1033 504 967 b 342 610 504 774 467 707 l 199 497 l 500 497 l 500 408 l 82 408 l 82 497 l 283 674 b 406 857 375 754 406 800 b 296 951 406 915 369 951 b 171 861 224 951 179 922 m 1060 615 b 1264 454 1172 615 1264 568 b 1139 315 1264 390 1219 336 b 1283 158 1225 300 1283 249 b 1057 -21 1283 53 1200 -21 b 828 144 924 -21 842 49 l 925 144 b 1057 60 940 90 981 60 b 1185 161 1142 60 1185 101 b 1063 274 1185 243 1128 274 l 1008 274 l 1008 347 l 1063 347 b 1167 447 1115 347 1167 374 b 1054 536 1167 510 1118 536 b 938 456 983 536 947 503 l 839 456 b 1060 615 854 553 936 615 "},"⅛":{"ha":1247,"x_min":0,"x_max":0,"o":"m 214 -125 l 792 1097 l 892 1097 l 313 -125 m 315 408 l 218 408 l 218 925 l 69 850 l 69 943 l 224 1021 l 315 1021 m 949 618 b 1157 458 1058 618 1157 572 b 1043 317 1157 394 1101 346 b 1179 160 1110 292 1179 243 b 949 -21 1179 54 1094 -21 b 719 154 804 -21 719 51 b 849 314 719 244 779 293 b 742 453 790 338 742 376 b 949 618 742 567 835 618 m 949 544 b 836 457 886 544 836 514 b 961 340 836 383 890 358 b 1063 457 1010 358 1063 383 b 949 544 1063 513 1013 544 m 932 290 b 821 161 875 264 821 232 b 949 60 821 108 863 60 b 1078 161 1033 60 1078 103 b 932 290 1078 243 1007 268 "},"⅜":{"ha":1378,"x_min":0,"x_max":0,"o":"m 343 -125 l 921 1097 l 1021 1097 l 442 -125 m 1078 618 b 1286 458 1188 618 1286 572 b 1172 317 1286 394 1231 346 b 1308 160 1239 292 1308 243 b 1078 -21 1308 54 1224 -21 b 849 154 933 -21 849 51 b 978 314 849 244 908 293 b 871 453 919 338 871 376 b 1078 618 871 567 964 618 m 1078 544 b 965 457 1015 544 965 514 b 1090 340 965 383 1019 358 b 1192 457 1139 358 1192 383 b 1078 544 1192 513 1142 544 m 1061 290 b 950 161 1004 264 950 232 b 1078 60 950 108 992 60 b 1207 161 1163 60 1207 103 b 1061 290 1207 243 1136 268 m 301 1033 b 506 872 414 1033 506 986 b 381 733 506 808 461 754 b 525 576 467 718 525 667 b 299 397 525 471 442 397 b 69 563 165 397 83 467 l 167 563 b 299 478 182 508 222 478 b 426 579 383 478 426 519 b 304 692 426 661 369 692 l 250 692 l 250 765 l 304 765 b 408 865 357 765 408 792 b 296 954 408 928 360 954 b 179 874 225 954 189 921 l 81 874 b 301 1033 96 971 178 1033 "},"⅝":{"ha":1358,"x_min":0,"x_max":0,"o":"m 324 -125 l 901 1097 l 1001 1097 l 422 -125 m 489 939 l 196 939 l 188 778 b 319 819 221 806 261 819 b 519 610 439 819 519 753 b 292 394 519 496 438 394 b 69 560 158 394 85 479 l 167 560 b 292 478 178 517 218 478 b 421 611 371 478 421 526 b 293 744 421 699 376 744 b 175 693 247 744 206 736 l 94 693 l 108 1021 l 489 1021 m 1058 618 b 1267 458 1168 618 1267 572 b 1153 317 1267 394 1211 346 b 1289 160 1219 292 1289 243 b 1058 -21 1289 54 1204 -21 b 829 154 914 -21 829 51 b 958 314 829 244 889 293 b 851 453 900 338 851 376 b 1058 618 851 567 944 618 m 1058 544 b 946 457 996 544 946 514 b 1071 340 946 383 1000 358 b 1172 457 1119 358 1172 383 b 1058 544 1172 513 1122 544 m 1042 290 b 931 161 985 264 931 232 b 1058 60 931 108 972 60 b 1188 161 1143 60 1188 103 b 1042 290 1188 243 1117 268 "},"⅞":{"ha":1229,"x_min":0,"x_max":0,"o":"m 196 -125 l 774 1097 l 874 1097 l 294 -125 m 931 618 b 1139 458 1040 618 1139 572 b 1025 317 1139 394 1083 346 b 1161 160 1092 292 1161 243 b 931 -21 1161 54 1076 -21 b 701 154 786 -21 701 51 b 831 314 701 244 761 293 b 724 453 772 338 724 376 b 931 618 724 567 817 618 m 931 544 b 818 457 868 544 818 514 b 943 340 818 383 872 358 b 1044 457 992 358 1044 383 b 931 544 1044 513 994 544 m 914 290 b 803 161 857 264 803 232 b 931 60 803 108 844 60 b 1060 161 1015 60 1060 103 b 914 290 1060 243 989 268 m 128 408 l 375 936 l 69 936 l 69 1021 l 469 1021 l 469 935 l 229 408 "},"←":{"ha":833,"x_min":0,"x_max":0,"o":"m 183 556 l 806 556 l 806 464 l 183 464 l 421 158 l 300 158 l 28 510 l 300 861 l 421 861 "},"↑":{"ha":833,"x_min":0,"x_max":0,"o":"m 465 746 l 465 121 l 368 121 l 368 746 l 65 511 l 65 626 l 417 899 l 768 626 l 768 511 "},"→":{"ha":833,"x_min":0,"x_max":0,"o":"m 650 464 l 28 464 l 28 556 l 650 556 l 413 861 l 533 861 l 806 510 l 533 158 l 413 158 "},"↓":{"ha":833,"x_min":0,"x_max":0,"o":"m 368 272 l 368 899 l 465 899 l 465 272 l 768 508 l 768 393 l 417 121 l 65 393 l 65 508 "},"↔":{"ha":1250,"x_min":0,"x_max":0,"o":"m 1067 464 l 183 464 l 421 158 l 300 158 l 28 510 l 300 861 l 421 861 l 183 556 l 1067 556 l 829 861 l 950 861 l 1222 510 l 950 158 l 829 158 "},"↕":{"ha":833,"x_min":0,"x_max":0,"o":"m 368 64 l 368 954 l 65 719 l 65 835 l 417 1107 l 768 835 l 768 719 l 465 954 l 465 64 l 768 300 l 768 185 l 417 -87 l 65 185 l 65 300 "},"↖":{"ha":833,"x_min":0,"x_max":0,"o":"m 281 714 l 726 269 l 657 200 l 218 640 l 171 263 l 86 343 l 142 785 l 583 840 l 664 763 "},"↗":{"ha":833,"x_min":0,"x_max":0,"o":"m 594 640 l 156 200 l 86 269 l 532 714 l 149 763 l 229 840 l 671 785 l 726 343 l 642 263 "},"↘":{"ha":833,"x_min":0,"x_max":0,"o":"m 532 326 l 86 771 l 156 840 l 594 400 l 642 778 l 726 697 l 671 256 l 229 200 l 149 278 "},"↙":{"ha":833,"x_min":0,"x_max":0,"o":"m 218 400 l 657 840 l 726 771 l 281 325 l 664 278 l 583 200 l 142 256 l 86 697 l 171 778 "},"↨":{"ha":833,"x_min":0,"x_max":0,"o":"m 368 64 l 368 954 l 65 719 l 65 835 l 417 1107 l 768 835 l 768 719 l 465 954 l 465 64 l 768 300 l 768 185 l 417 -87 l 65 185 l 65 300 m 792 -271 l 40 -271 l 40 -178 l 792 -178 "},"∂":{"ha":785,"x_min":0,"x_max":0,"o":"m 208 1031 b 718 440 508 971 718 813 b 383 -21 718 154 606 -21 b 61 331 193 -21 61 114 b 365 668 61 528 185 668 b 618 515 488 668 586 599 b 203 936 594 794 421 900 m 614 322 b 379 581 614 464 529 581 b 167 324 257 581 167 499 b 383 67 167 151 261 67 b 614 322 518 67 607 160 "},"∆":{"ha":949,"x_min":0,"x_max":0,"o":"m 6 0 l 411 1000 l 539 1000 l 943 0 m 156 93 l 786 93 l 474 892 "},"∏":{"ha":833,"x_min":0,"x_max":0,"o":"m 118 0 l 118 879 l 32 879 l 32 972 l 801 972 l 801 879 l 714 879 l 714 0 l 604 0 l 604 879 l 228 879 l 228 0 "},"∑":{"ha":854,"x_min":0,"x_max":0,"o":"m 413 378 l 82 910 l 82 1000 l 790 1000 l 790 908 l 211 908 l 535 378 l 211 -153 l 790 -153 l 790 -244 l 82 -244 l 82 -156 "},"−":{"ha":833,"x_min":0,"x_max":0,"o":"m 703 401 l 131 401 l 131 494 l 703 494 "},"∕":{"ha":375,"x_min":0,"x_max":0,"o":"m -110 -125 l -218 -125 l 475 1097 l 585 1097 "},"∙":{"ha":401,"x_min":0,"x_max":0,"o":"m 138 375 l 138 511 l 268 511 l 268 375 "},"√":{"ha":832,"x_min":0,"x_max":0,"o":"m 278 0 l 28 639 l 136 639 l 338 114 l 653 1114 l 910 1114 l 910 1025 l 732 1025 l 400 0 "},"∞":{"ha":1063,"x_min":0,"x_max":0,"o":"m 315 731 b 532 594 394 731 481 683 b 751 731 579 688 660 731 b 999 486 926 731 999 604 b 747 242 999 375 926 242 b 531 376 667 242 581 288 b 311 242 483 285 403 242 b 64 486 135 242 64 368 b 315 731 64 597 135 731 m 740 322 b 900 486 844 322 900 394 b 746 650 900 579 843 650 b 568 475 643 650 576 557 b 740 322 572 443 628 322 m 322 650 b 163 486 217 650 163 578 b 317 322 163 393 219 322 b 494 497 419 322 486 415 b 322 650 490 529 435 650 "},"∟":{"ha":1021,"x_min":0,"x_max":0,"o":"m 951 94 l 951 0 l 69 0 l 69 917 l 172 917 l 172 94 "},"∩":{"ha":833,"x_min":0,"x_max":0,"o":"m 417 804 b 738 483 594 804 738 661 l 738 53 l 635 53 l 635 483 b 417 717 635 611 543 717 b 199 483 290 717 199 611 l 199 53 l 96 53 l 96 483 b 417 804 96 661 239 804 "},"∫":{"ha":833,"x_min":0,"x_max":0,"o":"m 164 -151 b 274 -158 210 -157 244 -158 b 365 -65 326 -158 365 -133 l 365 1103 b 546 1289 365 1211 428 1289 b 669 1282 592 1289 631 1286 l 669 1194 b 560 1200 624 1199 589 1200 b 468 1108 507 1200 468 1175 l 468 -60 b 288 -247 468 -169 406 -247 b 164 -239 242 -247 203 -244 "},"≈":{"ha":833,"x_min":0,"x_max":0,"o":"m 549 601 b 703 667 613 601 661 629 l 703 565 b 544 510 668 536 610 510 b 283 588 431 510 374 588 b 131 524 221 588 172 561 l 131 625 b 289 681 165 653 224 681 b 549 601 403 681 458 601 m 549 318 b 703 383 613 318 661 346 l 703 282 b 544 226 668 253 610 226 b 283 304 431 226 374 304 b 131 240 221 304 172 278 l 131 342 b 289 397 165 369 224 397 b 549 318 403 397 458 318 "},"≠":{"ha":833,"x_min":0,"x_max":0,"o":"m 703 257 l 350 257 l 224 56 l 124 56 l 250 257 l 131 257 l 131 350 l 307 350 l 429 544 l 131 544 l 131 638 l 486 638 l 610 833 l 710 833 l 586 638 l 703 638 l 703 544 l 529 544 l 407 350 l 703 350 "},"≡":{"ha":833,"x_min":0,"x_max":0,"o":"m 703 544 l 131 544 l 131 638 l 703 638 m 703 -31 l 131 -31 l 131 63 l 703 63 m 703 257 l 131 257 l 131 350 l 703 350 "},"≤":{"ha":833,"x_min":0,"x_max":0,"o":"m 236 464 b 236 460 236 463 236 461 l 703 283 l 703 179 l 131 413 l 131 511 l 703 768 l 703 663 l 236 464 m 703 0 l 131 0 l 131 93 l 703 93 "},"≥":{"ha":833,"x_min":0,"x_max":0,"o":"m 597 460 b 597 464 597 461 597 463 l 131 663 l 131 768 l 703 511 l 703 413 l 131 179 l 131 283 l 597 460 m 131 93 l 703 93 l 703 0 l 131 0 "},"⋆":{"ha":833,"x_min":0,"x_max":0,"o":"m 418 1036 l 499 694 l 782 904 l 621 590 l 975 569 l 649 433 l 908 188 l 569 294 l 611 -61 l 418 239 l 224 -61 l 267 294 l -72 188 l 186 433 l -140 569 l 215 590 l 54 904 l 336 694 "},"⌂":{"ha":1003,"x_min":0,"x_max":0,"o":"m 933 0 l 69 0 l 69 514 l 501 899 l 933 514 m 831 90 l 831 482 l 501 772 l 172 482 l 172 90 "},"⌐":{"ha":778,"x_min":0,"x_max":0,"o":"m 638 494 l 638 401 l 233 401 l 233 161 l 140 161 l 140 494 "},"⌠":{"ha":690,"x_min":0,"x_max":0,"o":"m 494 1289 b 604 1282 539 1289 569 1286 l 604 1194 b 513 1200 565 1199 538 1200 b 432 1108 463 1200 432 1175 l 432 -292 l 331 -292 l 331 1103 b 494 1289 331 1211 389 1289 "},"⌡":{"ha":690,"x_min":0,"x_max":0,"o":"m 432 -60 b 268 -247 432 -169 375 -247 b 158 -239 225 -247 193 -244 l 158 -151 b 251 -158 197 -157 225 -158 b 331 -65 301 -158 331 -133 l 331 1292 l 432 1292 "},"─":{"ha":833,"x_min":0,"x_max":0,"o":"m -7 538 l 840 538 l 840 440 l -7 440 "},"│":{"ha":833,"x_min":0,"x_max":0,"o":"m 368 1389 l 465 1389 l 465 -503 l 368 -503 "},"┌":{"ha":833,"x_min":0,"x_max":0,"o":"m 368 538 l 840 538 l 840 440 l 465 440 l 465 -503 l 368 -503 "},"┐":{"ha":833,"x_min":0,"x_max":0,"o":"m -7 538 l 465 538 l 465 -503 l 368 -503 l 368 440 l -7 440 "},"└":{"ha":833,"x_min":0,"x_max":0,"o":"m 368 1389 l 465 1389 l 465 538 l 840 538 l 840 440 l 368 440 "},"┘":{"ha":833,"x_min":0,"x_max":0,"o":"m -7 538 l 368 538 l 368 1389 l 465 1389 l 465 440 l -7 440 "},"├":{"ha":833,"x_min":0,"x_max":0,"o":"m 368 1389 l 465 1389 l 465 538 l 840 538 l 840 440 l 465 440 l 465 -503 l 368 -503 "},"┤":{"ha":833,"x_min":0,"x_max":0,"o":"m -7 538 l 368 538 l 368 1389 l 465 1389 l 465 -503 l 368 -503 l 368 440 l -7 440 "},"┬":{"ha":833,"x_min":0,"x_max":0,"o":"m -7 538 l 840 538 l 840 440 l 465 440 l 465 -503 l 368 -503 l 368 440 l -7 440 "},"┴":{"ha":833,"x_min":0,"x_max":0,"o":"m -7 538 l 368 538 l 368 1389 l 465 1389 l 465 538 l 840 538 l 840 440 l -7 440 "},"┼":{"ha":833,"x_min":0,"x_max":0,"o":"m -7 538 l 368 538 l 368 1389 l 465 1389 l 465 538 l 840 538 l 840 440 l 465 440 l 465 -503 l 368 -503 l 368 440 l -7 440 "},"═":{"ha":833,"x_min":0,"x_max":0,"o":"m -7 440 l 840 440 l 840 343 l -7 343 m 840 538 l -7 538 l -7 635 l 840 635 "},"║":{"ha":833,"x_min":0,"x_max":0,"o":"m 465 -503 l 465 1389 l 563 1389 l 563 -503 m 271 1389 l 368 1389 l 368 -503 l 271 -503 "},"╒":{"ha":833,"x_min":0,"x_max":0,"o":"m 840 538 l 465 538 l 465 440 l 840 440 l 840 343 l 465 343 l 465 -503 l 368 -503 l 368 635 l 840 635 "},"╓":{"ha":833,"x_min":0,"x_max":0,"o":"m 465 -503 l 465 440 l 368 440 l 368 -503 l 271 -503 l 271 538 l 840 538 l 840 440 l 563 440 l 563 -503 "},"╔":{"ha":833,"x_min":0,"x_max":0,"o":"m 271 635 l 840 635 l 840 538 l 368 538 l 368 -503 l 271 -503 m 465 -503 l 465 440 l 840 440 l 840 343 l 563 343 l 563 -503 "},"╕":{"ha":833,"x_min":0,"x_max":0,"o":"m -7 440 l 368 440 l 368 538 l -7 538 l -7 635 l 465 635 l 465 -503 l 368 -503 l 368 343 l -7 343 "},"╖":{"ha":833,"x_min":0,"x_max":0,"o":"m -7 538 l 563 538 l 563 -503 l 465 -503 l 465 440 l 368 440 l 368 -503 l 271 -503 l 271 440 l -7 440 "},"╗":{"ha":833,"x_min":0,"x_max":0,"o":"m 465 -503 l 465 538 l -7 538 l -7 635 l 563 635 l 563 -503 m -7 440 l 368 440 l 368 -503 l 271 -503 l 271 343 l -7 343 "},"╘":{"ha":833,"x_min":0,"x_max":0,"o":"m 840 538 l 465 538 l 465 440 l 840 440 l 840 343 l 368 343 l 368 1389 l 465 1389 l 465 635 l 840 635 "},"╙":{"ha":833,"x_min":0,"x_max":0,"o":"m 271 1389 l 368 1389 l 368 538 l 465 538 l 465 1389 l 563 1389 l 563 538 l 840 538 l 840 440 l 271 440 "},"╚":{"ha":833,"x_min":0,"x_max":0,"o":"m 840 440 l 840 343 l 271 343 l 271 1389 l 368 1389 l 368 440 m 840 538 l 465 538 l 465 1389 l 563 1389 l 563 635 l 840 635 "},"╛":{"ha":833,"x_min":0,"x_max":0,"o":"m -7 440 l 368 440 l 368 538 l -7 538 l -7 635 l 368 635 l 368 1389 l 465 1389 l 465 343 l -7 343 "},"╜":{"ha":833,"x_min":0,"x_max":0,"o":"m -7 538 l 271 538 l 271 1389 l 368 1389 l 368 538 l 465 538 l 465 1389 l 563 1389 l 563 440 l -7 440 "},"╝":{"ha":833,"x_min":0,"x_max":0,"o":"m -7 440 l 465 440 l 465 1389 l 563 1389 l 563 343 l -7 343 m 271 1389 l 368 1389 l 368 538 l -7 538 l -7 635 l 271 635 "},"╞":{"ha":833,"x_min":0,"x_max":0,"o":"m 840 538 l 465 538 l 465 440 l 840 440 l 840 343 l 465 343 l 465 -503 l 368 -503 l 368 1389 l 465 1389 l 465 635 l 840 635 "},"╟":{"ha":833,"x_min":0,"x_max":0,"o":"m 465 -503 l 465 1389 l 563 1389 l 563 538 l 840 538 l 840 440 l 563 440 l 563 -503 m 271 1389 l 368 1389 l 368 -503 l 271 -503 "},"╠":{"ha":833,"x_min":0,"x_max":0,"o":"m 271 1389 l 368 1389 l 368 -503 l 271 -503 m 465 -503 l 465 440 l 840 440 l 840 343 l 563 343 l 563 -503 m 840 538 l 465 538 l 465 1389 l 563 1389 l 563 635 l 840 635 "},"╡":{"ha":833,"x_min":0,"x_max":0,"o":"m -7 440 l 368 440 l 368 538 l -7 538 l -7 635 l 368 635 l 368 1389 l 465 1389 l 465 -503 l 368 -503 l 368 343 l -7 343 "},"╢":{"ha":833,"x_min":0,"x_max":0,"o":"m 271 -503 l 271 440 l -7 440 l -7 538 l 271 538 l 271 1389 l 368 1389 l 368 -503 m 465 -503 l 465 1389 l 563 1389 l 563 -503 "},"╣":{"ha":833,"x_min":0,"x_max":0,"o":"m 465 -503 l 465 1389 l 563 1389 l 563 -503 m -7 440 l 368 440 l 368 -503 l 271 -503 l 271 343 l -7 343 m 271 1389 l 368 1389 l 368 538 l -7 538 l -7 635 l 271 635 "},"╤":{"ha":833,"x_min":0,"x_max":0,"o":"m -7 440 l 840 440 l 840 343 l 465 343 l 465 -503 l 368 -503 l 368 343 l -7 343 m 840 538 l -7 538 l -7 635 l 840 635 "},"╥":{"ha":833,"x_min":0,"x_max":0,"o":"m -7 538 l 840 538 l 840 440 l 563 440 l 563 -503 l 465 -503 l 465 440 l 368 440 l 368 -503 l 271 -503 l 271 440 l -7 440 "},"╦":{"ha":833,"x_min":0,"x_max":0,"o":"m -7 440 l 368 440 l 368 -503 l 271 -503 l 271 343 l -7 343 m 465 -503 l 465 440 l 840 440 l 840 343 l 563 343 l 563 -503 m 840 538 l -7 538 l -7 635 l 840 635 "},"╧":{"ha":833,"x_min":0,"x_max":0,"o":"m 840 538 l -7 538 l -7 635 l 368 635 l 368 1389 l 465 1389 l 465 635 l 840 635 m -7 440 l 840 440 l 840 343 l -7 343 "},"╨":{"ha":833,"x_min":0,"x_max":0,"o":"m -7 538 l 271 538 l 271 1389 l 368 1389 l 368 538 l 465 538 l 465 1389 l 563 1389 l 563 538 l 840 538 l 840 440 l -7 440 "},"╩":{"ha":833,"x_min":0,"x_max":0,"o":"m 840 538 l 465 538 l 465 1389 l 563 1389 l 563 635 l 840 635 m 271 1389 l 368 1389 l 368 538 l -7 538 l -7 635 l 271 635 m -7 440 l 840 440 l 840 343 l -7 343 "},"╪":{"ha":833,"x_min":0,"x_max":0,"o":"m 840 538 l 465 538 l 465 440 l 840 440 l 840 343 l 465 343 l 465 -503 l 368 -503 l 368 343 l -7 343 l -7 440 l 368 440 l 368 538 l -7 538 l -7 635 l 368 635 l 368 1389 l 465 1389 l 465 635 l 840 635 "},"╫":{"ha":833,"x_min":0,"x_max":0,"o":"m -7 538 l 271 538 l 271 1389 l 368 1389 l 368 538 l 465 538 l 465 1389 l 563 1389 l 563 538 l 840 538 l 840 440 l 563 440 l 563 -503 l 465 -503 l 465 440 l 368 440 l 368 -503 l 271 -503 l 271 440 l -7 440 "},"╬":{"ha":833,"x_min":0,"x_max":0,"o":"m -7 440 l 368 440 l 368 -503 l 271 -503 l 271 343 l -7 343 m 465 -503 l 465 440 l 840 440 l 840 343 l 563 343 l 563 -503 m 840 538 l 465 538 l 465 1389 l 563 1389 l 563 635 l 840 635 m 271 1389 l 368 1389 l 368 538 l -7 538 l -7 635 l 271 635 "},"▀":{"ha":833,"x_min":0,"x_max":0,"o":"m 833 443 l 0 443 l 0 1389 l 833 1389 "},"▄":{"ha":833,"x_min":0,"x_max":0,"o":"m 0 443 l 833 443 l 833 -503 l 0 -503 "},"█":{"ha":833,"x_min":0,"x_max":0,"o":"m 0 1389 l 833 1389 l 833 -503 l 0 -503 "},"▌":{"ha":833,"x_min":0,"x_max":0,"o":"m 0 1389 l 417 1389 l 417 -503 l 0 -503 "},"▐":{"ha":833,"x_min":0,"x_max":0,"o":"m 417 -503 l 417 1389 l 833 1389 l 833 -503 "},"░":{"ha":833,"x_min":0,"x_max":0,"o":"m 694 -406 l 694 -500 l 625 -500 l 625 -406 m 556 -217 l 556 -311 l 486 -311 l 486 -217 m 278 -406 l 278 -500 l 208 -500 l 208 -406 m 556 161 l 556 67 l 486 67 l 486 161 m 556 350 l 556 256 l 486 256 l 486 350 m 556 539 l 556 444 l 486 444 l 486 539 m 278 350 l 278 256 l 208 256 l 208 350 m 556 917 l 556 822 l 486 822 l 486 917 m 556 1106 l 556 1011 l 486 1011 l 486 1106 m 556 1294 l 556 1200 l 486 1200 l 486 1294 m 417 -406 l 417 -500 l 347 -500 l 347 -406 m 278 -217 l 278 -311 l 208 -311 l 208 -217 m 139 -28 l 139 -122 l 69 -122 l 69 -28 m 278 161 l 278 67 l 208 67 l 208 161 m 556 728 l 556 633 l 486 633 l 486 728 m 278 539 l 278 444 l 208 444 l 208 539 m 278 728 l 278 633 l 208 633 l 208 728 m 278 917 l 278 822 l 208 822 l 208 917 m 278 1106 l 278 1011 l 208 1011 l 208 1106 m 278 1294 l 278 1200 l 208 1200 l 208 1294 m 694 -28 l 694 -122 l 625 -122 l 625 -28 m 139 1294 l 139 1200 l 69 1200 l 69 1294 m 139 1106 l 139 1011 l 69 1011 l 69 1106 m 139 917 l 139 822 l 69 822 l 69 917 m 278 -28 l 278 -122 l 208 -122 l 208 -28 m 139 539 l 139 444 l 69 444 l 69 539 m 417 -28 l 417 -122 l 347 -122 l 347 -28 m 139 161 l 139 67 l 69 67 l 69 161 m 139 728 l 139 633 l 69 633 l 69 728 m 139 -217 l 139 -311 l 69 -311 l 69 -217 m 556 -28 l 556 -122 l 486 -122 l 486 -28 m 417 1294 l 417 1200 l 347 1200 l 347 1294 m 417 1106 l 417 1011 l 347 1011 l 347 1106 m 417 917 l 417 822 l 347 822 l 347 917 m 417 728 l 417 633 l 347 633 l 347 728 m 417 539 l 417 444 l 347 444 l 347 539 m 694 728 l 694 633 l 625 633 l 625 728 m 417 161 l 417 67 l 347 67 l 347 161 m 139 350 l 139 256 l 69 256 l 69 350 m 417 -217 l 417 -311 l 347 -311 l 347 -217 m 556 -406 l 556 -500 l 486 -500 l 486 -406 m 694 1294 l 694 1200 l 625 1200 l 625 1294 m 694 1106 l 694 1011 l 625 1011 l 625 1106 m 694 917 l 694 822 l 625 822 l 625 917 m 417 350 l 417 256 l 347 256 l 347 350 m 694 539 l 694 444 l 625 444 l 625 539 m 694 350 l 694 256 l 625 256 l 625 350 m 694 161 l 694 67 l 625 67 l 625 161 m 139 -406 l 139 -500 l 69 -500 l 69 -406 m 694 -217 l 694 -311 l 625 -311 l 625 -217 m 833 -406 l 833 -500 l 764 -500 l 764 -406 m 833 -217 l 833 -311 l 764 -311 l 764 -217 m 833 -28 l 833 -122 l 764 -122 l 764 -28 m 833 161 l 833 67 l 764 67 l 764 161 m 833 350 l 833 256 l 764 256 l 764 350 m 833 539 l 833 444 l 764 444 l 764 539 m 833 728 l 833 633 l 764 633 l 764 728 m 833 917 l 833 822 l 764 822 l 764 917 m 833 1106 l 833 1011 l 764 1011 l 764 1106 m 833 1294 l 833 1200 l 764 1200 l 764 1294 "},"▒":{"ha":833,"x_min":0,"x_max":0,"o":"m 763 -406 l 694 -406 l 694 -500 l 624 -500 l 624 -406 l 556 -406 l 556 -500 l 485 -500 l 485 -406 l 417 -406 l 417 -500 l 346 -500 l 346 -406 l 278 -406 l 278 -500 l 207 -500 l 207 -406 l 139 -406 l 139 -500 l 68 -500 l 68 -406 l 0 -406 l 0 -310 l 68 -310 l 68 -217 l 0 -217 l 0 -121 l 68 -121 l 68 -28 l 0 -28 l 0 68 l 68 68 l 68 161 l 0 161 l 0 257 l 68 257 l 68 350 l 0 350 l 0 446 l 68 446 l 68 539 l 0 539 l 0 635 l 68 635 l 68 728 l 0 728 l 0 824 l 68 824 l 68 917 l 0 917 l 0 1013 l 68 1013 l 68 1106 l 0 1106 l 0 1201 l 68 1201 l 68 1294 l 0 1294 l 0 1389 l 69 1389 l 69 1296 l 138 1296 l 138 1389 l 208 1389 l 208 1296 l 276 1296 l 276 1389 l 347 1389 l 347 1296 l 415 1296 l 415 1389 l 486 1389 l 486 1296 l 554 1296 l 554 1389 l 625 1389 l 625 1296 l 693 1296 l 693 1389 l 764 1389 l 764 1296 l 833 1296 l 833 1200 l 764 1200 l 764 1107 l 833 1107 l 833 1011 l 764 1011 l 764 918 l 833 918 l 833 822 l 764 822 l 764 729 l 833 729 l 833 633 l 764 633 l 764 540 l 833 540 l 833 444 l 764 444 l 764 351 l 833 351 l 833 256 l 764 256 l 764 163 l 833 163 l 833 67 l 764 67 l 764 -26 l 833 -26 l 833 -122 l 764 -122 l 764 -215 l 833 -215 l 833 -311 l 764 -311 l 764 -404 l 833 -404 l 833 -500 l 763 -500 m 625 -404 l 693 -404 l 693 -311 l 625 -311 m 347 -404 l 415 -404 l 415 -311 l 347 -311 m 69 -404 l 138 -404 l 138 -311 l 69 -311 m 556 -310 l 624 -310 l 624 -217 l 556 -217 m 694 1201 l 763 1201 l 763 1294 l 694 1294 m 347 1107 l 415 1107 l 415 1200 l 347 1200 m 486 1107 l 554 1107 l 554 1200 l 486 1200 m 486 -26 l 554 -26 l 554 67 l 486 67 m 139 1201 l 207 1201 l 207 1294 l 139 1294 m 694 68 l 763 68 l 763 161 l 694 161 m 208 1107 l 276 1107 l 276 1200 l 208 1200 m 69 1107 l 138 1107 l 138 1200 l 69 1200 m 417 1013 l 485 1013 l 485 1106 l 417 1106 m 208 918 l 276 918 l 276 1011 l 208 1011 m 694 446 l 763 446 l 763 539 l 694 539 m 556 257 l 624 257 l 624 350 l 556 350 m 625 540 l 693 540 l 693 633 l 625 633 m 278 -121 l 346 -121 l 346 -28 l 278 -28 m 208 -26 l 276 -26 l 276 67 l 208 67 m 278 446 l 346 446 l 346 539 l 278 539 m 625 163 l 693 163 l 693 256 l 625 256 m 139 -121 l 207 -121 l 207 -28 l 139 -28 m 486 -215 l 554 -215 l 554 -122 l 486 -122 m 694 -121 l 763 -121 l 763 -28 l 694 -28 m 208 -215 l 276 -215 l 276 -122 l 208 -122 m 69 -26 l 138 -26 l 138 67 l 69 67 m 625 -26 l 693 -26 l 693 67 l 625 67 m 139 -310 l 207 -310 l 207 -217 l 139 -217 m 486 -404 l 554 -404 l 554 -311 l 486 -311 m 139 635 l 207 635 l 207 728 l 139 728 m 556 1201 l 624 1201 l 624 1294 l 556 1294 m 694 635 l 763 635 l 763 728 l 694 728 m 694 1013 l 763 1013 l 763 1106 l 694 1106 m 208 540 l 276 540 l 276 633 l 208 633 m 278 635 l 346 635 l 346 728 l 278 728 m 278 824 l 346 824 l 346 917 l 278 917 m 139 446 l 207 446 l 207 539 l 139 539 m 347 540 l 415 540 l 415 633 l 347 633 m 625 351 l 693 351 l 693 444 l 625 444 m 208 351 l 276 351 l 276 444 l 208 444 m 139 1013 l 207 1013 l 207 1106 l 139 1106 m 139 257 l 207 257 l 207 350 l 139 350 m 69 163 l 138 163 l 138 256 l 69 256 m 694 257 l 763 257 l 763 350 l 694 350 m 486 918 l 554 918 l 554 1011 l 486 1011 m 69 351 l 138 351 l 138 444 l 69 444 m 694 824 l 763 824 l 763 917 l 694 917 m 556 635 l 624 635 l 624 728 l 556 728 m 625 1107 l 693 1107 l 693 1200 l 625 1200 m 347 729 l 415 729 l 415 822 l 347 822 m 417 824 l 485 824 l 485 917 l 417 917 m 417 635 l 485 635 l 485 728 l 417 728 m 69 729 l 138 729 l 138 822 l 69 822 m 139 824 l 207 824 l 207 917 l 139 917 m 417 68 l 485 68 l 485 161 l 417 161 m 347 918 l 415 918 l 415 1011 l 347 1011 m 347 351 l 415 351 l 415 444 l 347 444 m 417 446 l 485 446 l 485 539 l 417 539 m 556 446 l 624 446 l 624 539 l 556 539 m 278 68 l 346 68 l 346 161 l 278 161 m 417 -121 l 485 -121 l 485 -28 l 417 -28 m 278 -310 l 346 -310 l 346 -217 l 278 -217 m 347 -215 l 415 -215 l 415 -122 l 347 -122 m 347 -26 l 415 -26 l 415 67 l 347 67 m 556 -121 l 624 -121 l 624 -28 l 556 -28 m 417 257 l 485 257 l 485 350 l 417 350 m 69 -215 l 138 -215 l 138 -122 l 69 -122 m 278 1201 l 346 1201 l 346 1294 l 278 1294 m 556 68 l 624 68 l 624 161 l 556 161 m 625 729 l 693 729 l 693 822 l 625 822 m 208 163 l 276 163 l 276 256 l 208 256 m 556 1013 l 624 1013 l 624 1106 l 556 1106 m 278 257 l 346 257 l 346 350 l 278 350 m 278 1013 l 346 1013 l 346 1106 l 278 1106 m 69 918 l 138 918 l 138 1011 l 69 1011 m 69 540 l 138 540 l 138 633 l 69 633 m 556 824 l 624 824 l 624 917 l 556 917 m 208 729 l 276 729 l 276 822 l 208 822 m 347 163 l 415 163 l 415 256 l 347 256 m 486 163 l 554 163 l 554 256 l 486 256 m 417 1201 l 485 1201 l 485 1294 l 417 1294 m 486 540 l 554 540 l 554 633 l 486 633 m 139 68 l 207 68 l 207 161 l 139 161 m 486 729 l 554 729 l 554 822 l 486 822 m 486 351 l 554 351 l 554 444 l 486 444 m 417 -310 l 485 -310 l 485 -217 l 417 -217 m 694 -310 l 763 -310 l 763 -217 l 694 -217 m 208 -404 l 276 -404 l 276 -311 l 208 -311 m 625 918 l 693 918 l 693 1011 l 625 1011 m 625 -215 l 693 -215 l 693 -122 l 625 -122 "},"▓":{"ha":833,"x_min":0,"x_max":0,"o":"m 69 -500 l 0 -500 l 0 1389 l 833 1389 l 833 1294 l 764 1294 l 764 1200 l 833 1200 l 833 1106 l 764 1106 l 764 1011 l 833 1011 l 833 917 l 764 917 l 764 822 l 833 822 l 833 728 l 764 728 l 764 633 l 833 633 l 833 539 l 764 539 l 764 444 l 833 444 l 833 350 l 764 350 l 764 256 l 833 256 l 833 161 l 764 161 l 764 67 l 833 67 l 833 -28 l 764 -28 l 764 -122 l 833 -122 l 833 -217 l 764 -217 l 764 -311 l 833 -311 l 833 -406 l 764 -406 l 764 -500 l 694 -500 l 694 -406 l 625 -406 l 625 -500 l 556 -500 l 556 -406 l 486 -406 l 486 -500 l 417 -500 l 417 -406 l 347 -406 l 347 -500 l 278 -500 l 278 -406 l 208 -406 l 208 -500 l 139 -500 l 139 -406 l 69 -406 m 625 67 l 694 67 l 694 161 l 625 161 m 625 256 l 694 256 l 694 350 l 625 350 m 625 444 l 694 444 l 694 539 l 625 539 m 347 256 l 417 256 l 417 350 l 347 350 m 625 822 l 694 822 l 694 917 l 625 917 m 625 1011 l 694 1011 l 694 1106 l 625 1106 m 625 1200 l 694 1200 l 694 1294 l 625 1294 m 347 -311 l 417 -311 l 417 -217 l 347 -217 m 69 256 l 139 256 l 139 350 l 69 350 m 347 67 l 417 67 l 417 161 l 347 161 m 625 633 l 694 633 l 694 728 l 625 728 m 347 444 l 417 444 l 417 539 l 347 539 m 347 633 l 417 633 l 417 728 l 347 728 m 347 822 l 417 822 l 417 917 l 347 917 m 347 1011 l 417 1011 l 417 1106 l 347 1106 m 347 1200 l 417 1200 l 417 1294 l 347 1294 m 486 -122 l 556 -122 l 556 -28 l 486 -28 m 69 -311 l 139 -311 l 139 -217 l 69 -217 m 69 633 l 139 633 l 139 728 l 69 728 m 69 67 l 139 67 l 139 161 l 69 161 m 347 -122 l 417 -122 l 417 -28 l 347 -28 m 69 444 l 139 444 l 139 539 l 69 539 m 208 -122 l 278 -122 l 278 -28 l 208 -28 m 69 822 l 139 822 l 139 917 l 69 917 m 69 1011 l 139 1011 l 139 1106 l 69 1106 m 69 1200 l 139 1200 l 139 1294 l 69 1294 m 625 -122 l 694 -122 l 694 -28 l 625 -28 m 208 1200 l 278 1200 l 278 1294 l 208 1294 m 208 1011 l 278 1011 l 278 1106 l 208 1106 m 208 822 l 278 822 l 278 917 l 208 917 m 208 633 l 278 633 l 278 728 l 208 728 m 208 444 l 278 444 l 278 539 l 208 539 m 486 633 l 556 633 l 556 728 l 486 728 m 208 67 l 278 67 l 278 161 l 208 161 m 69 -122 l 139 -122 l 139 -28 l 69 -28 m 208 -311 l 278 -311 l 278 -217 l 208 -217 m 486 1200 l 556 1200 l 556 1294 l 486 1294 m 486 1011 l 556 1011 l 556 1106 l 486 1106 m 486 822 l 556 822 l 556 917 l 486 917 m 208 256 l 278 256 l 278 350 l 208 350 m 486 444 l 556 444 l 556 539 l 486 539 m 486 256 l 556 256 l 556 350 l 486 350 m 486 67 l 556 67 l 556 161 l 486 161 m 486 -311 l 556 -311 l 556 -217 l 486 -217 m 625 -311 l 694 -311 l 694 -217 l 625 -217 "},"■":{"ha":833,"x_min":0,"x_max":0,"o":"m 42 750 l 792 750 l 792 0 l 42 0 "},"□":{"ha":833,"x_min":0,"x_max":0,"o":"m 42 750 l 792 750 l 792 0 l 42 0 m 694 97 l 694 653 l 139 653 l 139 97 "},"▪":{"ha":833,"x_min":0,"x_max":0,"o":"m 197 375 l 593 375 l 593 0 l 197 0 "},"▫":{"ha":833,"x_min":0,"x_max":0,"o":"m 197 375 l 593 375 l 593 0 l 197 0 m 496 97 l 496 278 l 294 278 l 294 97 "},"▬":{"ha":833,"x_min":0,"x_max":0,"o":"m 42 375 l 792 375 l 792 0 l 42 0 "},"▯":{"ha":778,"x_min":0,"x_max":0,"o":"m 103 1000 l 675 1000 l 675 0 l 103 0 m 583 93 l 583 907 l 194 907 l 194 93 "},"▲":{"ha":833,"x_min":0,"x_max":0,"o":"m 42 0 l 417 750 l 792 0 "},"►":{"ha":833,"x_min":0,"x_max":0,"o":"m 792 375 l 42 0 l 42 750 "},"▼":{"ha":833,"x_min":0,"x_max":0,"o":"m 417 0 l 42 750 l 792 750 "},"◄":{"ha":833,"x_min":0,"x_max":0,"o":"m 792 0 l 42 375 l 792 750 "},"◊":{"ha":833,"x_min":0,"x_max":0,"o":"m 411 896 l 186 486 l 413 76 l 647 486 m 469 0 l 351 0 l 76 486 l 353 972 l 469 972 l 757 486 "},"○":{"ha":833,"x_min":0,"x_max":0,"o":"m 42 375 b 417 750 42 582 208 750 b 792 375 624 750 792 582 b 417 0 792 167 624 0 b 42 375 208 0 42 167 m 139 375 b 417 97 139 221 263 97 b 694 375 569 97 694 221 b 417 653 694 528 569 653 b 139 375 263 653 139 528 "},"●":{"ha":833,"x_min":0,"x_max":0,"o":"m 42 375 b 417 750 42 582 208 750 b 792 375 624 750 792 582 b 417 0 792 167 624 0 b 42 375 208 0 42 167 "},"◘":{"ha":833,"x_min":0,"x_max":0,"o":"m 792 0 l 42 0 l 42 750 l 792 750 m 97 375 b 417 56 97 199 240 56 b 736 375 592 56 736 199 b 417 694 736 550 592 694 b 97 375 240 694 97 550 "},"◙":{"ha":833,"x_min":0,"x_max":0,"o":"m 42 750 l 792 750 l 792 0 l 42 0 m 90 375 b 417 49 90 194 236 49 b 743 375 596 49 743 194 b 417 701 743 554 596 701 b 90 375 236 701 90 554 m 188 375 b 417 604 188 501 289 604 b 646 375 543 604 646 501 b 417 146 646 247 543 146 b 188 375 289 146 188 247 "},"◦":{"ha":833,"x_min":0,"x_max":0,"o":"m 97 375 b 417 694 97 550 240 694 b 736 375 592 694 736 550 b 417 56 736 199 592 56 b 97 375 240 56 97 199 m 189 375 b 417 147 189 249 290 147 b 644 375 542 147 644 249 b 417 603 644 500 542 603 b 189 375 290 603 189 500 "},"☺":{"ha":1039,"x_min":0,"x_max":0,"o":"m 69 450 b 519 899 69 699 269 899 b 969 450 768 899 969 699 b 519 0 969 200 768 0 b 69 450 269 0 69 200 m 151 450 b 519 74 151 240 313 74 b 888 450 724 74 888 240 b 519 824 888 657 724 824 b 151 450 313 824 151 657 m 463 576 b 383 499 463 532 429 499 b 303 576 336 499 303 532 b 383 651 303 618 336 651 b 463 576 429 651 463 618 m 729 576 b 650 499 729 532 696 499 b 569 576 603 499 569 532 b 650 651 569 618 603 651 b 729 576 696 651 729 618 m 519 176 b 281 400 388 176 296 278 l 349 400 b 519 246 371 308 425 246 b 690 400 614 246 668 308 l 758 400 b 519 176 743 278 651 176 "},"☻":{"ha":1039,"x_min":0,"x_max":0,"o":"m 519 899 b 969 450 768 899 969 699 b 519 0 969 200 768 0 b 69 450 269 0 69 200 b 519 899 69 699 269 899 m 375 660 b 294 585 328 660 294 626 b 375 507 294 540 328 507 b 454 585 421 507 454 540 b 375 660 454 626 421 660 m 658 660 b 578 585 611 660 578 626 b 658 507 578 540 611 507 b 738 585 704 507 738 540 b 658 660 738 626 704 660 m 693 392 b 519 243 671 306 614 243 b 346 392 425 243 368 306 l 275 392 b 519 169 289 269 388 169 b 764 392 651 169 750 269 "},"☼":{"ha":1021,"x_min":0,"x_max":0,"o":"m 764 397 b 721 293 758 360 743 324 l 853 161 l 790 97 l 658 231 b 554 186 628 208 593 193 l 554 0 l 467 0 l 467 186 b 360 228 426 192 390 207 l 229 97 l 167 161 l 297 290 b 250 397 274 321 257 357 l 69 397 l 69 485 l 250 485 b 294 594 257 525 272 563 l 167 721 l 229 785 l 357 657 b 467 700 388 679 426 694 l 467 882 l 554 882 l 554 700 b 660 654 594 693 629 676 l 790 785 l 853 721 l 722 590 b 764 486 744 560 760 524 l 951 486 l 951 397 m 507 261 b 683 443 608 261 683 342 b 507 625 683 544 608 625 b 331 443 407 625 331 544 b 507 261 331 342 407 261 "},"♀":{"ha":674,"x_min":0,"x_max":0,"o":"m 372 239 l 538 239 l 538 178 l 372 178 l 372 0 l 303 0 l 303 178 l 138 178 l 138 239 l 303 239 l 303 376 b 69 635 171 394 69 499 b 336 899 69 783 188 899 b 604 635 485 899 604 783 b 372 379 604 499 503 396 m 143 635 b 336 439 143 521 222 439 b 531 635 450 439 531 521 b 336 833 531 749 450 833 b 143 635 222 833 143 749 "},"♂":{"ha":936,"x_min":0,"x_max":0,"o":"m 871 474 l 807 465 l 797 625 b 803 704 796 653 797 675 b 799 706 801 704 800 706 l 538 440 b 604 265 579 394 604 333 b 336 1 604 117 485 1 b 69 265 188 1 69 117 b 336 529 69 414 188 529 b 486 485 392 529 443 513 l 753 749 b 750 751 751 750 751 750 b 671 750 722 749 703 749 l 514 758 l 522 815 l 851 800 m 336 68 b 531 264 450 68 531 151 b 336 464 531 378 450 464 b 143 264 222 464 143 378 b 336 68 143 151 222 68 "},"♠":{"ha":906,"x_min":0,"x_max":0,"o":"m 836 0 l 69 0 l 136 108 l 396 108 l 422 333 b 233 224 376 257 317 224 b 69 399 133 224 69 292 b 453 899 69 549 217 681 b 836 399 689 681 836 549 b 672 224 836 292 772 224 b 483 333 589 224 529 257 l 510 108 l 769 108 "},"♣":{"ha":906,"x_min":0,"x_max":0,"o":"m 836 0 l 69 0 l 136 108 l 396 108 l 422 333 b 243 224 376 257 321 224 b 69 399 143 224 69 294 b 231 593 69 519 125 593 b 343 569 281 593 300 589 b 253 740 297 607 253 650 b 453 899 253 847 333 899 b 653 740 572 899 653 847 b 563 569 653 650 608 607 b 675 593 606 589 625 593 b 836 399 781 593 836 519 b 663 224 836 294 763 224 b 483 333 583 224 528 257 l 510 108 l 769 108 "},"♥":{"ha":972,"x_min":0,"x_max":0,"o":"m 486 0 b 69 622 253 207 69 425 b 263 829 69 733 142 829 b 486 658 378 829 436 767 b 710 829 536 767 594 829 b 903 622 831 829 903 733 b 486 0 903 428 719 207 "},"♦":{"ha":792,"x_min":0,"x_max":0,"o":"m 396 900 l 722 444 l 396 -18 l 69 444 "},"♪":{"ha":735,"x_min":0,"x_max":0,"o":"m 529 831 b 665 625 629 764 665 714 b 635 494 665 575 651 531 l 586 515 b 490 744 586 647 565 697 l 451 769 l 451 133 b 244 -17 451 67 367 -17 b 69 108 136 -17 69 32 b 264 250 69 192 147 250 b 386 222 303 250 353 240 l 386 882 l 451 882 "},"♫":{"ha":992,"x_min":0,"x_max":0,"o":"m 922 210 b 715 60 922 143 838 60 b 540 185 607 60 540 108 b 735 326 540 268 618 326 b 857 299 774 326 825 317 l 857 828 l 451 725 l 451 126 b 244 -24 451 60 365 -24 b 69 101 136 -24 69 25 b 264 243 69 185 147 243 b 386 215 301 243 353 233 l 386 819 l 922 958 "},"ﬀ":{"ha":847,"x_min":0,"x_max":0,"o":"m 854 915 b 747 932 814 926 774 932 b 660 840 690 932 660 904 l 660 722 l 819 722 l 819 633 l 660 633 l 660 0 l 556 0 l 556 633 l 243 633 l 243 0 l 140 0 l 140 633 l 33 633 l 33 722 l 140 722 l 140 785 b 372 1008 140 908 200 1008 b 596 964 450 1008 528 989 b 733 1021 625 1000 671 1021 b 854 1004 776 1021 818 1014 m 243 722 l 556 722 l 556 835 b 563 893 556 854 558 875 b 383 925 515 910 454 925 b 243 790 279 925 243 876 "},"ﬁ":{"ha":746,"x_min":0,"x_max":0,"o":"m 540 0 l 540 633 l 243 633 l 243 0 l 140 0 l 140 633 l 33 633 l 33 722 l 140 722 l 140 815 b 363 1017 140 935 208 1017 b 533 992 429 1017 497 1001 l 533 903 b 375 928 493 914 429 928 b 243 822 286 928 243 897 l 243 722 l 644 722 l 644 0 "},"ﬂ":{"ha":760,"x_min":0,"x_max":0,"o":"m 554 0 l 554 903 b 386 928 507 915 435 928 b 243 807 282 928 243 890 l 243 722 l 394 722 l 394 633 l 243 633 l 243 0 l 140 0 l 140 633 l 33 633 l 33 722 l 140 722 l 140 801 b 372 1017 140 925 201 1017 b 556 992 435 1017 511 1003 l 657 1000 l 657 0 "},"ﬃ":{"ha":1163,"x_min":0,"x_max":0,"o":"m 957 0 l 957 633 l 658 633 l 658 0 l 556 0 l 556 633 l 243 633 l 243 0 l 140 0 l 140 633 l 33 633 l 33 722 l 140 722 l 140 785 b 372 1008 140 908 200 1008 b 606 961 453 1008 536 988 b 778 1021 642 999 699 1021 b 950 996 846 1021 913 1007 l 950 907 b 792 932 910 918 844 932 b 658 826 701 932 658 901 l 658 722 l 1060 722 l 1060 0 m 556 821 b 565 890 556 846 558 869 b 383 925 518 908 456 925 b 243 790 279 925 243 876 l 243 722 l 556 722 l 556 821 "},"ﬄ":{"ha":1176,"x_min":0,"x_max":0,"o":"m 971 0 l 971 907 b 801 932 922 921 851 932 b 660 811 699 932 660 894 l 660 722 l 810 722 l 810 633 l 660 633 l 660 0 l 556 0 l 556 633 l 243 633 l 243 0 l 140 0 l 140 633 l 33 633 l 33 722 l 140 722 l 140 785 b 372 1008 140 908 200 1008 b 608 960 453 1008 539 988 b 789 1021 646 999 703 1021 b 972 996 851 1021 926 1008 l 1074 1004 l 1074 0 m 556 806 b 569 890 556 836 560 865 b 383 925 519 910 454 925 b 243 790 279 925 243 876 l 243 722 l 556 722 l 556 806 "},"﻿":{"ha":0,"x_min":0,"x_max":0,"o":""}}}
